{
.formatVersion = 3;
axes = (
{
name = Weight;
tag = wght;
},
{
name = Width;
tag = wdth;
}
);
classes = (
{
code = "zero one two three four five six seven eight nine zero one two three four five six seven eight nine";
name = case;
},
{
code = "zero.osf one.osf two.osf three.osf four.osf five.osf six.osf seven.osf eight.osf nine.osf zero.tosf one.tosf two.tosf three.tosf four.tosf five.tosf six.tosf seven.tosf eight.tosf nine.tosf";
name = case_lnum_onum;
},
{
code = "gravecomb acutecomb circumflexcomb tildecomb macroncomb brevecomb dotaccentcomb dieresiscomb ringcomb hungarumlautcomb caroncomb commaturnedabovecomb hookabovecomb";
name = ccmp;
},
{
code = "zero.dnom one.dnom two.dnom three.dnom four.dnom five.dnom six.dnom seven.dnom eight.dnom nine.dnom";
name = dnom_frac;
},
{
code = "zero one two three four five six seven eight nine";
name = dnom_frac_numr_ordn_sups;
},
{
code = "fraction zero.dnom one.dnom two.dnom three.dnom four.dnom five.dnom six.dnom seven.dnom eight.dnom nine.dnom";
name = frac;
},
{
code = "zero.numr one.numr two.numr three.numr four.numr five.numr six.numr seven.numr eight.numr nine.numr";
name = frac_numr;
},
{
code = "zero one two three four five six seven eight nine zero.tlf one.tlf two.tlf three.tlf four.tlf five.tlf six.tlf seven.tlf eight.tlf nine.tlf";
name = lnum_onum;
},
{
code = "Cacute Nacute Oacute Sacute Zacute cacute nacute oacute sacute zacute acutecomb";
name = locl;
},
{
code = "Cacute.loclPLK Nacute.loclPLK Oacute.loclPLK Sacute.loclPLK Zacute.loclPLK cacute.loclPLK nacute.loclPLK oacute.loclPLK sacute.loclPLK zacute.loclPLK acutecomb.loclPLK";
name = locl2;
},
{
code = "commaaccentcomb cedillacomb dotbelowcomb dieresisbelowcomb ringbelowcomb macronbelowcomb circumflexbelowcomb brevebelowcomb caronbelowcomb commaaccentcomb.loclMAH";
name = mkmk;
},
{

glyphs = (
{
glyphname = .notdef;
layers = (
{
layerId = "8C4EF6F1-AE03-4AE6-BFE8-0B39B8283028";
shapes = (
{
closed = 1;
nodes = (
(61,0,l),
(468,0,l),
(468,707,l),
(61,707,l)
);
},
{
closed = 1;
nodes = (
(96,35,l),
(96,672,l),
(433,672,l),
(433,35,l)
);
}
);
width = 529;
},
{
layerId = "8CE6108C-76AC-4665-97B3-B49825BA8C4F";
shapes = (
{
closed = 1;
nodes = (
(61,0,l),
(468,0,l),
(468,707,l),
(61,707,l)
);
},
{
closed = 1;
nodes = (
(96,35,l),
(96,672,l),
(433,672,l),
(433,35,l)
);
}
);
width = 529;
},
{
layerId = "42EEB6A2-0F6A-466B-B7DE-827BEDD2FBEB";
shapes = (
{
closed = 1;
nodes = (
(61,0,l),
(468,0,l),
(468,707,l),
(61,707,l)
);
},
{
closed = 1;
nodes = (
(96,35,l),
(96,672,l),
(433,672,l),
(433,35,l)
);
}
);
width = 529;
},
{
layerId = "1274E628-2993-4082-8B1F-A8F640106D1F";
shapes = (
{
closed = 1;
nodes = (
(61,0,l),
(468,0,l),
(468,707,l),
(61,707,l)
);
},
{
closed = 1;
nodes = (
(96,35,l),
(96,672,l),
(433,672,l),
(433,35,l)
);
}
);
width = 529;
},
{
layerId = "23A348E8-67C8-4D07-8EB8-1DABED859DB2";
shapes = (
{
closed = 1;
nodes = (
(61,0,l),
(468,0,l),
(468,707,l),
(61,707,l)
);
},
{
closed = 1;
nodes = (
(96,35,l),
(96,672,l),
(433,672,l),
(433,35,l)
);
}
);
width = 529;
}
);
},
{
glyphname = A;
layers = (
{
anchors = (
{
name = b.uni0324_2;
position = "{253, 0}";
},
{
name = m.uni0308_1;
position = "{341, 700}";
},
{
name = m.uni0328;
position = "{487, 7}";
}
);
layerId = "8C4EF6F1-AE03-4AE6-BFE8-0B39B8283028";
shapes = (
{
closed = 1;
nodes = (
(-42,0,l),
(123,0,l),
(154,107,l),
(288,107,l),
(292,0,l),
(456,0,l),
(374,700,l),
(218,700,l)
);
},
{
closed = 1;
nodes = (
(200,250,l),
(271,495,l),
(278,250,l)
);
}
);
width = 486;
},
{
anchors = (
{
name = b.uni0324_2;
position = "{258, 0}";
},
{
name = m.uni0308_1;
position = "{346, 700}";
},
{
name = m.uni0328;
position = "{523, 10}";
}
);
layerId = "8CE6108C-76AC-4665-97B3-B49825BA8C4F";
shapes = (
{
closed = 1;
nodes = (
(-50,0,l),
(132,0,l),
(179,115,l),
(384,115,l),
(401,0,l),
(585,0,l),
(426,700,l),
(285,700,l)
);
},
{
closed = 1;
nodes = (
(243,260,l),
(323,458,l),
(357,260,l)
);
}
);
width = 608;
},
{
anchors = (
{
name = b.uni0324_2;
position = "{214, 0}";
},
{
name = m.uni0308_1;
position = "{302, 700}";
},
{
name = m.uni0328;
position = "{398, 10}";
}
);
layerId = "F55717F1-0552-4366-9B04-B3FD14930E50";
shapes = (
{
closed = 1;
nodes = (
(-41,0,l),
(89,0,l),
(135,136,l),
(298,136,l),
(309,0,l),
(439,0,l),
(348,700,l),
(227,700,l)
);
},
{
closed = 1;
nodes = (
(172,248,l),
(267,532,l),
(289,248,l)
);
}
);
width = 470;
},
{
anchors = (
{
name = b.uni0324_2;
position = "{258, 0}";
},
{
name = m.uni0308_1;
position = "{346, 700}";
},
{
name = m.uni0328;
position = "{523, 10}";
}
);
layerId = "4CEE5D12-CF00-4907-BE82-3E2F3EAADBBF";
shapes = (
{
closed = 1;
nodes = (
(-48,0,l),
(93,0,l),
(153,137,l),
(396,137,l),
(422,0,l),
(564,0,l),
(401,700,l),
(291,700,l)
);
},
{
closed = 1;
nodes = (
(203,249,l),
(321,513,l),
(374,249,l)
);
}
);
width = 588;
},
{
anchors = (
{
name = b.uni0324_2;
position = "{156, 0}";
},
{
name = m.uni0308_1;
position = "{244, 700}";
},
{
name = m.uni0328;
position = "{267, 15}";
}
);
layerId = "518EE9C6-B2D1-4F77-9E99-A5231379CDB9";
shapes = (
{
closed = 1;
nodes = (
(-39,0,l),
(39,0,l),
(107,180,l),
(314,180,l),
(336,0,l),
(415,0,l),
(310,700,l),
(242,700,l)
);
},
{
closed = 1;
nodes = (
(131,245,l),
(261,587,l),
(306,245,l)
);
}
);
width = 448;
},
{
anchors = (
{
name = b.uni0324_2;
position = "{259, 0}";
},
{
name = m.uni0308_1;
position = "{347, 700}";
},
{
name = m.uni0328;
position = "{524, 10}";
}
);
layerId = "42EEB6A2-0F6A-466B-B7DE-827BEDD2FBEB";
shapes = (
{
closed = 1;
nodes = (
(-44,0,l),
(35,0,l),
(115,170,l),
(415,170,l),
(454,0,l),
(533,0,l),
(364,700,l),
(301,700,l)
);
},
{
closed = 1;
nodes = (
(145,233,l),
(318,595,l),
(402,233,l)
);
}
);
width = 560;
},
{
anchors = (
{
name = b.uni0324_2;
position = "{117, 0}";
},
{
name = m.uni0308_1;
position = "{205, 700}";
},
{
name = m.uni0328;
position = "{178, 18}";
}
);
layerId = "1274E628-2993-4082-8B1F-A8F640106D1F";
shapes = (
{
closed = 1;
nodes = (
(-38,0,l),
(5,0,l),
(87,209,l),
(323,209,l),
(353,0,l),
(398,0,l),
(284,700,l),
(251,700,l)
);
},
{
closed = 1;
nodes = (
(102,243,l),
(257,624,l),
(316,243,l)
);
}
);
width = 432;
},
{
anchors = (
{
name = b.uni0324_2;
position = "{259, 0}";
},
{
name = m.uni0308_1;
position = "{347, 700}";
},
{
name = m.uni0328;
position = "{524, 10}";
}
);
layerId = "23A348E8-67C8-4D07-8EB8-1DABED859DB2";
shapes = (
{
closed = 1;
nodes = (
(-42,0,l),
(-4,0,l),
(89,192,l),
(427,192,l),
(475,0,l),
(512,0,l),
(339,700,l),
(307,700,l)
);
},
{
closed = 1;
nodes = (
(106,222,l),
(316,650,l),
(420,222,l)
);
}
);
width = 540;
}
);
leftKerningGroup = A2;
rightKerningGroup = A;
unicode = 65;
},
{
glyphname = B;
layers = (
{
anchors = (
{
name = b.uni0324_2;
position = "{226, 0}";
},
{
name = m.uni0308_1;
position = "{314, 700}";
}
);
layerId = "8C4EF6F1-AE03-4AE6-BFE8-0B39B8283028";
shapes = (
{
closed = 1;
nodes = (
(-15,0,l),
(180,0,ls),
(289,0,o),
(347,35,o),
(375,95,cs),
(389,124,o),
(398,163,o),
(404,210,cs),
(410,253,o),
(410,287,o),
(406,311,cs),
(402,335,o),
(386,355,o),
(360,370,c),
(411,399,o),
(434,440,o),
(442,507,cs),
(460,646,o),
(412,700,o),
(269,700,cs),
(73,700,l)
);
},
{
closed = 1;
nodes = (
(160,143,l),
(179,298,l),
(198,298,ls),
(245,298,o),
(254,278,o),
(247,221,cs),
(243,189,o),
(237,168,o),
(229,158,cs),
(221,148,o),
(204,143,o),
(179,143,cs)
);
},
{
closed = 1;
nodes = (
(196,435,l),
(212,557,l),
(232,557,ls),
(277,557,o),
(288,543,o),
(282,496,cs),
(276,448,o),
(264,435,o),
(217,435,cs)
);
}
);
width = 432;
},
{
anchors = (
{
name = b.uni0324_2;
position = "{254, 0}";
},
{
name = m.uni0308_1;
position = "{342, 700}";
}
);
layerId = "8CE6108C-76AC-4665-97B3-B49825BA8C4F";
shapes = (
{
closed = 1;
nodes = (
(-7,0,l),
(290,0,ls),
(382,0,o),
(451,32,o),
(495,95,cs),
(516,126,o),
(530,164,o),
(535,207,cs),
(539,242,o),
(536,273,o),
(525,299,cs),
(514,325,o),
(496,345,o),
(471,360,c),
(520,392,o),
(557,445,o),
(563,498,cs),
(580,629,o),
(509,700,o),
(364,700,cs),
(81,700,l)
);
},
{
closed = 1;
nodes = (
(187,149,l),
(203,280,l),
(309,280,ls),
(350,280,o),
(368,256,o),
(363,219,cs),
(361,197,o),
(354,180,o),
(343,168,cs),
(331,155,o),
(315,149,o),
(293,149,cs)
);
},
{
closed = 1;
nodes = (
(222,430,l),
(237,551,l),
(333,551,ls),
(376,551,o),
(392,531,o),
(387,488,cs),
(382,451,o),
(363,430,o),
(318,430,cs)
);
}
);
width = 569;
},
{
anchors = (
{
name = b.uni0324_2;
position = "{177, 0}";
},
{
name = m.uni0308_1;
position = "{265, 700}";
}
);
layerId = "F55717F1-0552-4366-9B04-B3FD14930E50";
shapes = (
{
closed = 1;
nodes = (
(-3,0,l),
(186,0,ls),
(285,0,o),
(342,32,o),
(372,91,cs),
(387,120,o),
(398,158,o),
(403,203,cs),
(409,248,o),
(409,284,o),
(401,310,cs),
(393,335,o),
(374,354,o),
(346,367,c),
(402,394,o),
(431,439,o),
(440,511,cs),
(457,644,o),
(409,700,o),
(274,700,cs),
(85,700,l)
);
},
{
closed = 1;
nodes = (
(135,112,l),
(160,311,l),
(211,311,ls),
(270,311,o),
(288,281,o),
(280,212,cs),
(275,175,o),
(266,149,o),
(253,134,cs),
(239,119,o),
(217,112,o),
(186,112,cs)
);
},
{
closed = 1;
nodes = (
(173,419,l),
(195,588,l),
(247,588,ls),
(304,588,o),
(322,566,o),
(314,503,cs),
(306,443,o),
(282,419,o),
(225,419,cs)
);
}
);
width = 442;
},
{
anchors = (
{
name = b.uni0324_2;
position = "{254, 0}";
},
{
name = m.uni0308_1;
position = "{342, 700}";
}
);
layerId = "4CEE5D12-CF00-4907-BE82-3E2F3EAADBBF";
shapes = (
{
closed = 1;
nodes = (
(8,0,l),
(292,0,ls),
(383,0,o),
(452,32,o),
(495,93,cs),
(515,123,o),
(529,159,o),
(534,201,cs),
(539,239,o),
(535,272,o),
(521,299,cs),
(508,326,o),
(486,347,o),
(456,360,c),
(515,388,o),
(556,444,o),
(563,505,cs),
(579,630,o),
(509,700,o),
(369,700,cs),
(96,700,l)
);
},
{
closed = 1;
nodes = (
(158,116,l),
(180,298,l),
(316,298,ls),
(379,298,o),
(408,266,o),
(401,210,cs),
(398,180,o),
(387,157,o),
(369,141,cs),
(351,124,o),
(326,116,o),
(294,116,cs)
);
},
{
closed = 1;
nodes = (
(195,414,l),
(216,584,l),
(344,584,ls),
(407,584,o),
(435,556,o),
(427,497,cs),
(421,444,o),
(386,414,o),
(323,414,cs)
);
}
);
width = 580;
},
{
anchors = (
{
name = b.uni0324_2;
position = "{103, 0}";
},
{
name = m.uni0308_1;
position = "{191, 700}";
}
);
layerId = "518EE9C6-B2D1-4F77-9E99-A5231379CDB9";
shapes = (
{
closed = 1;
nodes = (
(14,0,l),
(194,0,ls),
(277,0,o),
(334,29,o),
(368,86,cs),
(384,115,o),
(396,150,o),
(401,193,cs),
(407,241,o),
(404,279,o),
(392,308,c),
(378,336,o),
(355,354,o),
(323,363,c),
(389,386,o),
(425,437,o),
(435,517,cs),
(450,642,o),
(404,700,o),
(281,700,cs),
(102,700,l)
);
},
{
closed = 1;
nodes = (
(96,66,l),
(129,330,l),
(229,330,ls),
(305,330,o),
(339,286,o),
(328,198,cs),
(322,153,o),
(309,119,o),
(287,98,cs),
(266,77,o),
(235,66,o),
(196,66,cs)
);
},
{
closed = 1;
nodes = (
(137,395,l),
(167,634,l),
(267,634,ls),
(343,634,o),
(371,600,o),
(360,513,cs),
(351,436,o),
(309,395,o),
(236,395,cs)
);
}
);
width = 455;
},
{
anchors = (
{
name = b.uni0324_2;
position = "{254, 0}";
},
{
name = m.uni0308_1;
position = "{342, 700}";
}
);
layerId = "42EEB6A2-0F6A-466B-B7DE-827BEDD2FBEB";
shapes = (
{
closed = 1;
nodes = (
(30,0,l),
(295,0,ls),
(383,0,o),
(454,31,o),
(495,89,cs),
(516,118,o),
(528,152,o),
(533,192,cs),
(538,234,o),
(533,270,o),
(516,299,cs),
(499,328,o),
(472,349,o),
(434,360,c),
(505,383,o),
(553,443,o),
(562,515,cs),
(577,632,o),
(509,700,o),
(377,700,cs),
(118,700,l)
);
},
{
closed = 1;
nodes = (
(113,66,l),
(146,325,l),
(328,325,ls),
(423,325,o),
(469,280,o),
(459,197,cs),
(453,155,o),
(436,123,o),
(409,100,cs),
(380,77,o),
(341,66,o),
(294,66,cs)
);
},
{
closed = 1;
nodes = (
(154,390,l),
(184,634,l),
(361,634,ls),
(453,634,o),
(497,592,o),
(487,511,cs),
(477,432,o),
(419,390,o),
(330,390,cs)
);
}
);
width = 596;
},
{
anchors = (
{
name = b.uni0324_2;
position = "{54, 0}";
},
{
name = m.uni0308_1;
position = "{142, 700}";
}
);
layerId = "1274E628-2993-4082-8B1F-A8F640106D1F";
shapes = (
{
closed = 1;
nodes = (
(26,0,l),
(200,0,ls),
(272,0,o),
(329,26,o),
(365,83,cs),
(384,111,o),
(395,145,o),
(400,186,cs),
(407,236,o),
(402,276,o),
(385,306,cs),
(369,336,o),
(343,354,o),
(309,360,c),
(381,380,o),
(422,436,o),
(432,521,cs),
(447,641,o),
(401,700,o),
(286,700,cs),
(114,700,l)
);
},
{
closed = 1;
nodes = (
(71,35,l),
(110,343,l),
(242,343,ls),
(330,343,o),
(373,289,o),
(361,189,cs),
(354,138,o),
(338,100,o),
(311,74,cs),
(285,48,o),
(248,35,o),
(203,35,cs)
);
},
{
closed = 1;
nodes = (
(114,379,l),
(150,665,l),
(282,665,ls),
(370,665,o),
(405,623,o),
(392,520,cs),
(381,431,o),
(328,379,o),
(244,379,cs)
);
}
);
width = 465;
},
{
anchors = (
{
name = b.uni0324_2;
position = "{254, 0}";
},
{
name = m.uni0308_1;
position = "{342, 700}";
}
);
layerId = "23A348E8-67C8-4D07-8EB8-1DABED859DB2";
shapes = (
{
closed = 1;
nodes = (
(45,0,l),
(297,0,ls),
(384,0,o),
(455,30,o),
(495,86,cs),
(515,114,o),
(527,147,o),
(532,186,cs),
(538,231,o),
(532,268,o),
(512,299,cs),
(493,330,o),
(463,350,o),
(419,360,c),
(498,379,o),
(552,442,o),
(562,522,cs),
(576,634,o),
(509,700,o),
(382,700,cs),
(133,700,l)
);
},
{
closed = 1;
nodes = (
(84,33,l),
(123,343,l),
(335,343,ls),
(451,343,o),
(509,289,o),
(497,188,cs),
(490,138,o),
(470,100,o),
(434,73,cs),
(399,46,o),
(352,33,o),
(295,33,cs)
);
},
{
closed = 1;
nodes = (
(127,374,l),
(163,667,l),
(372,667,ls),
(484,667,o),
(539,617,o),
(527,520,cs),
(515,425,o),
(442,374,o),
(335,374,cs)
);
}
);
width = 607;
}
);
unicode = 66;
},
{
glyphname = C;
layers = (
{
anchors = (
{
name = b.uni0324_2;
position = "{232, 0}";
},
{
name = m.uni0308_1;
position = "{320, 702}";
}
);
layerId = "8C4EF6F1-AE03-4AE6-BFE8-0B39B8283028";
shapes = (
{
closed = 1;
nodes = (
(268,-8,o),
(336,25,o),
(378,86,cs),
(399,117,o),
(411,153,o),
(417,196,cs),
(420,221,l),
(262,221,l),
(259,197,ls),
(254,157,o),
(234,135,o),
(206,135,c),
(174,136,o),
(163,159,o),
(169,208,cs),
(204,486,ls),
(210,539,o),
(223,565,o),
(260,565,cs),
(285,565,o),
(302,544,o),
(297,504,cs),
(293,473,l),
(452,473,l),
(456,504,ls),
(467,593,o),
(443,654,o),
(388,685,cs),
(360,700,o),
(325,708,o),
(284,708,cs),
(156,708,o),
(64,636,o),
(48,515,cs),
(7,186,ls),
(-9,59,o),
(57,-8,o),
(181,-8,cs)
);
}
);
width = 448;
},
{
anchors = (
{
name = b.uni0324_2;
position = "{255, 0}";
},
{
name = m.uni0308_1;
position = "{343, 700}";
}
);
layerId = "8CE6108C-76AC-4665-97B3-B49825BA8C4F";
shapes = (
{
closed = 1;
nodes = (
(366,-8,o),
(451,30,o),
(497,98,cs),
(521,132,o),
(535,172,o),
(540,219,cs),
(542,228,l),
(371,228,l),
(369,217,ls),
(365,181,o),
(326,147,o),
(273,147,cs),
(209,147,o),
(186,187,o),
(199,286,cs),
(214,409,ls),
(228,516,o),
(258,557,o),
(322,557,cs),
(378,557,o),
(407,519,o),
(401,474,cs),
(401,469,l),
(574,469,l),
(574,475,ls),
(587,572,o),
(552,643,o),
(478,680,cs),
(441,699,o),
(396,708,o),
(343,708,cs),
(159,708,o),
(64,610,o),
(40,419,cs),
(23,280,ls),
(-1,89,o),
(70,-8,o),
(250,-8,cs)
);
}
);
width = 575;
},
{
anchors = (
{
name = b.uni0324_2;
position = "{187, 0}";
},
{
name = m.uni0308_1;
position = "{275, 707}";
}
);
layerId = "F55717F1-0552-4366-9B04-B3FD14930E50";
shapes = (
{
closed = 1;
nodes = (
(269,-8,o),
(335,24,o),
(376,85,cs),
(396,116,o),
(408,152,o),
(413,195,cs),
(416,214,l),
(292,214,l),
(290,196,ls),
(282,136,o),
(251,104,o),
(206,104,c),
(155,105,o),
(135,138,o),
(144,206,cs),
(179,487,ls),
(188,560,o),
(214,595,o),
(267,595,cs),
(311,595,o),
(336,564,o),
(328,503,cs),
(325,482,l),
(450,482,l),
(453,504,ls),
(464,593,o),
(440,654,o),
(386,685,cs),
(359,700,o),
(325,708,o),
(285,708,cs),
(161,708,o),
(72,635,o),
(56,507,cs),
(17,193,ls),
(1,62,o),
(67,-8,o),
(188,-8,cs)
);
}
);
width = 455;
},
{
anchors = (
{
name = b.uni0324_2;
position = "{255, 0}";
},
{
name = m.uni0308_1;
position = "{343, 700}";
}
);
layerId = "4CEE5D12-CF00-4907-BE82-3E2F3EAADBBF";
shapes = (
{
closed = 1;
nodes = (
(363,-8,o),
(445,29,o),
(492,96,cs),
(515,129,o),
(530,168,o),
(536,213,cs),
(537,220,l),
(405,220,l),
(404,212,ls),
(396,155,o),
(346,112,o),
(273,112,cs),
(188,112,o),
(154,163,o),
(168,275,cs),
(186,419,ls),
(202,540,o),
(246,590,o),
(331,590,cs),
(406,590,o),
(445,545,o),
(437,481,cs),
(437,477,l),
(571,477,l),
(571,482,ls),
(583,574,o),
(549,644,o),
(477,681,cs),
(441,699,o),
(398,708,o),
(347,708,cs),
(174,708,o),
(76,614,o),
(52,426,cs),
(33,273,ls),
(10,85,o),
(84,-8,o),
(255,-8,cs)
);
}
);
width = 582;
},
{
anchors = (
{
name = b.uni0324_2;
position = "{119, 0}";
},
{
name = m.uni0308_1;
position = "{208, 714}";
}
);
layerId = "518EE9C6-B2D1-4F77-9E99-A5231379CDB9";
shapes = (
{
closed = 1;
nodes = (
(272,-8,o),
(332,23,o),
(371,84,cs),
(389,114,o),
(402,151,o),
(407,194,cs),
(409,204,l),
(337,204,l),
(335,195,ls),
(324,104,o),
(276,58,o),
(205,58,cs),
(126,59,o),
(93,107,o),
(105,203,cs),
(141,488,ls),
(154,592,o),
(201,640,o),
(278,640,cs),
(350,640,o),
(385,595,o),
(374,502,cs),
(373,495,l),
(447,495,l),
(448,504,ls),
(459,593,o),
(434,654,o),
(382,685,c),
(355,700,o),
(323,708,o),
(286,708,cs),
(167,708,o),
(85,634,o),
(68,495,cs),
(32,204,ls),
(14,67,o),
(80,-8,o),
(197,-8,cs)
);
}
);
width = 463;
},
{
anchors = (
{
name = b.uni0324_2;
position = "{255, 0}";
},
{
name = m.uni0308_1;
position = "{343, 700}";
}
);
layerId = "42EEB6A2-0F6A-466B-B7DE-827BEDD2FBEB";
shapes = (
{
closed = 1;
nodes = (
(359,-8,o),
(438,29,o),
(486,93,cs),
(509,125,o),
(523,162,o),
(529,204,cs),
(529,208,l),
(456,208,l),
(456,204,ls),
(445,116,o),
(376,60,o),
(273,60,cs),
(156,60,o),
(106,126,o),
(122,258,cs),
(144,434,ls),
(162,578,o),
(228,640,o),
(344,640,cs),
(447,640,o),
(503,584,o),
(492,492,cs),
(491,489,l),
(566,489,l),
(567,492,ls),
(577,577,o),
(544,645,o),
(476,681,cs),
(441,699,o),
(401,708,o),
(353,708,cs),
(196,708,o),
(94,620,o),
(71,437,cs),
(49,262,ls),
(26,79,o),
(106,-8,o),
(263,-8,cs)
);
}
);
width = 592;
},
{
anchors = (
{
name = b.uni0324_2;
position = "{74, 0}";
},
{
name = m.uni0308_1;
position = "{164, 719}";
}
);
layerId = "1274E628-2993-4082-8B1F-A8F640106D1F";
shapes = (
{
closed = 1;
nodes = (
(273,-8,o),
(332,22,o),
(368,83,cs),
(387,113,o),
(399,150,o),
(404,193,cs),
(405,197,l),
(367,197,l),
(366,194,ls),
(352,83,o),
(293,27,o),
(205,27,cs),
(109,28,o),
(66,86,o),
(80,201,cs),
(116,489,ls),
(132,613,o),
(193,670,o),
(286,670,cs),
(377,670,o),
(419,616,o),
(405,501,c),
(405,504,l),
(445,504,l),
(445,504,l),
(456,593,o),
(431,654,o),
(380,685,cs),
(354,700,o),
(323,708,o),
(287,708,cs),
(172,708,o),
(94,632,o),
(76,487,cs),
(41,211,ls),
(24,70,o),
(89,-8,o),
(204,-8,cs)
);
}
);
width = 470;
},
{
anchors = (
{
name = b.uni0324_2;
position = "{255, 0}";
},
{
name = m.uni0308_1;
position = "{343, 700}";
}
);
layerId = "23A348E8-67C8-4D07-8EB8-1DABED859DB2";
shapes = (
{
closed = 1;
nodes = (
(356,-8,o),
(433,28,o),
(480,91,cs),
(504,122,o),
(519,158,o),
(524,198,cs),
(524,200,l),
(490,200,l),
(490,199,ls),
(476,90,o),
(395,25,o),
(272,25,cs),
(133,25,o),
(74,102,o),
(92,247,cs),
(117,444,ls),
(136,603,o),
(216,673,o),
(353,673,cs),
(474,673,o),
(541,610,o),
(527,499,cs),
(527,497,l),
(563,497,l),
(563,499,ls),
(573,579,o),
(541,646,o),
(475,682,cs),
(442,699,o),
(403,708,o),
(357,708,cs),
(210,708,o),
(105,624,o),
(83,444,cs),
(59,255,ls),
(36,75,o),
(120,-8,o),
(268,-8,cs)
);
}
);
width = 599;
}
);
leftKerningGroup = C;
unicode = 67;
},
{
glyphname = Ccedilla;
layers = (
{
anchors = (
{
name = b.uni0324_2;
position = "{179, -167}";
},
{
name = m.uni0308_1;
position = "{320, 702}";
}
);
layerId = "8C4EF6F1-AE03-4AE6-BFE8-0B39B8283028";
shapes = (
{
closed = 1;
nodes = (
(62,-220,l),
(136,-220,l),
(210,-222,o),
(260,-186,o),
(267,-131,c),
(276,-75,o),
(254,-40,o),
(197,-34,c),
(208,-7,l),
(282,-1,o),
(341,32,o),
(378,86,cs),
(399,117,o),
(412,153,o),
(417,196,cs),
(420,221,l),
(262,221,l),
(259,197,ls),
(254,157,o),
(234,135,o),
(206,135,c),
(174,136,o),
(163,159,o),
(169,208,cs),
(204,486,ls),
(211,539,o),
(223,565,o),
(260,565,cs),
(285,565,o),
(302,544,o),
(297,504,cs),
(293,473,l),
(452,473,l),
(456,504,ls),
(467,593,o),
(443,654,o),
(388,685,cs),
(360,700,o),
(325,708,o),
(284,708,cs),
(156,708,o),
(63,636,o),
(48,515,cs),
(7,186,ls),
(-7,77,o),
(39,12,o),
(131,-4,c),
(111,-52,l),
(107,-85,l),
(153,-85,ls),
(170,-85,o),
(192,-93,o),
(189,-113,cs),
(187,-132,o),
(159,-133,o),
(147,-133,cs),
(73,-133,l)
);
}
);
width = 448;
},
{
anchors = (
{
name = b.uni0324_2;
position = "{205, -160}";
},
{
name = m.uni0308_1;
position = "{343, 700}";
}
);
layerId = "8CE6108C-76AC-4665-97B3-B49825BA8C4F";
shapes = (
{
closed = 1;
nodes = (
(147,-220,l),
(221,-220,l),
(295,-222,o),
(345,-186,o),
(352,-131,c),
(361,-75,o),
(339,-40,o),
(282,-34,c),
(294,-6,l),
(388,3,o),
(457,39,o),
(497,98,cs),
(520,132,o),
(534,172,o),
(540,219,cs),
(542,228,l),
(371,228,l),
(369,217,ls),
(364,181,o),
(326,147,o),
(273,147,cs),
(209,147,o),
(187,187,o),
(199,286,cs),
(214,409,ls),
(227,516,o),
(258,557,o),
(322,557,cs),
(378,557,o),
(407,519,o),
(401,474,cs),
(401,469,l),
(574,469,l),
(574,475,ls),
(586,572,o),
(552,643,o),
(478,680,cs),
(441,699,o),
(396,708,o),
(343,708,cs),
(159,708,o),
(64,610,o),
(40,419,cs),
(23,280,ls),
(1,102,o),
(61,5,o),
(215,-7,c),
(196,-52,l),
(192,-85,l),
(238,-85,ls),
(255,-85,o),
(277,-93,o),
(274,-113,cs),
(272,-132,o),
(244,-133,o),
(232,-133,cs),
(158,-133,l)
);
}
);
width = 575;
},
{
anchors = (
{
name = b.uni0324_2;
position = "{130, -168}";
},
{
name = m.uni0308_1;
position = "{275, 707}";
}
);
layerId = "F55717F1-0552-4366-9B04-B3FD14930E50";
shapes = (
{
closed = 1;
nodes = (
(91,-220,l),
(159,-220,l),
(228,-221,o),
(283,-190,o),
(290,-131,c),
(298,-77,o),
(274,-43,o),
(218,-37,c),
(232,-5,l),
(293,5,o),
(343,35,o),
(376,85,cs),
(396,116,o),
(408,152,o),
(413,195,cs),
(416,214,l),
(292,214,l),
(290,196,ls),
(282,136,o),
(251,104,o),
(206,104,c),
(155,105,o),
(135,138,o),
(144,206,cs),
(179,487,ls),
(188,560,o),
(214,595,o),
(267,595,cs),
(311,595,o),
(336,564,o),
(328,503,cs),
(325,482,l),
(450,482,l),
(453,504,ls),
(464,593,o),
(440,654,o),
(386,685,cs),
(359,700,o),
(325,708,o),
(285,708,cs),
(161,708,o),
(72,635,o),
(56,507,cs),
(17,193,ls),
(2,74,o),
(55,5,o),
(157,-6,c),
(139,-50,l),
(134,-85,l),
(176,-85,ls),
(197,-85,o),
(222,-93,o),
(219,-117,cs),
(216,-139,o),
(186,-143,o),
(169,-143,cs),
(101,-143,l)
);
}
);
width = 455;
},
{
anchors = (
{
name = b.uni0324_2;
position = "{205, -160}";
},
{
name = m.uni0308_1;
position = "{343, 700}";
}
);
layerId = "4CEE5D12-CF00-4907-BE82-3E2F3EAADBBF";
shapes = (
{
closed = 1;
nodes = (
(155,-220,l),
(223,-220,l),
(292,-221,o),
(347,-190,o),
(354,-131,c),
(362,-77,o),
(338,-43,o),
(282,-37,c),
(295,-6,l),
(383,2,o),
(451,38,o),
(492,96,cs),
(515,129,o),
(530,168,o),
(536,213,cs),
(537,220,l),
(405,220,l),
(404,212,ls),
(397,155,o),
(346,112,o),
(273,112,cs),
(188,112,o),
(154,163,o),
(168,275,cs),
(186,419,ls),
(201,540,o),
(246,590,o),
(331,590,cs),
(406,590,o),
(445,545,o),
(437,481,cs),
(437,477,l),
(571,477,l),
(571,482,ls),
(583,574,o),
(548,644,o),
(477,681,cs),
(441,699,o),
(398,708,o),
(347,708,cs),
(174,708,o),
(76,614,o),
(52,426,cs),
(33,273,ls),
(11,98,o),
(75,5,o),
(221,-7,c),
(203,-50,l),
(198,-85,l),
(240,-85,ls),
(261,-85,o),
(286,-93,o),
(283,-117,cs),
(280,-139,o),
(250,-143,o),
(233,-143,cs),
(165,-143,l)
);
}
);
width = 582;
},
{
anchors = (
{
name = b.uni0324_2;
position = "{56, -170}";
},
{
name = m.uni0308_1;
position = "{208, 714}";
}
);
layerId = "518EE9C6-B2D1-4F77-9E99-A5231379CDB9";
shapes = (
{
closed = 1;
nodes = (
(102,-220,l),
(160,-220,ls),
(222,-220,o),
(283,-197,o),
(291,-131,cs),
(298,-78,o),
(271,-47,o),
(218,-42,c),
(232,-5,l),
(290,3,o),
(339,33,o),
(371,84,cs),
(390,114,o),
(402,151,o),
(407,194,cs),
(409,204,l),
(337,204,l),
(335,195,ls),
(324,104,o),
(276,58,o),
(205,58,cs),
(126,59,o),
(93,107,o),
(105,203,cs),
(141,488,ls),
(154,592,o),
(201,640,o),
(278,640,cs),
(350,640,o),
(386,595,o),
(374,502,cs),
(373,495,l),
(447,495,l),
(448,504,ls),
(459,593,o),
(434,654,o),
(382,685,c),
(355,700,o),
(323,708,o),
(286,708,cs),
(167,708,o),
(85,634,o),
(68,495,cs),
(32,204,ls),
(17,81,o),
(67,7,o),
(163,-6,c),
(146,-48,l),
(141,-85,l),
(177,-85,ls),
(204,-85,o),
(237,-94,o),
(233,-123,cs),
(230,-150,o),
(194,-157,o),
(168,-157,cs),
(110,-157,l)
);
}
);
width = 463;
},
{
anchors = (
{
name = b.uni0324_2;
position = "{205, -160}";
},
{
name = m.uni0308_1;
position = "{343, 700}";
}
);
layerId = "42EEB6A2-0F6A-466B-B7DE-827BEDD2FBEB";
shapes = (
{
closed = 1;
nodes = (
(167,-220,l),
(225,-220,ls),
(287,-220,o),
(348,-197,o),
(356,-131,cs),
(363,-78,o),
(336,-47,o),
(283,-42,c),
(297,-6,l),
(377,2,o),
(444,37,o),
(486,93,cs),
(509,125,o),
(524,162,o),
(529,204,cs),
(529,208,l),
(456,208,l),
(456,204,ls),
(445,116,o),
(376,60,o),
(273,60,cs),
(156,60,o),
(105,126,o),
(122,258,cs),
(144,434,ls),
(162,578,o),
(228,640,o),
(344,640,cs),
(447,640,o),
(504,584,o),
(492,492,cs),
(491,489,l),
(566,489,l),
(567,492,ls),
(578,577,o),
(543,645,o),
(476,681,cs),
(441,699,o),
(401,708,o),
(353,708,cs),
(196,708,o),
(94,620,o),
(71,437,cs),
(49,262,ls),
(28,93,o),
(94,6,o),
(228,-6,c),
(211,-48,l),
(206,-85,l),
(242,-85,ls),
(269,-85,o),
(302,-94,o),
(298,-123,cs),
(295,-150,o),
(259,-157,o),
(233,-157,cs),
(175,-157,l)
);
}
);
width = 592;
},
{
anchors = (
{
name = b.uni0324_2;
position = "{7, -171}";
},
{
name = m.uni0308_1;
position = "{164, 719}";
}
);
layerId = "1274E628-2993-4082-8B1F-A8F640106D1F";
shapes = (
{
closed = 1;
nodes = (
(113,-220,l),
(160,-220,l),
(229,-221,o),
(283,-192,o),
(290,-138,cs),
(296,-90,o),
(261,-58,o),
(198,-54,c),
(218,-8,l),
(282,-4,o),
(334,26,o),
(368,83,cs),
(387,113,o),
(399,150,o),
(404,193,cs),
(405,197,l),
(367,197,l),
(366,194,ls),
(352,83,o),
(293,27,o),
(205,27,cs),
(108,28,o),
(66,86,o),
(80,201,cs),
(116,489,ls),
(132,613,o),
(193,670,o),
(286,670,cs),
(377,670,o),
(419,616,o),
(405,501,c),
(405,504,l),
(445,504,l),
(445,504,l),
(456,593,o),
(431,654,o),
(380,685,cs),
(354,700,o),
(323,708,o),
(287,708,cs),
(172,708,o),
(94,632,o),
(76,487,cs),
(41,211,ls),
(24,78,o),
(82,1,o),
(185,-7,c),
(161,-61,l),
(159,-83,l),
(178,-83,ls),
(227,-83,o),
(261,-101,o),
(257,-135,cs),
(253,-169,o),
(214,-186,o),
(165,-186,cs),
(118,-186,l)
);
}
);
width = 470;
},
{
anchors = (
{
name = b.uni0324_2;
position = "{205, -160}";
},
{
name = m.uni0308_1;
position = "{343, 700}";
}
);
layerId = "23A348E8-67C8-4D07-8EB8-1DABED859DB2";
shapes = (
{
closed = 1;
nodes = (
(168,-220,l),
(215,-220,l),
(284,-221,o),
(338,-192,o),
(345,-138,cs),
(351,-90,o),
(316,-58,o),
(253,-54,c),
(273,-8,l),
(359,-7,o),
(433,29,o),
(480,91,cs),
(504,122,o),
(519,158,o),
(524,198,cs),
(524,200,l),
(490,200,l),
(490,199,ls),
(476,90,o),
(395,25,o),
(272,25,cs),
(133,25,o),
(74,102,o),
(92,247,cs),
(117,444,ls),
(137,603,o),
(216,673,o),
(353,673,cs),
(474,673,o),
(541,610,o),
(527,499,cs),
(527,497,l),
(563,497,l),
(563,499,ls),
(573,579,o),
(540,646,o),
(475,682,cs),
(442,699,o),
(403,708,o),
(357,708,cs),
(210,708,o),
(106,624,o),
(83,444,cs),
(59,255,ls),
(38,87,o),
(109,3,o),
(240,-7,c),
(216,-61,l),
(214,-83,l),
(233,-83,ls),
(282,-83,o),
(316,-101,o),
(312,-135,cs),
(308,-169,o),
(269,-186,o),
(220,-186,cs),
(173,-186,l)
);
}
);
width = 599;
}
);
leftKerningGroup = C;
unicode = 199;
},
{
glyphname = D;
layers = (
{
anchors = (
{
name = b.uni0324_2;
position = "{227, 0}";
},
{
name = m.uni0308_1;
position = "{315, 700}";
}
);
layerId = "8C4EF6F1-AE03-4AE6-BFE8-0B39B8283028";
shapes = (
{
closed = 1;
nodes = (
(-14,0,l),
(175,0,ls),
(306,0,o),
(393,72,o),
(408,192,cs),
(448,508,ls),
(463,632,o),
(394,700,o),
(275,700,cs),
(74,700,l)
);
},
{
closed = 1;
nodes = (
(161,142,l),
(213,556,l),
(252,556,ls),
(279,556,o),
(291,531,o),
(285,476,cs),
(252,216,ls),
(246,171,o),
(228,142,o),
(200,142,cs)
);
}
);
width = 441;
},
{
anchors = (
{
name = b.uni0324_2;
position = "{256, 0}";
},
{
name = m.uni0308_1;
position = "{344, 700}";
}
);
layerId = "8CE6108C-76AC-4665-97B3-B49825BA8C4F";
shapes = (
{
closed = 1;
nodes = (
(-6,0,l),
(241,0,ls),
(424,0,o),
(521,99,o),
(545,290,cs),
(561,412,ls),
(586,612,o),
(505,700,o),
(336,700,cs),
(82,700,l)
);
},
{
closed = 1;
nodes = (
(188,150,l),
(238,550,l),
(315,550,ls),
(380,550,o),
(398,506,o),
(385,403,cs),
(372,294,ls),
(359,195,o),
(324,150,o),
(265,150,cs)
);
}
);
width = 570;
},
{
anchors = (
{
name = b.uni0324_2;
position = "{178, 0}";
},
{
name = m.uni0308_1;
position = "{266, 700}";
}
);
layerId = "F55717F1-0552-4366-9B04-B3FD14930E50";
shapes = (
{
closed = 1;
nodes = (
(-3,0,l),
(184,0,ls),
(309,0,o),
(394,73,o),
(410,201,cs),
(447,499,ls),
(464,628,o),
(398,700,o),
(279,700,cs),
(85,700,l)
);
},
{
closed = 1;
nodes = (
(135,112,l),
(194,587,l),
(261,587,ls),
(308,587,o),
(329,550,o),
(320,477,cs),
(287,215,ls),
(279,148,o),
(249,112,o),
(202,112,cs)
);
}
);
width = 450;
},
{
anchors = (
{
name = b.uni0324_2;
position = "{255, 0}";
},
{
name = m.uni0308_1;
position = "{343, 700}";
}
);
layerId = "4CEE5D12-CF00-4907-BE82-3E2F3EAADBBF";
shapes = (
{
closed = 1;
nodes = (
(8,0,l),
(253,0,ls),
(425,0,o),
(523,95,o),
(546,282,cs),
(563,419,ls),
(587,611,o),
(509,700,o),
(345,700,cs),
(96,700,l)
);
},
{
closed = 1;
nodes = (
(158,117,l),
(216,583,l),
(329,583,ls),
(413,583,o),
(443,531,o),
(429,412,cs),
(412,283,ls),
(398,171,o),
(351,117,o),
(271,117,cs)
);
}
);
width = 582;
},
{
anchors = (
{
name = b.uni0324_2;
position = "{103, 0}";
},
{
name = m.uni0308_1;
position = "{191, 700}";
}
);
layerId = "518EE9C6-B2D1-4F77-9E99-A5231379CDB9";
shapes = (
{
closed = 1;
nodes = (
(12,0,l),
(196,0,ls),
(313,0,o),
(395,75,o),
(413,214,cs),
(447,486,ls),
(464,623,o),
(403,700,o),
(284,700,cs),
(100,700,l)
);
},
{
closed = 1;
nodes = (
(95,67,l),
(166,633,l),
(275,633,ls),
(351,633,o),
(384,581,o),
(371,478,cs),
(338,213,ls),
(326,116,o),
(279,67,o),
(204,67,cs)
);
}
);
width = 462;
},
{
anchors = (
{
name = b.uni0324_2;
position = "{255, 0}";
},
{
name = m.uni0308_1;
position = "{343, 700}";
}
);
layerId = "42EEB6A2-0F6A-466B-B7DE-827BEDD2FBEB";
shapes = (
{
closed = 1;
nodes = (
(30,0,l),
(272,0,ls),
(428,0,o),
(527,90,o),
(550,270,cs),
(570,429,ls),
(592,609,o),
(516,700,o),
(360,700,cs),
(118,700,l)
);
},
{
closed = 1;
nodes = (
(115,68,l),
(185,632,l),
(352,632,ls),
(463,632,o),
(512,567,o),
(494,426,cs),
(474,266,ls),
(458,134,o),
(394,68,o),
(282,68,cs)
);
}
);
width = 603;
},
{
anchors = (
{
name = b.uni0324_2;
position = "{54, 0}";
},
{
name = m.uni0308_1;
position = "{142, 700}";
}
);
layerId = "1274E628-2993-4082-8B1F-A8F640106D1F";
shapes = (
{
closed = 1;
nodes = (
(23,0,l),
(205,0,ls),
(317,0,o),
(397,76,o),
(415,223,cs),
(447,477,ls),
(465,620,o),
(407,700,o),
(288,700,cs),
(111,700,l)
);
},
{
closed = 1;
nodes = (
(70,37,l),
(148,664,l),
(285,664,ls),
(381,664,o),
(421,600,o),
(406,479,cs),
(373,212,ls),
(358,93,o),
(300,37,o),
(207,37,cs)
);
}
);
width = 471;
},
{
anchors = (
{
name = b.uni0324_2;
position = "{254, 0}";
},
{
name = m.uni0308_1;
position = "{342, 700}";
}
);
layerId = "23A348E8-67C8-4D07-8EB8-1DABED859DB2";
shapes = (
{
closed = 1;
nodes = (
(44,0,l),
(284,0,ls),
(429,0,o),
(529,86,o),
(551,262,cs),
(573,436,ls),
(594,608,o),
(520,700,o),
(369,700,cs),
(132,700,l)
);
},
{
closed = 1;
nodes = (
(84,35,l),
(163,665,l),
(366,665,ls),
(495,665,o),
(557,592,o),
(537,435,cs),
(515,255,ls),
(497,110,o),
(420,35,o),
(287,35,cs)
);
}
);
width = 615;
}
);
unicode = 68;
},
{
glyphname = E;
layers = (
{
anchors = (
{
name = b.uni0324_2;
position = "{215, 0}";
},
{
name = m.uni0308_1;
position = "{303, 700}";
},
{
name = m.uni0328;
position = "{425, 10}";
}
);
layerId = "8C4EF6F1-AE03-4AE6-BFE8-0B39B8283028";
shapes = (
{
closed = 1;
nodes = (
(-14,0,l),
(350,0,l),
(368,143,l),
(160,143,l),
(178,285,l),
(367,285,l),
(384,427,l),
(195,427,l),
(212,556,l),
(420,556,l),
(438,700,l),
(74,700,l)
);
}
);
width = 397;
},
{
anchors = (
{
name = b.uni0324_2;
position = "{234, 0}";
},
{
name = m.uni0308_1;
position = "{322, 700}";
},
{
name = m.uni0328;
position = "{462, 10}";
}
);
layerId = "8CE6108C-76AC-4665-97B3-B49825BA8C4F";
shapes = (
{
closed = 1;
nodes = (
(-6,0,l),
(490,0,l),
(509,150,l),
(188,150,l),
(204,278,l),
(482,278,l),
(500,427,l),
(222,427,l),
(238,550,l),
(559,550,l),
(578,700,l),
(82,700,l)
);
}
);
width = 545;
},
{
anchors = (
{
name = b.uni0324_2;
position = "{166, 0}";
},
{
name = m.uni0308_1;
position = "{254, 700}";
},
{
name = m.uni0328;
position = "{336, 10}";
}
);
layerId = "F55717F1-0552-4366-9B04-B3FD14930E50";
shapes = (
{
closed = 1;
nodes = (
(-2,0,l),
(341,0,l),
(355,112,l),
(135,112,l),
(159,300,l),
(354,300,l),
(368,412,l),
(173,412,l),
(194,587,l),
(414,587,l),
(429,700,l),
(86,700,l)
);
}
);
width = 394;
},
{
anchors = (
{
name = b.uni0324_2;
position = "{234, 0}";
},
{
name = m.uni0308_1;
position = "{322, 700}";
},
{
name = m.uni0328;
position = "{462, 10}";
}
);
layerId = "4CEE5D12-CF00-4907-BE82-3E2F3EAADBBF";
shapes = (
{
closed = 1;
nodes = (
(9,0,l),
(478,0,l),
(493,117,l),
(159,117,l),
(181,297,l),
(469,297,l),
(484,414,l),
(196,414,l),
(217,583,l),
(551,583,l),
(566,700,l),
(97,700,l)
);
}
);
width = 539;
},
{
anchors = (
{
name = b.uni0324_2;
position = "{92, 0}";
},
{
name = m.uni0308_1;
position = "{180, 700}";
},
{
name = m.uni0328;
position = "{203, 10}";
}
);
layerId = "518EE9C6-B2D1-4F77-9E99-A5231379CDB9";
shapes = (
{
closed = 1;
nodes = (
(16,0,l),
(327,0,l),
(335,66,l),
(97,66,l),
(129,323,l),
(334,323,l),
(343,389,l),
(138,389,l),
(168,634,l),
(406,634,l),
(415,700,l),
(104,700,l)
);
}
);
width = 390;
},
{
anchors = (
{
name = b.uni0324_2;
position = "{235, 0}";
},
{
name = m.uni0308_1;
position = "{323, 700}";
},
{
name = m.uni0328;
position = "{463, 10}";
}
);
layerId = "42EEB6A2-0F6A-466B-B7DE-827BEDD2FBEB";
shapes = (
{
closed = 1;
nodes = (
(32,0,l),
(461,0,l),
(470,68,l),
(116,68,l),
(148,326,l),
(451,326,l),
(459,394,l),
(156,394,l),
(186,632,l),
(540,632,l),
(549,700,l),
(120,700,l)
);
}
);
width = 532;
},
{
anchors = (
{
name = b.uni0324_2;
position = "{43, 0}";
},
{
name = m.uni0308_1;
position = "{131, 700}";
},
{
name = m.uni0328;
position = "{114, 10}";
}
);
layerId = "1274E628-2993-4082-8B1F-A8F640106D1F";
shapes = (
{
closed = 1;
nodes = (
(28,0,l),
(318,0,l),
(322,35,l),
(72,35,l),
(110,338,l),
(321,338,l),
(326,374,l),
(115,374,l),
(151,665,l),
(401,665,l),
(406,700,l),
(116,700,l)
);
}
);
width = 387;
},
{
anchors = (
{
name = b.uni0324_2;
position = "{235, 0}";
},
{
name = m.uni0308_1;
position = "{323, 700}";
},
{
name = m.uni0328;
position = "{463, 10}";
}
);
layerId = "23A348E8-67C8-4D07-8EB8-1DABED859DB2";
shapes = (
{
closed = 1;
nodes = (
(47,0,l),
(449,0,l),
(453,35,l),
(86,35,l),
(125,345,l),
(438,345,l),
(443,381,l),
(130,381,l),
(165,665,l),
(532,665,l),
(537,700,l),
(135,700,l)
);
}
);
width = 526;
}
);
unicode = 69;
},
{
glyphname = Ecedilla;
layers = (
{
anchors = (
{
name = b.uni0324_2;
position = "{162, -167}";
},
{
name = m.uni0308_1;
position = "{303, 700}";
},
{
name = m.uni0328;
position = "{425, 10}";
}
);
layerId = "8C4EF6F1-AE03-4AE6-BFE8-0B39B8283028";
shapes = (
{
closed = 1;
nodes = (
(-14,0,l),
(107,0,l),
(85,-52,l),
(81,-85,l),
(127,-85,ls),
(144,-85,o),
(166,-93,o),
(163,-113,cs),
(161,-132,o),
(133,-133,o),
(121,-133,cs),
(47,-133,l),
(36,-220,l),
(110,-220,l),
(184,-222,o),
(234,-186,o),
(241,-131,c),
(250,-75,o),
(228,-40,o),
(171,-34,c),
(185,0,l),
(350,0,l),
(368,143,l),
(160,143,l),
(178,285,l),
(367,285,l),
(384,427,l),
(195,427,l),
(212,556,l),
(420,556,l),
(438,700,l),
(74,700,l)
);
}
);
width = 397;
},
{
anchors = (
{
name = b.uni0324_2;
position = "{184, -160}";
},
{
name = m.uni0308_1;
position = "{322, 700}";
},
{
name = m.uni0328;
position = "{462, 10}";
}
);
layerId = "8CE6108C-76AC-4665-97B3-B49825BA8C4F";
shapes = (
{
closed = 1;
nodes = (
(-6,0,l),
(204,0,l),
(182,-52,l),
(178,-85,l),
(224,-85,ls),
(241,-85,o),
(263,-93,o),
(260,-113,cs),
(258,-132,o),
(230,-133,o),
(218,-133,cs),
(144,-133,l),
(133,-220,l),
(207,-220,l),
(281,-222,o),
(331,-186,o),
(338,-131,c),
(347,-75,o),
(325,-40,o),
(268,-34,c),
(282,0,l),
(490,0,l),
(509,150,l),
(188,150,l),
(204,278,l),
(482,278,l),
(500,427,l),
(222,427,l),
(238,550,l),
(559,550,l),
(578,700,l),
(82,700,l)
);
}
);
width = 545;
},
{
anchors = (
{
name = b.uni0324_2;
position = "{109, -168}";
},
{
name = m.uni0308_1;
position = "{254, 700}";
},
{
name = m.uni0328;
position = "{336, 10}";
}
);
layerId = "F55717F1-0552-4366-9B04-B3FD14930E50";
shapes = (
{
closed = 1;
nodes = (
(-2,0,l),
(129,0,l),
(108,-50,l),
(103,-85,l),
(145,-85,ls),
(166,-85,o),
(191,-93,o),
(188,-117,cs),
(185,-139,o),
(155,-143,o),
(138,-143,cs),
(70,-143,l),
(60,-220,l),
(128,-220,l),
(197,-221,o),
(252,-190,o),
(259,-131,c),
(267,-77,o),
(243,-43,o),
(187,-37,c),
(203,0,l),
(341,0,l),
(355,112,l),
(135,112,l),
(159,300,l),
(354,300,l),
(368,412,l),
(173,412,l),
(194,587,l),
(414,587,l),
(429,700,l),
(86,700,l)
);
}
);
width = 394;
},
{
anchors = (
{
name = b.uni0324_2;
position = "{184, -160}";
},
{
name = m.uni0308_1;
position = "{322, 700}";
},
{
name = m.uni0328;
position = "{462, 10}";
}
);
layerId = "4CEE5D12-CF00-4907-BE82-3E2F3EAADBBF";
shapes = (
{
closed = 1;
nodes = (
(9,0,l),
(203,0,l),
(182,-50,l),
(177,-85,l),
(219,-85,ls),
(240,-85,o),
(265,-93,o),
(262,-117,cs),
(259,-139,o),
(229,-143,o),
(212,-143,cs),
(144,-143,l),
(134,-220,l),
(202,-220,l),
(271,-221,o),
(326,-190,o),
(333,-131,c),
(341,-77,o),
(317,-43,o),
(261,-37,c),
(277,0,l),
(478,0,l),
(493,117,l),
(159,117,l),
(181,297,l),
(469,297,l),
(484,414,l),
(196,414,l),
(217,583,l),
(551,583,l),
(566,700,l),
(97,700,l)
);
}
);
width = 539;
},
{
anchors = (
{
name = b.uni0324_2;
position = "{29, -170}";
},
{
name = m.uni0308_1;
position = "{180, 700}";
},
{
name = m.uni0328;
position = "{203, 10}";
}
);
layerId = "518EE9C6-B2D1-4F77-9E99-A5231379CDB9";
shapes = (
{
closed = 1;
nodes = (
(16,0,l),
(129,0,l),
(109,-48,l),
(104,-85,l),
(140,-85,ls),
(167,-85,o),
(200,-94,o),
(196,-123,cs),
(193,-150,o),
(157,-157,o),
(131,-157,cs),
(73,-157,l),
(65,-220,l),
(123,-220,ls),
(185,-220,o),
(246,-197,o),
(254,-131,cs),
(261,-78,o),
(234,-47,o),
(181,-42,c),
(198,0,l),
(327,0,l),
(335,66,l),
(97,66,l),
(129,323,l),
(334,323,l),
(343,389,l),
(138,389,l),
(168,634,l),
(406,634,l),
(415,700,l),
(104,700,l)
);
}
);
width = 390;
},
{
anchors = (
{
name = b.uni0324_2;
position = "{185, -160}";
},
{
name = m.uni0308_1;
position = "{323, 700}";
},
{
name = m.uni0328;
position = "{463, 10}";
}
);
layerId = "42EEB6A2-0F6A-466B-B7DE-827BEDD2FBEB";
shapes = (
{
closed = 1;
nodes = (
(32,0,l),
(201,0,l),
(181,-48,l),
(176,-85,l),
(212,-85,ls),
(239,-85,o),
(272,-94,o),
(268,-123,cs),
(265,-150,o),
(229,-157,o),
(203,-157,cs),
(145,-157,l),
(137,-220,l),
(195,-220,ls),
(257,-220,o),
(318,-197,o),
(326,-131,cs),
(333,-78,o),
(306,-47,o),
(253,-42,c),
(270,0,l),
(461,0,l),
(470,68,l),
(116,68,l),
(148,326,l),
(451,326,l),
(459,394,l),
(156,394,l),
(186,632,l),
(540,632,l),
(549,700,l),
(120,700,l)
);
}
);
width = 532;
},
{
anchors = (
{
name = b.uni0324_2;
position = "{-24, -171}";
},
{
name = m.uni0308_1;
position = "{131, 700}";
},
{
name = m.uni0328;
position = "{114, 10}";
}
);
layerId = "1274E628-2993-4082-8B1F-A8F640106D1F";
shapes = (
{
closed = 1;
nodes = (
(28,0,l),
(146,0,l),
(119,-61,l),
(117,-83,l),
(136,-83,ls),
(185,-83,o),
(219,-101,o),
(215,-135,cs),
(211,-169,o),
(172,-186,o),
(123,-186,cs),
(76,-186,l),
(71,-220,l),
(118,-220,l),
(187,-221,o),
(241,-192,o),
(248,-138,cs),
(254,-90,o),
(219,-58,o),
(156,-54,c),
(179,0,l),
(318,0,l),
(322,35,l),
(72,35,l),
(110,338,l),
(321,338,l),
(326,374,l),
(115,374,l),
(151,665,l),
(401,665,l),
(406,700,l),
(116,700,l)
);
}
);
width = 387;
},
{
anchors = (
{
name = b.uni0324_2;
position = "{185, -160}";
},
{
name = m.uni0308_1;
position = "{323, 700}";
},
{
name = m.uni0328;
position = "{463, 10}";
}
);
layerId = "23A348E8-67C8-4D07-8EB8-1DABED859DB2";
shapes = (
{
closed = 1;
nodes = (
(47,0,l),
(206,0,l),
(179,-61,l),
(177,-83,l),
(196,-83,ls),
(245,-83,o),
(279,-101,o),
(275,-135,cs),
(271,-169,o),
(232,-186,o),
(183,-186,cs),
(136,-186,l),
(131,-220,l),
(178,-220,l),
(247,-221,o),
(301,-192,o),
(308,-138,cs),
(314,-90,o),
(279,-58,o),
(216,-54,c),
(239,0,l),
(449,0,l),
(453,35,l),
(86,35,l),
(125,345,l),
(438,345,l),
(443,381,l),
(130,381,l),
(165,665,l),
(532,665,l),
(537,700,l),
(135,700,l)
);
}
);
width = 526;
}
);
unicode = 552;
},
{
glyphname = F;
layers = (
{
anchors = (
{
name = b.uni0324_2;
position = "{219, 0}";
},
{
name = m.uni0308_1;
position = "{307, 700}";
}
);
layerId = "8C4EF6F1-AE03-4AE6-BFE8-0B39B8283028";
shapes = (
{
closed = 1;
nodes = (
(-14,0,l),
(143,0,l),
(179,285,l),
(368,285,l),
(386,429,l),
(197,429,l),
(213,556,l),
(420,556,l),
(438,700,l),
(74,700,l)
);
}
);
width = 407;
},
{
anchors = (
{
name = b.uni0324_2;
position = "{234, 0}";
},
{
name = m.uni0308_1;
position = "{322, 700}";
}
);
layerId = "8CE6108C-76AC-4665-97B3-B49825BA8C4F";
shapes = (
{
closed = 1;
nodes = (
(-6,0,l),
(169,0,l),
(204,278,l),
(484,278,l),
(502,427,l),
(222,427,l),
(238,550,l),
(559,550,l),
(578,700,l),
(82,700,l)
);
}
);
width = 544;
},
{
anchors = (
{
name = b.uni0324_2;
position = "{167, 0}";
},
{
name = m.uni0308_1;
position = "{255, 700}";
}
);
layerId = "F55717F1-0552-4366-9B04-B3FD14930E50";
shapes = (
{
closed = 1;
nodes = (
(-2,0,l),
(122,0,l),
(159,299,l),
(354,299,l),
(369,412,l),
(174,412,l),
(195,587,l),
(414,587,l),
(429,700,l),
(86,700,l)
);
}
);
width = 398;
},
{
anchors = (
{
name = b.uni0324_2;
position = "{234, 0}";
},
{
name = m.uni0308_1;
position = "{322, 700}";
}
);
layerId = "4CEE5D12-CF00-4907-BE82-3E2F3EAADBBF";
shapes = (
{
closed = 1;
nodes = (
(9,0,l),
(144,0,l),
(181,297,l),
(470,297,l),
(485,414,l),
(196,414,l),
(217,583,l),
(551,583,l),
(566,700,l),
(97,700,l)
);
}
);
width = 539;
},
{
anchors = (
{
name = b.uni0324_2;
position = "{89, 0}";
},
{
name = m.uni0308_1;
position = "{177, 700}";
}
);
layerId = "518EE9C6-B2D1-4F77-9E99-A5231379CDB9";
shapes = (
{
closed = 1;
nodes = (
(16,0,l),
(90,0,l),
(130,320,l),
(335,320,l),
(343,386,l),
(138,386,l),
(169,634,l),
(406,634,l),
(415,700,l),
(104,700,l)
);
}
);
width = 384;
},
{
anchors = (
{
name = b.uni0324_2;
position = "{234, 0}";
},
{
name = m.uni0308_1;
position = "{322, 700}";
}
);
layerId = "42EEB6A2-0F6A-466B-B7DE-827BEDD2FBEB";
shapes = (
{
closed = 1;
nodes = (
(31,0,l),
(106,0,l),
(147,326,l),
(450,326,l),
(458,394,l),
(155,394,l),
(185,632,l),
(539,632,l),
(548,700,l),
(119,700,l)
);
}
);
width = 531;
},
{
anchors = (
{
name = b.uni0324_2;
position = "{38, 0}";
},
{
name = m.uni0308_1;
position = "{126, 700}";
}
);
layerId = "1274E628-2993-4082-8B1F-A8F640106D1F";
shapes = (
{
closed = 1;
nodes = (
(29,0,l),
(70,0,l),
(112,334,l),
(323,334,l),
(327,369,l),
(116,369,l),
(153,665,l),
(402,665,l),
(407,700,l),
(117,700,l)
);
}
);
width = 377;
},
{
anchors = (
{
name = b.uni0324_2;
position = "{235, 0}";
},
{
name = m.uni0308_1;
position = "{323, 700}";
}
);
layerId = "23A348E8-67C8-4D07-8EB8-1DABED859DB2";
shapes = (
{
closed = 1;
nodes = (
(47,0,l),
(82,0,l),
(125,345,l),
(437,345,l),
(442,381,l),
(130,381,l),
(165,665,l),
(532,665,l),
(537,700,l),
(135,700,l)
);
}
);
width = 528;
}
);
unicode = 70;
},
{
glyphname = G;
layers = (
{
anchors = (
{
name = b.uni0324_2;
position = "{232, 0}";
},
{
name = m.uni0308_1;
position = "{320, 700}";
}
);
layerId = "8C4EF6F1-AE03-4AE6-BFE8-0B39B8283028";
shapes = (
{
closed = 1;
nodes = (
(244,-8,o),
(296,10,o),
(340,45,cs),
(382,80,o),
(407,127,o),
(414,185,cs),
(439,381,l),
(237,381,l),
(222,260,l),
(267,260,l),
(259,200,ls),
(254,159,o),
(240,135,o),
(207,135,c),
(175,136,o),
(163,159,o),
(169,208,cs),
(204,486,ls),
(211,541,o),
(224,564,o),
(261,564,cs),
(285,564,o),
(302,544,o),
(298,511,cs),
(295,484,l),
(452,484,l),
(455,511,ls),
(465,594,o),
(440,656,o),
(385,686,cs),
(357,701,o),
(323,708,o),
(284,708,cs),
(220,708,o),
(166,691,o),
(124,657,cs),
(82,623,o),
(57,576,o),
(49,515,cs),
(8,184,ls),
(0,121,o),
(12,74,o),
(43,41,cs),
(74,8,o),
(120,-8,o),
(182,-8,cs)
);
}
);
width = 448;
},
{
anchors = (
{
name = b.uni0324_2;
position = "{255, 0}";
},
{
name = m.uni0308_1;
position = "{343, 700}";
}
);
layerId = "8CE6108C-76AC-4665-97B3-B49825BA8C4F";
shapes = (
{
closed = 1;
nodes = (
(340,-8,o),
(410,15,o),
(459,61,cs),
(507,107,o),
(537,175,o),
(548,266,cs),
(564,391,l),
(300,391,l),
(282,250,l),
(378,250,l),
(377,237,ls),
(369,177,o),
(342,147,o),
(279,147,cs),
(207,147,o),
(186,183,o),
(199,286,cs),
(214,409,ls),
(228,517,o),
(258,557,o),
(323,557,cs),
(379,557,o),
(408,516,o),
(401,467,cs),
(400,458,l),
(573,458,l),
(574,467,ls),
(587,570,o),
(553,644,o),
(479,681,cs),
(442,699,o),
(397,708,o),
(344,708,cs),
(251,708,o),
(181,684,o),
(131,635,cs),
(82,586,o),
(52,514,o),
(40,419,cs),
(23,280,ls),
(11,185,o),
(23,113,o),
(60,65,cs),
(97,16,o),
(160,-8,o),
(251,-8,cs)
);
}
);
width = 575;
},
{
anchors = (
{
name = b.uni0324_2;
position = "{187, 0}";
},
{
name = m.uni0308_1;
position = "{275, 700}";
}
);
layerId = "F55717F1-0552-4366-9B04-B3FD14930E50";
shapes = (
{
closed = 1;
nodes = (
(249,-8,o),
(299,10,o),
(341,46,cs),
(381,81,o),
(405,130,o),
(413,192,cs),
(436,372,l),
(239,372,l),
(226,275,l),
(299,275,l),
(290,200,ls),
(282,137,o),
(255,104,o),
(206,104,c),
(155,105,o),
(135,138,o),
(144,206,cs),
(179,487,ls),
(188,560,o),
(214,595,o),
(267,595,cs),
(310,595,o),
(336,564,o),
(329,512,cs),
(326,491,l),
(450,491,l),
(453,512,ls),
(463,595,o),
(439,656,o),
(385,686,cs),
(358,701,o),
(324,708,o),
(285,708,cs),
(223,708,o),
(171,691,o),
(131,656,cs),
(90,621,o),
(65,571,o),
(57,507,cs),
(18,192,ls),
(10,127,o),
(21,77,o),
(51,43,cs),
(82,9,o),
(127,-8,o),
(188,-8,cs)
);
}
);
width = 455;
},
{
anchors = (
{
name = b.uni0324_2;
position = "{255, 0}";
},
{
name = m.uni0308_1;
position = "{343, 700}";
}
);
layerId = "4CEE5D12-CF00-4907-BE82-3E2F3EAADBBF";
shapes = (
{
closed = 1;
nodes = (
(340,-8,o),
(406,15,o),
(455,60,cs),
(503,105,o),
(533,173,o),
(544,263,cs),
(559,384,l),
(303,384,l),
(289,273,l),
(414,273,l),
(410,240,ls),
(399,153,o),
(357,112,o),
(276,112,cs),
(187,112,o),
(154,160,o),
(168,275,cs),
(186,419,ls),
(202,540,o),
(246,590,o),
(331,590,cs),
(406,590,o),
(445,543,o),
(437,478,cs),
(436,471,l),
(570,471,l),
(571,478,ls),
(583,573,o),
(549,644,o),
(477,681,cs),
(441,699,o),
(398,708,o),
(347,708,cs),
(260,708,o),
(193,685,o),
(144,638,cs),
(95,591,o),
(64,520,o),
(52,426,cs),
(33,273,ls),
(21,179,o),
(35,109,o),
(72,62,cs),
(109,15,o),
(170,-8,o),
(255,-8,cs)
);
}
);
width = 582;
},
{
anchors = (
{
name = b.uni0324_2;
position = "{119, 0}";
},
{
name = m.uni0308_1;
position = "{207, 700}";
}
);
layerId = "518EE9C6-B2D1-4F77-9E99-A5231379CDB9";
shapes = (
{
closed = 1;
nodes = (
(255,-8,o),
(303,10,o),
(341,47,cs),
(378,83,o),
(402,135,o),
(410,203,cs),
(430,358,l),
(241,358,l),
(233,297,l),
(348,297,l),
(336,200,ls),
(324,105,o),
(276,58,o),
(204,58,cs),
(125,59,o),
(93,107,o),
(105,203,cs),
(141,488,ls),
(154,591,o),
(200,641,o),
(277,641,cs),
(348,641,o),
(385,594,o),
(375,514,cs),
(374,502,l),
(448,502,l),
(449,514,ls),
(460,597,o),
(435,656,o),
(383,686,cs),
(357,701,o),
(325,708,o),
(286,708,cs),
(227,708,o),
(177,690,o),
(139,654,cs),
(100,617,o),
(77,564,o),
(68,495,cs),
(32,204,ls),
(23,135,o),
(33,82,o),
(64,46,cs),
(93,10,o),
(137,-8,o),
(196,-8,cs)
);
}
);
width = 463;
},
{
anchors = (
{
name = b.uni0324_2;
position = "{255, 0}";
},
{
name = m.uni0308_1;
position = "{343, 700}";
}
);
layerId = "42EEB6A2-0F6A-466B-B7DE-827BEDD2FBEB";
shapes = (
{
closed = 1;
nodes = (
(338,-8,o),
(401,14,o),
(449,59,cs),
(497,103,o),
(526,169,o),
(537,258,cs),
(552,373,l),
(308,373,l),
(299,307,l),
(468,307,l),
(461,245,ls),
(445,118,o),
(381,60,o),
(272,60,cs),
(156,60,o),
(106,126,o),
(122,258,cs),
(144,434,ls),
(162,575,o),
(228,640,o),
(343,640,cs),
(446,640,o),
(501,585,o),
(490,494,cs),
(489,490,l),
(564,490,l),
(565,494,ls),
(575,577,o),
(543,644,o),
(475,681,cs),
(440,699,o),
(400,708,o),
(351,708,cs),
(274,708,o),
(210,686,o),
(161,641,cs),
(113,596,o),
(82,528,o),
(71,437,cs),
(49,262,ls),
(37,171,o),
(51,103,o),
(88,59,cs),
(126,14,o),
(184,-8,o),
(261,-8,cs)
);
}
);
width = 592;
},
{
anchors = (
{
name = b.uni0324_2;
position = "{74, 0}";
},
{
name = m.uni0308_1;
position = "{162, 700}";
}
);
layerId = "1274E628-2993-4082-8B1F-A8F640106D1F";
shapes = (
{
closed = 1;
nodes = (
(259,-8,o),
(306,10,o),
(342,47,cs),
(378,84,o),
(400,138,o),
(409,210,cs),
(427,349,l),
(243,349,l),
(238,312,l),
(381,312,l),
(367,200,ls),
(353,84,o),
(291,27,o),
(203,27,cs),
(107,28,o),
(66,86,o),
(80,201,cs),
(116,489,ls),
(131,610,o),
(191,672,o),
(284,672,cs),
(373,672,o),
(419,614,o),
(406,515,cs),
(406,509,l),
(447,509,l),
(447,515,ls),
(458,598,o),
(434,656,o),
(383,686,cs),
(358,701,o),
(326,708,o),
(287,708,cs),
(230,708,o),
(182,689,o),
(146,652,cs),
(108,615,o),
(85,560,o),
(76,487,cs),
(42,212,ls),
(33,140,o),
(43,85,o),
(72,48,cs),
(101,11,o),
(145,-8,o),
(202,-8,cs)
);
}
);
width = 470;
},
{
anchors = (
{
name = b.uni0324_2;
position = "{255, 0}";
},
{
name = m.uni0308_1;
position = "{343, 700}";
}
);
layerId = "23A348E8-67C8-4D07-8EB8-1DABED859DB2";
shapes = (
{
closed = 1;
nodes = (
(338,-8,o),
(398,14,o),
(445,58,cs),
(493,101,o),
(522,167,o),
(533,255,cs),
(547,366,l),
(311,366,l),
(306,330,l),
(504,330,l),
(494,248,ls),
(475,95,o),
(396,25,o),
(268,25,cs),
(135,25,o),
(74,103,o),
(92,247,cs),
(117,444,ls),
(136,599,o),
(216,673,o),
(351,673,cs),
(472,673,o),
(539,612,o),
(525,505,cs),
(525,503,l),
(561,503,l),
(561,505,ls),
(571,580,o),
(540,644,o),
(473,681,cs),
(440,699,o),
(401,708,o),
(354,708,cs),
(283,708,o),
(222,687,o),
(174,644,cs),
(124,601,o),
(94,534,o),
(83,444,cs),
(59,255,ls),
(48,165,o),
(61,99,o),
(100,56,cs),
(138,13,o),
(193,-8,o),
(265,-8,cs)
);
}
);
width = 599;
}
);
unicode = 71;
},
{
glyphname = H;
layers = (
{
anchors = (
{
name = b.uni0324_2;
position = "{229, 0}";
},
{
name = m.uni0308_1;
position = "{317, 700}";
}
);
layerId = "8C4EF6F1-AE03-4AE6-BFE8-0B39B8283028";
shapes = (
{
closed = 1;
nodes = (
(-15,0,l),
(144,0,l),
(180,284,l),
(255,284,l),
(219,0,l),
(378,0,l),
(466,700,l),
(307,700,l),
(272,427,l),
(197,427,l),
(232,700,l),
(73,700,l)
);
}
);
width = 435;
},
{
anchors = (
{
name = b.uni0324_2;
position = "{260, 0}";
},
{
name = m.uni0308_1;
position = "{348, 700}";
}
);
layerId = "8CE6108C-76AC-4665-97B3-B49825BA8C4F";
shapes = (
{
closed = 1;
nodes = (
(-7,0,l),
(168,0,l),
(203,278,l),
(373,278,l),
(338,0,l),
(512,0,l),
(600,700,l),
(426,700,l),
(391,427,l),
(221,427,l),
(256,700,l),
(81,700,l)
);
}
);
width = 577;
},
{
anchors = (
{
name = b.uni0324_2;
position = "{178, 0}";
},
{
name = m.uni0308_1;
position = "{266, 700}";
}
);
layerId = "F55717F1-0552-4366-9B04-B3FD14930E50";
shapes = (
{
closed = 1;
nodes = (
(-3,0,l),
(122,0,l),
(160,300,l),
(291,300,l),
(253,0,l),
(378,0,l),
(466,700,l),
(341,700,l),
(305,412,l),
(174,412,l),
(210,700,l),
(85,700,l)
);
}
);
width = 447;
},
{
anchors = (
{
name = b.uni0324_2;
position = "{260, 0}";
},
{
name = m.uni0308_1;
position = "{348, 700}";
}
);
layerId = "4CEE5D12-CF00-4907-BE82-3E2F3EAADBBF";
shapes = (
{
closed = 1;
nodes = (
(8,0,l),
(143,0,l),
(180,297,l),
(414,297,l),
(377,0,l),
(511,0,l),
(599,700,l),
(465,700,l),
(429,414,l),
(195,414,l),
(231,700,l),
(96,700,l)
);
}
);
width = 591;
},
{
anchors = (
{
name = b.uni0324_2;
position = "{100, 0}";
},
{
name = m.uni0308_1;
position = "{188, 700}";
}
);
layerId = "518EE9C6-B2D1-4F77-9E99-A5231379CDB9";
shapes = (
{
closed = 1;
nodes = (
(14,0,l),
(88,0,l),
(129,324,l),
(344,324,l),
(303,0,l),
(377,0,l),
(465,700,l),
(391,700,l),
(352,389,l),
(137,389,l),
(176,700,l),
(102,700,l)
);
}
);
width = 463;
},
{
anchors = (
{
name = b.uni0324_2;
position = "{259, 0}";
},
{
name = m.uni0308_1;
position = "{347, 700}";
}
);
layerId = "42EEB6A2-0F6A-466B-B7DE-827BEDD2FBEB";
shapes = (
{
closed = 1;
nodes = (
(29,0,l),
(104,0,l),
(145,326,l),
(475,326,l),
(434,0,l),
(509,0,l),
(597,700,l),
(522,700,l),
(483,394,l),
(153,394,l),
(192,700,l),
(117,700,l)
);
}
);
width = 610;
},
{
anchors = (
{
name = b.uni0324_2;
position = "{49, 0}";
},
{
name = m.uni0308_1;
position = "{137, 700}";
}
);
layerId = "1274E628-2993-4082-8B1F-A8F640106D1F";
shapes = (
{
closed = 1;
nodes = (
(26,0,l),
(66,0,l),
(109,340,l),
(380,340,l),
(337,0,l),
(377,0,l),
(465,700,l),
(425,700,l),
(384,374,l),
(113,374,l),
(154,700,l),
(114,700,l)
);
}
);
width = 475;
},
{
anchors = (
{
name = b.uni0324_2;
position = "{259, 0}";
},
{
name = m.uni0308_1;
position = "{347, 700}";
}
);
layerId = "23A348E8-67C8-4D07-8EB8-1DABED859DB2";
shapes = (
{
closed = 1;
nodes = (
(44,0,l),
(79,0,l),
(122,345,l),
(516,345,l),
(473,0,l),
(508,0,l),
(596,700,l),
(561,700,l),
(521,381,l),
(127,381,l),
(167,700,l),
(132,700,l)
);
}
);
width = 624;
}
);
unicode = 72;
},
{
glyphname = Hbar;
layers = (
{
layerId = "8C4EF6F1-AE03-4AE6-BFE8-0B39B8283028";
shapes = (
{
closed = 1;
nodes = (
(11,521,l),
(477,521,l),
(495,666,l),
(29,666,l)
);
},
{
closed = 1;
nodes = (
(-17,0,l),
(143,0,l),
(179,287,l),
(256,287,l),
(220,0,l),
(380,0,l),
(468,707,l),
(308,707,l),
(274,431,l),
(197,431,l),
(231,707,l),
(71,707,l)
);
}
);
width = 435;
},
{
layerId = "8CE6108C-76AC-4665-97B3-B49825BA8C4F";
shapes = (
{
closed = 1;
nodes = (
(4,524,l),
(633,524,l),
(652,676,l),
(23,676,l)
);
},
{
closed = 1;
nodes = (
(-7,0,l),
(168,0,l),
(203,280,l),
(373,280,l),
(338,0,l),
(512,0,l),
(600,707,l),
(426,707,l),
(392,430,l),
(222,430,l),
(256,707,l),
(81,707,l)
);
}
);
width = 577;
},
{
layerId = "F55717F1-0552-4366-9B04-B3FD14930E50";
shapes = (
{
closed = 1;
nodes = (
(26,518,l),
(478,518,l),
(492,631,l),
(40,631,l)
);
},
{
closed = 1;
nodes = (
(-5,0,l),
(121,0,l),
(159,303,l),
(292,303,l),
(254,0,l),
(380,0,l),
(468,707,l),
(342,707,l),
(306,416,l),
(173,416,l),
(209,707,l),
(83,707,l)
);
}
);
width = 447;
},
{
layerId = "4CEE5D12-CF00-4907-BE82-3E2F3EAADBBF";
shapes = (
{
closed = 1;
nodes = (
(22,515,l),
(624,515,l),
(639,633,l),
(37,633,l)
);
},
{
closed = 1;
nodes = (
(8,0,l),
(143,0,l),
(180,299,l),
(414,299,l),
(377,0,l),
(511,0,l),
(599,707,l),
(465,707,l),
(429,416,l),
(195,416,l),
(231,707,l),
(96,707,l)
);
}
);
width = 591;
},
{
layerId = "518EE9C6-B2D1-4F77-9E99-A5231379CDB9";
shapes = (
{
closed = 1;
nodes = (
(46,513,l),
(478,513,l),
(486,579,l),
(54,579,l)
);
},
{
closed = 1;
nodes = (
(12,0,l),
(87,0,l),
(128,327,l),
(345,327,l),
(304,0,l),
(379,0,l),
(467,707,l),
(392,707,l),
(353,393,l),
(136,393,l),
(175,707,l),
(100,707,l)
);
}
);
width = 463;
},
{
layerId = "42EEB6A2-0F6A-466B-B7DE-827BEDD2FBEB";
shapes = (
{
closed = 1;
nodes = (
(50,502,l),
(612,502,l),
(620,569,l),
(58,569,l)
);
},
{
closed = 1;
nodes = (
(29,0,l),
(104,0,l),
(145,328,l),
(475,328,l),
(434,0,l),
(509,0,l),
(597,707,l),
(522,707,l),
(483,395,l),
(153,395,l),
(192,707,l),
(117,707,l)
);
}
);
width = 610;
},
{
layerId = "1274E628-2993-4082-8B1F-A8F640106D1F";
shapes = (
{
closed = 1;
nodes = (
(61,510,l),
(479,510,l),
(483,544,l),
(65,544,l)
);
},
{
closed = 1;
nodes = (
(24,0,l),
(65,0,l),
(108,343,l),
(381,343,l),
(338,0,l),
(379,0,l),
(467,707,l),
(426,707,l),
(385,378,l),
(112,378,l),
(153,707,l),
(112,707,l)
);
}
);
width = 475;
},
{
layerId = "23A348E8-67C8-4D07-8EB8-1DABED859DB2";
shapes = (
{
closed = 1;
nodes = (
(69,493,l),
(604,493,l),
(608,526,l),
(73,526,l)
);
},
{
closed = 1;
nodes = (
(44,0,l),
(79,0,l),
(122,347,l),
(516,347,l),
(473,0,l),
(508,0,l),
(596,707,l),
(561,707,l),
(521,381,l),
(127,381,l),
(167,707,l),
(132,707,l)
);
}
);
width = 624;
}
);
unicode = 294;
},
{
glyphname = I;
layers = (
{
anchors = (
{
name = b.uni0324_2;
position = "{83, 0}";
},
{
name = m.uni0308_1;
position = "{171, 700}";
},
{
name = m.uni0328;
position = "{147, 10}";
}
);
layerId = "8C4EF6F1-AE03-4AE6-BFE8-0B39B8283028";
shapes = (
{
closed = 1;
nodes = (
(-9,0,l),
(151,0,l),
(239,700,l),
(79,700,l)
);
}
);
width = 214;
},
{
anchors = (
{
name = b.uni0324_2;
position = "{84, 0}";
},
{
name = m.uni0308_1;
position = "{172, 700}";
},
{
name = m.uni0328;
position = "{137, 10}";
}
);
layerId = "8CE6108C-76AC-4665-97B3-B49825BA8C4F";
shapes = (
{
closed = 1;
nodes = (
(-3,0,l),
(170,0,l),
(258,700,l),
(85,700,l)
);
}
);
width = 240;
},
{
anchors = (
{
name = b.uni0324_2;
position = "{68, 0}";
},
{
name = m.uni0308_1;
position = "{156, 700}";
},
{
name = m.uni0328;
position = "{131, 10}";
}
);
layerId = "F55717F1-0552-4366-9B04-B3FD14930E50";
shapes = (
{
closed = 1;
nodes = (
(5,0,l),
(130,0,l),
(218,700,l),
(93,700,l)
);
}
);
width = 207;
},
{
anchors = (
{
name = b.uni0324_2;
position = "{84, 0}";
},
{
name = m.uni0308_1;
position = "{172, 700}";
},
{
name = m.uni0328;
position = "{137, 10}";
}
);
layerId = "4CEE5D12-CF00-4907-BE82-3E2F3EAADBBF";
shapes = (
{
closed = 1;
nodes = (
(17,0,l),
(151,0,l),
(239,700,l),
(105,700,l)
);
}
);
width = 240;
},
{
anchors = (
{
name = b.uni0324_2;
position = "{45, 0}";
},
{
name = m.uni0308_1;
position = "{133, 700}";
},
{
name = m.uni0328;
position = "{107, 10}";
}
);
layerId = "518EE9C6-B2D1-4F77-9E99-A5231379CDB9";
shapes = (
{
closed = 1;
nodes = (
(26,0,l),
(99,0,l),
(187,700,l),
(114,700,l)
);
}
);
width = 196;
},
{
anchors = (
{
name = b.uni0324_2;
position = "{84, 0}";
},
{
name = m.uni0308_1;
position = "{172, 700}";
},
{
name = m.uni0328;
position = "{137, 10}";
}
);
layerId = "42EEB6A2-0F6A-466B-B7DE-827BEDD2FBEB";
shapes = (
{
closed = 1;
nodes = (
(47,0,l),
(122,0,l),
(210,700,l),
(135,700,l)
);
}
);
width = 240;
},
{
anchors = (
{
name = b.uni0324_2;
position = "{30, 0}";
},
{
name = m.uni0308_1;
position = "{118, 700}";
},
{
name = m.uni0328;
position = "{91, 10}";
}
);
layerId = "1274E628-2993-4082-8B1F-A8F640106D1F";
shapes = (
{
closed = 1;
nodes = (
(40,0,l),
(78,0,l),
(166,700,l),
(128,700,l)
);
}
);
width = 189;
},
{
anchors = (
{
name = b.uni0324_2;
position = "{84, 0}";
},
{
name = m.uni0308_1;
position = "{172, 700}";
},
{
name = m.uni0328;
position = "{137, 10}";
}
);
layerId = "23A348E8-67C8-4D07-8EB8-1DABED859DB2";
shapes = (
{
closed = 1;
nodes = (
(67,0,l),
(103,0,l),
(191,700,l),
(155,700,l)
);
}
);
width = 240;
}
);
unicode = 73;
},
{
glyphname = J;
layers = (
{
anchors = (
{
name = b.uni0324_2;
position = "{223, 0}";
},
{
name = m.uni0308_1;
position = "{344, 700}";
}
);
layerId = "8C4EF6F1-AE03-4AE6-BFE8-0B39B8283028";
shapes = (
{
closed = 1;
nodes = (
(-24,0,l),
(87,0,ls),
(231,0,o),
(306,62,o),
(321,187,cs),
(386,700,l),
(226,700,l),
(164,205,ls),
(159,165,o),
(136,145,o),
(96,145,cs),
(-6,145,l)
);
},
{
closed = 1;
nodes = (
(386,700,l),
(167,700,l),
(148,555,l),
(367,555,l)
);
}
);
width = 357;
},
{
anchors = (
{
name = b.uni0324_2;
position = "{241, 0}";
},
{
name = m.uni0308_1;
position = "{364, 700}";
}
);
layerId = "8CE6108C-76AC-4665-97B3-B49825BA8C4F";
shapes = (
{
closed = 1;
nodes = (
(-13,0,l),
(168,0,ls),
(283,0,o),
(359,64,o),
(373,179,cs),
(439,700,l),
(263,700,l),
(201,210,ls),
(195,163,o),
(182,151,o),
(142,151,cs),
(6,151,l)
);
},
{
closed = 1;
nodes = (
(439,700,l),
(179,700,l),
(160,549,l),
(420,549,l)
);
}
);
width = 425;
},
{
anchors = (
{
name = b.uni0324_2;
position = "{165, 0}";
},
{
name = m.uni0308_1;
position = "{285, 700}";
}
);
layerId = "F55717F1-0552-4366-9B04-B3FD14930E50";
shapes = (
{
closed = 1;
nodes = (
(-19,0,l),
(94,0,ls),
(217,0,o),
(284,56,o),
(298,168,cs),
(365,700,l),
(239,700,l),
(174,182,ls),
(168,137,o),
(143,114,o),
(100,114,cs),
(-5,114,l)
);
},
{
closed = 1;
nodes = (
(365,700,l),
(162,700,l),
(147,586,l),
(350,586,l)
);
}
);
width = 350;
},
{
anchors = (
{
name = b.uni0324_2;
position = "{241, 0}";
},
{
name = m.uni0308_1;
position = "{364, 700}";
}
);
layerId = "4CEE5D12-CF00-4907-BE82-3E2F3EAADBBF";
shapes = (
{
closed = 1;
nodes = (
(-13,0,l),
(183,0,ls),
(286,0,o),
(351,58,o),
(364,162,cs),
(432,700,l),
(297,700,l),
(232,184,ls),
(226,135,o),
(210,118,o),
(167,118,cs),
(2,118,l)
);
},
{
closed = 1;
nodes = (
(432,700,l),
(192,700,l),
(177,582,l),
(417,582,l)
);
}
);
width = 434;
},
{
anchors = (
{
name = b.uni0324_2;
position = "{79, 0}";
},
{
name = m.uni0308_1;
position = "{197, 700}";
}
);
layerId = "518EE9C6-B2D1-4F77-9E99-A5231379CDB9";
shapes = (
{
closed = 1;
nodes = (
(-10,0,l),
(105,0,ls),
(197,0,o),
(253,48,o),
(265,140,cs),
(335,700,l),
(260,700,l),
(191,148,ls),
(184,95,o),
(154,67,o),
(107,67,cs),
(-2,67,l)
);
},
{
closed = 1;
nodes = (
(335,700,l),
(155,700,l),
(146,633,l),
(326,633,l)
);
}
);
width = 341;
},
{
anchors = (
{
name = b.uni0324_2;
position = "{241, 0}";
},
{
name = m.uni0308_1;
position = "{364, 700}";
}
);
layerId = "42EEB6A2-0F6A-466B-B7DE-827BEDD2FBEB";
shapes = (
{
closed = 1;
nodes = (
(-13,0,l),
(206,0,ls),
(290,0,o),
(340,48,o),
(351,136,cs),
(422,700,l),
(348,700,l),
(278,145,ls),
(272,92,o),
(251,68,o),
(204,68,cs),
(-4,68,l)
);
},
{
closed = 1;
nodes = (
(422,700,l),
(212,700,l),
(203,632,l),
(413,632,l)
);
}
);
width = 448;
},
{
anchors = (
{
name = b.uni0324_2;
position = "{21, 0}";
},
{
name = m.uni0308_1;
position = "{138, 700}";
}
);
layerId = "1274E628-2993-4082-8B1F-A8F640106D1F";
shapes = (
{
closed = 1;
nodes = (
(-5,0,l),
(112,0,ls),
(183,0,o),
(231,42,o),
(241,121,cs),
(314,700,l),
(273,700,l),
(201,125,ls),
(193,66,o),
(161,36,o),
(112,36,cs),
(0,36,l)
);
},
{
closed = 1;
nodes = (
(314,700,l),
(150,700,l),
(145,664,l),
(309,664,l)
);
}
);
width = 334;
},
{
anchors = (
{
name = b.uni0324_2;
position = "{240, 0}";
},
{
name = m.uni0308_1;
position = "{363, 700}";
}
);
layerId = "23A348E8-67C8-4D07-8EB8-1DABED859DB2";
shapes = (
{
closed = 1;
nodes = (
(-14,0,l),
(220,0,ls),
(292,0,o),
(331,42,o),
(341,119,cs),
(414,700,l),
(381,700,l),
(308,119,ls),
(301,63,o),
(276,35,o),
(227,35,cs),
(-10,35,l)
);
},
{
closed = 1;
nodes = (
(414,700,l),
(224,700,l),
(219,665,l),
(409,665,l)
);
}
);
width = 455;
}
);
leftKerningGroup = J;
unicode = 74;
},
{
glyphname = K;
layers = (
{
anchors = (
{
name = b.uni0324_2;
position = "{241, 0}";
},
{
name = m.uni0308_1;
position = "{329, 700}";
}
);
layerId = "8C4EF6F1-AE03-4AE6-BFE8-0B39B8283028";
shapes = (
{
closed = 1;
nodes = (
(420,0,l),
(315,429,l),
(201,241,l),
(251,0,l)
);
},
{
closed = 1;
nodes = (
(-17,0,l),
(141,0,l),
(229,700,l),
(71,700,l)
);
},
{
closed = 1;
nodes = (
(185,399,l),
(151,127,l),
(486,700,l),
(329,700,l)
);
}
);
width = 446;
},
{
anchors = (
{
name = b.uni0324_2;
position = "{260, 0}";
},
{
name = m.uni0308_1;
position = "{348, 700}";
}
);
layerId = "8CE6108C-76AC-4665-97B3-B49825BA8C4F";
shapes = (
{
closed = 1;
nodes = (
(575,0,l),
(385,432,l),
(255,289,l),
(375,0,l)
);
},
{
closed = 1;
nodes = (
(-7,0,l),
(168,0,l),
(256,700,l),
(81,700,l)
);
},
{
closed = 1;
nodes = (
(210,418,l),
(182,188,l),
(655,700,l),
(446,700,l)
);
}
);
width = 600;
},
{
anchors = (
{
name = b.uni0324_2;
position = "{194, 0}";
},
{
name = m.uni0308_1;
position = "{282, 700}";
}
);
layerId = "F55717F1-0552-4366-9B04-B3FD14930E50";
shapes = (
{
closed = 1;
nodes = (
(419,0,l),
(297,431,l),
(207,288,l),
(285,0,l)
);
},
{
closed = 1;
nodes = (
(-5,0,l),
(120,0,l),
(208,700,l),
(83,700,l)
);
},
{
closed = 1;
nodes = (
(158,359,l),
(131,146,l),
(484,700,l),
(358,700,l)
);
}
);
width = 447;
},
{
anchors = (
{
name = b.uni0324_2;
position = "{260, 0}";
},
{
name = m.uni0308_1;
position = "{348, 700}";
}
);
layerId = "4CEE5D12-CF00-4907-BE82-3E2F3EAADBBF";
shapes = (
{
closed = 1;
nodes = (
(566,0,l),
(369,437,l),
(269,328,l),
(411,0,l)
);
},
{
closed = 1;
nodes = (
(8,0,l),
(143,0,l),
(231,700,l),
(96,700,l)
);
},
{
closed = 1;
nodes = (
(179,364,l),
(156,186,l),
(636,700,l),
(475,700,l)
);
}
);
width = 592;
},
{
anchors = (
{
name = b.uni0324_2;
position = "{124, 0}";
},
{
name = m.uni0308_1;
position = "{212, 700}";
}
);
layerId = "518EE9C6-B2D1-4F77-9E99-A5231379CDB9";
shapes = (
{
closed = 1;
nodes = (
(418,0,l),
(270,434,l),
(216,358,l),
(336,0,l)
);
},
{
closed = 1;
nodes = (
(13,0,l),
(88,0,l),
(176,700,l),
(101,700,l)
);
},
{
closed = 1;
nodes = (
(117,299,l),
(102,175,l),
(481,700,l),
(402,700,l)
);
}
);
width = 448;
},
{
anchors = (
{
name = b.uni0324_2;
position = "{260, 0}";
},
{
name = m.uni0308_1;
position = "{348, 700}";
}
);
layerId = "42EEB6A2-0F6A-466B-B7DE-827BEDD2FBEB";
shapes = (
{
closed = 1;
nodes = (
(552,0,l),
(345,445,l),
(289,387,l),
(465,0,l)
);
},
{
closed = 1;
nodes = (
(30,0,l),
(105,0,l),
(193,700,l),
(118,700,l)
);
},
{
closed = 1;
nodes = (
(130,283,l),
(118,183,l),
(608,700,l),
(519,700,l)
);
}
);
width = 580;
},
{
anchors = (
{
name = b.uni0324_2;
position = "{77, 0}";
},
{
name = m.uni0308_1;
position = "{165, 700}";
}
);
layerId = "1274E628-2993-4082-8B1F-A8F640106D1F";
shapes = (
{
closed = 1;
nodes = (
(417,0,l),
(253,436,l),
(222,405,l),
(370,0,l)
);
},
{
closed = 1;
nodes = (
(25,0,l),
(67,0,l),
(155,700,l),
(113,700,l)
);
},
{
closed = 1;
nodes = (
(90,259,l),
(82,194,l),
(479,700,l),
(431,700,l)
);
}
);
width = 449;
},
{
anchors = (
{
name = b.uni0324_2;
position = "{260, 0}";
},
{
name = m.uni0308_1;
position = "{348, 700}";
}
);
layerId = "23A348E8-67C8-4D07-8EB8-1DABED859DB2";
shapes = (
{
closed = 1;
nodes = (
(543,0,l),
(328,450,l),
(303,426,l),
(501,0,l)
);
},
{
closed = 1;
nodes = (
(45,0,l),
(80,0,l),
(168,700,l),
(133,700,l)
);
},
{
closed = 1;
nodes = (
(99,229,l),
(93,181,l),
(589,700,l),
(548,700,l)
);
}
);
width = 572;
}
);
unicode = 75;
},
{
glyphname = L;
layers = (
{
anchors = (
{
name = b.uni0324_2;
position = "{183, 0}";
},
{
name = m.uni0308_1;
position = "{177, 700}";
},
{
name = t.uni031B_2;
position = "{301, 700}";
}
);
layerId = "8C4EF6F1-AE03-4AE6-BFE8-0B39B8283028";
shapes = (
{
closed = 1;
nodes = (
(-14,0,l),
(301,0,l),
(319,144,l),
(164,144,l),
(234,700,l),
(74,700,l)
);
}
);
width = 340;
},
{
anchors = (
{
name = b.uni0324_2;
position = "{215, 0}";
},
{
name = m.uni0308_1;
position = "{169, 700}";
},
{
name = t.uni031B_2;
position = "{361, 700}";
}
);
layerId = "8CE6108C-76AC-4665-97B3-B49825BA8C4F";
shapes = (
{
closed = 1;
nodes = (
(-4,0,l),
(452,0,l),
(471,150,l),
(190,150,l),
(259,700,l),
(84,700,l)
);
}
);
width = 493;
},
{
anchors = (
{
name = b.uni0324_2;
position = "{135, 0}";
},
{
name = m.uni0308_1;
position = "{162, 700}";
},
{
name = t.uni031B_2;
position = "{233, 700}";
}
);
layerId = "F55717F1-0552-4366-9B04-B3FD14930E50";
shapes = (
{
closed = 1;
nodes = (
(-3,0,l),
(312,0,l),
(326,113,l),
(137,113,l),
(211,700,l),
(85,700,l)
);
}
);
width = 355;
},
{
anchors = (
{
name = b.uni0324_2;
position = "{214, 0}";
},
{
name = m.uni0308_1;
position = "{168, 700}";
},
{
name = t.uni031B_2;
position = "{360, 700}";
}
);
layerId = "4CEE5D12-CF00-4907-BE82-3E2F3EAADBBF";
shapes = (
{
closed = 1;
nodes = (
(10,0,l),
(454,0,l),
(469,117,l),
(160,117,l),
(233,700,l),
(98,700,l)
);
}
);
width = 500;
},
{
anchors = (
{
name = b.uni0324_2;
position = "{64, 0}";
},
{
name = m.uni0308_1;
position = "{141, 700}";
},
{
name = t.uni031B_2;
position = "{132, 700}";
}
);
layerId = "518EE9C6-B2D1-4F77-9E99-A5231379CDB9";
shapes = (
{
closed = 1;
nodes = (
(15,0,l),
(330,0,l),
(338,67,l),
(98,67,l),
(178,700,l),
(103,700,l)
);
}
);
width = 380;
},
{
anchors = (
{
name = b.uni0324_2;
position = "{214, 0}";
},
{
name = m.uni0308_1;
position = "{168, 700}";
},
{
name = t.uni031B_2;
position = "{360, 700}";
}
);
layerId = "42EEB6A2-0F6A-466B-B7DE-827BEDD2FBEB";
shapes = (
{
closed = 1;
nodes = (
(32,0,l),
(459,0,l),
(468,68,l),
(116,68,l),
(195,700,l),
(120,700,l)
);
}
);
width = 513;
},
{
anchors = (
{
name = b.uni0324_2;
position = "{16, 0}";
},
{
name = m.uni0308_1;
position = "{126, 700}";
},
{
name = t.uni031B_2;
position = "{64, 700}";
}
);
layerId = "1274E628-2993-4082-8B1F-A8F640106D1F";
shapes = (
{
closed = 1;
nodes = (
(26,0,l),
(341,0,l),
(346,36,l),
(72,36,l),
(155,700,l),
(114,700,l)
);
}
);
width = 395;
},
{
anchors = (
{
name = b.uni0324_2;
position = "{214, 0}";
},
{
name = m.uni0308_1;
position = "{168, 700}";
},
{
name = t.uni031B_2;
position = "{360, 700}";
}
);
layerId = "23A348E8-67C8-4D07-8EB8-1DABED859DB2";
shapes = (
{
closed = 1;
nodes = (
(47,0,l),
(462,0,l),
(466,35,l),
(86,35,l),
(170,700,l),
(135,700,l)
);
}
);
width = 522;
}
);
rightKerningGroup = L;
unicode = 76;
},
{
glyphname = Lslash;
layers = (
{
layerId = "8C4EF6F1-AE03-4AE6-BFE8-0B39B8283028";
shapes = (
{
closed = 1;
nodes = (
(3,232,l),
(310,380,l),
(328,530,l),
(23,381,l)
);
},
{
closed = 1;
nodes = (
(-14,0,l),
(301,0,l),
(319,144,l),
(164,144,l),
(234,707,l),
(74,707,l)
);
}
);
width = 340;
},
{
layerId = "8CE6108C-76AC-4665-97B3-B49825BA8C4F";
shapes = (
{
closed = 1;
nodes = (
(-20,238,l),
(363,420,l),
(381,570,l),
(0,388,l)
);
},
{
closed = 1;
nodes = (
(-4,0,l),
(452,0,l),
(471,150,l),
(190,150,l),
(259,707,l),
(84,707,l)
);
}
);
width = 493;
},
{
layerId = "F55717F1-0552-4366-9B04-B3FD14930E50";
shapes = (
{
closed = 1;
nodes = (
(9,279,l),
(272,396,l),
(286,509,l),
(24,392,l)
);
},
{
closed = 1;
nodes = (
(-3,0,l),
(312,0,l),
(326,113,l),
(137,113,l),
(211,707,l),
(85,707,l)
);
}
);
width = 355;
},
{
layerId = "4CEE5D12-CF00-4907-BE82-3E2F3EAADBBF";
shapes = (
{
closed = 1;
nodes = (
(5,279,l),
(313,416,l),
(327,529,l),
(20,392,l)
);
},
{
closed = 1;
nodes = (
(10,0,l),
(454,0,l),
(469,117,l),
(160,117,l),
(233,707,l),
(98,707,l)
);
}
);
width = 500;
},
{
layerId = "518EE9C6-B2D1-4F77-9E99-A5231379CDB9";
shapes = (
{
closed = 1;
nodes = (
(20,350,l),
(216,420,l),
(223,478,l),
(28,408,l)
);
},
{
closed = 1;
nodes = (
(15,0,l),
(330,0,l),
(338,67,l),
(98,67,l),
(178,707,l),
(103,707,l)
);
}
);
width = 380;
},
{
layerId = "42EEB6A2-0F6A-466B-B7DE-827BEDD2FBEB";
shapes = (
{
closed = 1;
nodes = (
(45,340,l),
(240,410,l),
(248,468,l),
(53,398,l)
);
},
{
closed = 1;
nodes = (
(32,0,l),
(459,0,l),
(468,68,l),
(116,68,l),
(195,707,l),
(120,707,l)
);
}
);
width = 513;
},
{
layerId = "1274E628-2993-4082-8B1F-A8F640106D1F";
shapes = (
{
closed = 1;
nodes = (
(26,397,l),
(178,436,l),
(180,457,l),
(29,419,l)
);
},
{
closed = 1;
nodes = (
(26,0,l),
(341,0,l),
(346,36,l),
(72,36,l),
(155,707,l),
(114,707,l)
);
}
);
width = 395;
},
{
layerId = "23A348E8-67C8-4D07-8EB8-1DABED859DB2";
shapes = (
{
closed = 1;
nodes = (
(71,381,l),
(192,406,l),
(194,427,l),
(74,402,l)
);
},
{
closed = 1;
nodes = (
(47,0,l),
(462,0,l),
(466,35,l),
(86,35,l),
(170,707,l),
(135,707,l)
);
}
);
width = 522;
}
);
unicode = 321;
},
{
glyphname = M;
layers = (
{
anchors = (
{
name = b.uni0324_2;
position = "{294, 0}";
},
{
name = m.uni0308_1;
position = "{382, 700}";
}
);
layerId = "8C4EF6F1-AE03-4AE6-BFE8-0B39B8283028";
shapes = (
{
closed = 1;
nodes = (
(-20,0,l),
(140,0,l),
(180,318,l),
(206,119,l),
(287,119,l),
(365,321,l),
(325,0,l),
(485,0,l),
(573,700,l),
(413,700,l),
(277,365,l),
(228,700,l),
(68,700,l)
);
}
);
width = 535;
},
{
anchors = (
{
name = b.uni0324_2;
position = "{330, 0}";
},
{
name = m.uni0308_1;
position = "{418, 700}";
}
);
layerId = "8CE6108C-76AC-4665-97B3-B49825BA8C4F";
shapes = (
{
closed = 1;
nodes = (
(8,0,l),
(183,0,l),
(224,328,l),
(293,133,l),
(404,133,l),
(518,323,l),
(478,0,l),
(651,0,l),
(739,700,l),
(566,700,l),
(379,373,l),
(271,700,l),
(96,700,l)
);
}
);
width = 731;
},
{
anchors = (
{
name = b.uni0324_2;
position = "{241, 0}";
},
{
name = m.uni0308_1;
position = "{329, 700}";
}
);
layerId = "F55717F1-0552-4366-9B04-B3FD14930E50";
shapes = (
{
closed = 1;
nodes = (
(-8,0,l),
(118,0,l),
(169,404,l),
(224,137,l),
(292,137,l),
(416,407,l),
(365,0,l),
(491,0,l),
(579,700,l),
(453,700,l),
(282,327,l),
(206,700,l),
(80,700,l)
);
}
);
width = 554;
},
{
anchors = (
{
name = b.uni0324_2;
position = "{330, 0}";
},
{
name = m.uni0308_1;
position = "{418, 700}";
}
);
layerId = "4CEE5D12-CF00-4907-BE82-3E2F3EAADBBF";
shapes = (
{
closed = 1;
nodes = (
(15,0,l),
(150,0,l),
(202,415,l),
(303,136,l),
(393,136,l),
(562,412,l),
(510,0,l),
(644,0,l),
(732,700,l),
(598,700,l),
(371,316,l),
(238,700,l),
(103,700,l)
);
}
);
width = 731;
},
{
anchors = (
{
name = b.uni0324_2;
position = "{160, 0}";
},
{
name = m.uni0308_1;
position = "{248, 700}";
}
);
layerId = "518EE9C6-B2D1-4F77-9E99-A5231379CDB9";
shapes = (
{
closed = 1;
nodes = (
(9,0,l),
(84,0,l),
(151,533,l),
(251,164,l),
(300,164,l),
(491,536,l),
(424,0,l),
(499,0,l),
(587,700,l),
(512,700,l),
(289,270,l),
(172,700,l),
(97,700,l)
);
}
);
width = 580;
},
{
anchors = (
{
name = b.uni0324_2;
position = "{330, 0}";
},
{
name = m.uni0308_1;
position = "{418, 700}";
}
);
layerId = "42EEB6A2-0F6A-466B-B7DE-827BEDD2FBEB";
shapes = (
{
closed = 1;
nodes = (
(26,0,l),
(101,0,l),
(169,546,l),
(319,141,l),
(377,141,l),
(626,546,l),
(558,0,l),
(633,0,l),
(721,700,l),
(646,700,l),
(359,230,l),
(189,700,l),
(114,700,l)
);
}
);
width = 731;
},
{
anchors = (
{
name = b.uni0324_2;
position = "{107, 0}";
},
{
name = m.uni0308_1;
position = "{195, 700}";
}
);
layerId = "1274E628-2993-4082-8B1F-A8F640106D1F";
shapes = (
{
closed = 1;
nodes = (
(21,0,l),
(62,0,l),
(139,619,l),
(269,182,l),
(305,182,l),
(542,622,l),
(464,0,l),
(505,0,l),
(593,700,l),
(552,700,l),
(294,232,l),
(150,700,l),
(109,700,l)
);
}
);
width = 599;
},
{
anchors = (
{
name = b.uni0324_2;
position = "{330, 0}";
},
{
name = m.uni0308_1;
position = "{418, 700}";
}
);
layerId = "23A348E8-67C8-4D07-8EB8-1DABED859DB2";
shapes = (
{
closed = 1;
nodes = (
(33,0,l),
(68,0,l),
(147,633,l),
(329,144,l),
(366,144,l),
(669,635,l),
(590,0,l),
(626,0,l),
(714,700,l),
(678,700,l),
(351,173,l),
(156,700,l),
(121,700,l)
);
}
);
width = 731;
}
);
unicode = 77;
},
{
glyphname = N;
layers = (
{
anchors = (
{
name = b.uni0324_2;
position = "{236, 0}";
},
{
name = m.uni0308_1;
position = "{324, 700}";
}
);
layerId = "8C4EF6F1-AE03-4AE6-BFE8-0B39B8283028";
shapes = (
{
closed = 1;
nodes = (
(-17,0,l),
(143,0,l),
(180,293,l),
(227,0,l),
(387,0,l),
(475,700,l),
(315,700,l),
(273,368,l),
(231,700,l),
(71,700,l)
);
}
);
width = 442;
},
{
anchors = (
{
name = b.uni0324_2;
position = "{273, 0}";
},
{
name = m.uni0308_1;
position = "{361, 700}";
}
);
layerId = "8CE6108C-76AC-4665-97B3-B49825BA8C4F";
shapes = (
{
closed = 1;
nodes = (
(-7,0,l),
(168,0,l),
(215,372,l),
(358,0,l),
(532,0,l),
(620,700,l),
(446,700,l),
(399,324,l),
(256,700,l),
(81,700,l)
);
}
);
width = 598;
},
{
anchors = (
{
name = b.uni0324_2;
position = "{180, 0}";
},
{
name = m.uni0308_1;
position = "{268, 700}";
}
);
layerId = "F55717F1-0552-4366-9B04-B3FD14930E50";
shapes = (
{
closed = 1;
nodes = (
(-6,0,l),
(120,0,l),
(169,390,l),
(267,0,l),
(393,0,l),
(481,700,l),
(355,700,l),
(303,286,l),
(208,700,l),
(82,700,l)
);
}
);
width = 459;
},
{
anchors = (
{
name = b.uni0324_2;
position = "{272, 0}";
},
{
name = m.uni0308_1;
position = "{360, 700}";
}
);
layerId = "4CEE5D12-CF00-4907-BE82-3E2F3EAADBBF";
shapes = (
{
closed = 1;
nodes = (
(7,0,l),
(142,0,l),
(198,448,l),
(402,0,l),
(536,0,l),
(624,700,l),
(490,700,l),
(433,250,l),
(230,700,l),
(95,700,l)
);
}
);
width = 615;
},
{
anchors = (
{
name = b.uni0324_2;
position = "{98, 0}";
},
{
name = m.uni0308_1;
position = "{186, 700}";
}
);
layerId = "518EE9C6-B2D1-4F77-9E99-A5231379CDB9";
shapes = (
{
closed = 1;
nodes = (
(12,0,l),
(87,0,l),
(154,536,l),
(329,0,l),
(404,0,l),
(492,700,l),
(417,700,l),
(349,163,l),
(175,700,l),
(100,700,l)
);
}
);
width = 488;
},
{
anchors = (
{
name = b.uni0324_2;
position = "{272, 0}";
},
{
name = m.uni0308_1;
position = "{360, 700}";
}
);
layerId = "42EEB6A2-0F6A-466B-B7DE-827BEDD2FBEB";
shapes = (
{
closed = 1;
nodes = (
(29,0,l),
(104,0,l),
(175,567,l),
(469,0,l),
(544,0,l),
(632,700,l),
(557,700,l),
(486,134,l),
(192,700,l),
(117,700,l)
);
}
);
width = 644;
},
{
anchors = (
{
name = b.uni0324_2;
position = "{42, 0}";
},
{
name = m.uni0308_1;
position = "{130, 700}";
}
);
layerId = "1274E628-2993-4082-8B1F-A8F640106D1F";
shapes = (
{
closed = 1;
nodes = (
(23,0,l),
(64,0,l),
(143,633,l),
(369,0,l),
(410,0,l),
(498,700,l),
(457,700,l),
(379,81,l),
(152,700,l),
(111,700,l)
);
}
);
width = 505;
},
{
anchors = (
{
name = b.uni0324_2;
position = "{271, 0}";
},
{
name = m.uni0308_1;
position = "{359, 700}";
}
);
layerId = "23A348E8-67C8-4D07-8EB8-1DABED859DB2";
shapes = (
{
closed = 1;
nodes = (
(43,0,l),
(78,0,l),
(158,643,l),
(513,0,l),
(548,0,l),
(636,700,l),
(601,700,l),
(521,60,l),
(166,700,l),
(131,700,l)
);
}
);
width = 661;
}
);
unicode = 78;
},
{
glyphname = O;
layers = (
{
anchors = (
{
name = b.uni0324_2;
position = "{232, 0}";
},
{
name = m.uni0308_1;
position = "{320, 700}";
},
{
name = m.uni0328;
position = "{306, 10}";
},
{
name = t.uni031B_2;
position = "{560, 700}";
}
);
layerId = "8C4EF6F1-AE03-4AE6-BFE8-0B39B8283028";
shapes = (
{
closed = 1;
nodes = (
(247,-8,o),
(300,10,o),
(344,46,cs),
(387,81,o),
(412,129,o),
(420,189,cs),
(460,510,ls),
(468,576,o),
(455,626,o),
(421,659,cs),
(388,692,o),
(342,708,o),
(284,708,cs),
(219,708,o),
(164,691,o),
(121,656,cs),
(78,621,o),
(52,572,o),
(44,510,cs),
(4,189,ls),
(-4,125,o),
(8,76,o),
(39,43,c),
(70,9,o),
(118,-8,o),
(183,-8,cs)
);
},
{
closed = 1;
nodes = (
(201,481,ls),
(208,537,o),
(223,563,o),
(260,563,cs),
(295,563,o),
(302,536,o),
(295,481,cs),
(262,213,ls),
(256,166,o),
(234,136,o),
(207,136,c),
(175,137,o),
(161,161,o),
(168,213,cs)
);
}
);
width = 448;
},
{
anchors = (
{
name = b.uni0324_2;
position = "{255, 0}";
},
{
name = m.uni0308_1;
position = "{343, 700}";
},
{
name = m.uni0328;
position = "{318, 10}";
},
{
name = t.uni031B_2;
position = "{630, 700}";
}
);
layerId = "8CE6108C-76AC-4665-97B3-B49825BA8C4F";
shapes = (
{
closed = 1;
nodes = (
(341,-8,o),
(412,17,o),
(461,68,cs),
(509,118,o),
(539,189,o),
(550,280,cs),
(567,419,ls),
(579,512,o),
(567,584,o),
(531,634,cs),
(495,683,o),
(433,708,o),
(342,708,cs),
(251,708,o),
(182,684,o),
(132,635,cs),
(83,586,o),
(52,514,o),
(40,419,cs),
(23,280,ls),
(11,185,o),
(23,113,o),
(58,65,cs),
(93,16,o),
(156,-8,o),
(246,-8,cs)
);
},
{
closed = 1;
nodes = (
(214,409,ls),
(228,518,o),
(256,557,o),
(323,557,cs),
(387,557,o),
(407,516,o),
(393,409,cs),
(378,286,ls),
(365,186,o),
(332,147,o),
(271,147,cs),
(204,147,o),
(186,183,o),
(199,286,cs)
);
}
);
width = 575;
},
{
anchors = (
{
name = b.uni0324_2;
position = "{187, 0}";
},
{
name = m.uni0308_1;
position = "{275, 700}";
},
{
name = m.uni0328;
position = "{247, 10}";
},
{
name = t.uni031B_2;
position = "{470, 700}";
}
);
layerId = "F55717F1-0552-4366-9B04-B3FD14930E50";
shapes = (
{
closed = 1;
nodes = (
(250,-8,o),
(301,10,o),
(343,46,cs),
(384,82,o),
(409,132,o),
(416,195,cs),
(455,504,ls),
(463,571,o),
(452,622,o),
(420,657,cs),
(388,691,o),
(344,708,o),
(285,708,cs),
(222,708,o),
(170,690,o),
(129,655,cs),
(88,620,o),
(62,569,o),
(54,504,cs),
(15,195,ls),
(7,129,o),
(19,79,o),
(50,44,cs),
(80,9,o),
(126,-8,o),
(188,-8,cs)
);
},
{
closed = 1;
nodes = (
(178,484,ls),
(187,559,o),
(214,594,o),
(267,594,cs),
(318,594,o),
(336,557,o),
(327,484,cs),
(292,209,ls),
(284,142,o),
(251,105,o),
(206,105,c),
(155,106,o),
(135,140,o),
(143,209,cs)
);
}
);
width = 455;
},
{
anchors = (
{
name = b.uni0324_2;
position = "{255, 0}";
},
{
name = m.uni0308_1;
position = "{343, 700}";
},
{
name = m.uni0328;
position = "{318, 10}";
},
{
name = t.uni031B_2;
position = "{630, 700}";
}
);
layerId = "4CEE5D12-CF00-4907-BE82-3E2F3EAADBBF";
shapes = (
{
closed = 1;
nodes = (
(339,-8,o),
(407,16,o),
(456,65,cs),
(504,113,o),
(534,182,o),
(545,273,cs),
(564,426,ls),
(576,518,o),
(564,588,o),
(528,636,cs),
(491,684,o),
(430,708,o),
(345,708,cs),
(260,708,o),
(193,685,o),
(144,638,cs),
(95,591,o),
(64,520,o),
(52,426,cs),
(33,273,ls),
(21,179,o),
(34,109,o),
(70,62,cs),
(106,15,o),
(166,-8,o),
(251,-8,cs)
);
},
{
closed = 1;
nodes = (
(186,419,ls),
(202,542,o),
(245,590,o),
(330,590,cs),
(414,590,o),
(444,538,o),
(429,419,cs),
(411,275,ls),
(397,162,o),
(353,112,o),
(270,112,cs),
(185,112,o),
(154,159,o),
(168,275,cs)
);
}
);
width = 582;
},
{
anchors = (
{
name = b.uni0324_2;
position = "{119, 0}";
},
{
name = m.uni0308_1;
position = "{207, 700}";
},
{
name = m.uni0328;
position = "{157, 10}";
},
{
name = t.uni031B_2;
position = "{334, 700}";
}
);
layerId = "518EE9C6-B2D1-4F77-9E99-A5231379CDB9";
shapes = (
{
closed = 1;
nodes = (
(254,-8,o),
(302,10,o),
(341,47,cs),
(379,84,o),
(402,136,o),
(411,204,cs),
(447,495,ls),
(456,564,o),
(446,617,o),
(418,654,cs),
(389,690,o),
(345,708,o),
(285,708,cs),
(226,708,o),
(176,690,o),
(139,655,cs),
(100,619,o),
(77,566,o),
(68,495,cs),
(32,204,ls),
(23,135,o),
(33,82,o),
(63,46,cs),
(92,10,o),
(136,-8,o),
(195,-8,cs)
);
},
{
closed = 1;
nodes = (
(141,488,ls),
(154,591,o),
(200,641,o),
(277,641,cs),
(350,641,o),
(385,591,o),
(372,488,cs),
(336,203,ls),
(324,107,o),
(277,58,o),
(204,58,cs),
(125,59,o),
(93,107,o),
(105,203,cs)
);
}
);
width = 463;
},
{
anchors = (
{
name = b.uni0324_2;
position = "{255, 0}";
},
{
name = m.uni0308_1;
position = "{343, 700}";
},
{
name = m.uni0328;
position = "{318, 10}";
},
{
name = t.uni031B_2;
position = "{630, 700}";
}
);
layerId = "42EEB6A2-0F6A-466B-B7DE-827BEDD2FBEB";
shapes = (
{
closed = 1;
nodes = (
(336,-8,o),
(400,15,o),
(449,60,cs),
(497,105,o),
(527,173,o),
(538,262,cs),
(560,437,ls),
(571,527,o),
(558,595,o),
(521,640,cs),
(484,685,o),
(427,708,o),
(350,708,cs),
(273,708,o),
(210,686,o),
(161,641,cs),
(113,596,o),
(82,528,o),
(71,437,cs),
(49,262,ls),
(37,171,o),
(50,103,o),
(87,59,cs),
(125,14,o),
(182,-8,o),
(259,-8,cs)
);
},
{
closed = 1;
nodes = (
(144,434,ls),
(162,577,o),
(226,640,o),
(341,640,cs),
(454,640,o),
(501,571,o),
(484,434,cs),
(462,258,ls),
(446,126,o),
(382,60,o),
(269,60,cs),
(156,60,o),
(105,123,o),
(122,258,cs)
);
}
);
width = 592;
},
{
anchors = (
{
name = b.uni0324_2;
position = "{74, 0}";
},
{
name = m.uni0308_1;
position = "{162, 700}";
},
{
name = m.uni0328;
position = "{98, 10}";
},
{
name = t.uni031B_2;
position = "{244, 700}";
}
);
layerId = "1274E628-2993-4082-8B1F-A8F640106D1F";
shapes = (
{
closed = 1;
nodes = (
(257,-8,o),
(303,11,o),
(340,48,cs),
(376,85,o),
(398,139,o),
(407,210,cs),
(442,489,ls),
(451,560,o),
(443,614,o),
(417,652,cs),
(390,689,o),
(347,708,o),
(286,708,cs),
(229,708,o),
(181,690,o),
(146,654,cs),
(110,618,o),
(87,563,o),
(78,489,cs),
(43,210,ls),
(34,139,o),
(45,85,o),
(73,48,cs),
(101,11,o),
(144,-8,o),
(200,-8,cs)
);
},
{
closed = 1;
nodes = (
(117,491,ls),
(133,612,o),
(191,672,o),
(284,672,cs),
(373,672,o),
(419,612,o),
(403,491,cs),
(367,199,ls),
(352,83,o),
(295,27,o),
(203,27,cs),
(107,28,o),
(67,86,o),
(81,199,cs)
);
}
);
width = 470;
},
{
anchors = (
{
name = b.uni0324_2;
position = "{255, 0}";
},
{
name = m.uni0308_1;
position = "{343, 700}";
},
{
name = m.uni0328;
position = "{318, 10}";
},
{
name = t.uni031B_2;
position = "{630, 700}";
}
);
layerId = "23A348E8-67C8-4D07-8EB8-1DABED859DB2";
shapes = (
{
closed = 1;
nodes = (
(335,-8,o),
(395,14,o),
(443,57,cs),
(492,100,o),
(522,166,o),
(533,255,cs),
(557,444,ls),
(568,533,o),
(555,599,o),
(517,643,cs),
(480,686,o),
(425,708,o),
(353,708,cs),
(281,708,o),
(221,687,o),
(173,644,cs),
(124,601,o),
(94,534,o),
(83,444,cs),
(59,255,ls),
(48,165,o),
(61,99,o),
(99,56,cs),
(137,13,o),
(192,-8,o),
(264,-8,cs)
);
},
{
closed = 1;
nodes = (
(117,444,ls),
(136,600,o),
(215,673,o),
(348,673,cs),
(481,673,o),
(539,593,o),
(521,444,cs),
(496,247,ls),
(478,102,o),
(402,25,o),
(267,25,cs),
(135,25,o),
(73,99,o),
(92,247,cs)
);
}
);
width = 599;
}
);
leftKerningGroup = C;
unicode = 79;
},
{
glyphname = Oslash;
layers = (
{
anchors = (
{
name = b.uni0324_2;
position = "{232, 0}";
},
{
name = m.uni0308_1;
position = "{321, 709}";
}
);
layerId = "8C4EF6F1-AE03-4AE6-BFE8-0B39B8283028";
shapes = (
{
closed = 1;
nodes = (
(-22,-20,l),
(41,-20,l),
(486,740,l),
(422,740,l)
);
},
{
closed = 1;
nodes = (
(247,-8,o),
(300,10,o),
(344,45,cs),
(386,80,o),
(411,128,o),
(419,188,cs),
(460,521,ls),
(468,587,o),
(456,636,o),
(423,669,cs),
(389,702,o),
(343,718,o),
(285,718,cs),
(221,718,o),
(168,701,o),
(124,666,cs),
(81,631,o),
(55,582,o),
(47,521,cs),
(6,188,ls),
(-2,125,o),
(10,76,o),
(40,43,cs),
(71,9,o),
(119,-8,o),
(183,-8,cs)
);
},
{
closed = 1;
nodes = (
(204,492,ls),
(211,548,o),
(225,573,o),
(262,573,cs),
(297,573,o),
(303,547,o),
(297,492,cs),
(262,212,ls),
(256,165,o),
(232,136,o),
(207,136,c),
(175,137,o),
(162,161,o),
(169,212,cs)
);
}
);
width = 448;
},
{
anchors = (
{
name = b.uni0324_2;
position = "{255, 0}";
},
{
name = m.uni0308_1;
position = "{343, 707}";
}
);
layerId = "8CE6108C-76AC-4665-97B3-B49825BA8C4F";
shapes = (
{
closed = 1;
nodes = (
(-15,-20,l),
(69,-20,l),
(607,735,l),
(525,735,l)
);
},
{
closed = 1;
nodes = (
(341,-8,o),
(412,17,o),
(461,68,cs),
(509,118,o),
(539,189,o),
(550,280,cs),
(569,428,ls),
(580,521,o),
(568,593,o),
(532,643,cs),
(497,693,o),
(434,718,o),
(343,718,cs),
(252,718,o),
(183,694,o),
(134,645,cs),
(85,596,o),
(54,524,o),
(42,428,cs),
(23,280,ls),
(11,185,o),
(23,113,o),
(58,65,cs),
(93,16,o),
(156,-8,o),
(246,-8,cs)
);
},
{
closed = 1;
nodes = (
(215,419,ls),
(229,528,o),
(257,566,o),
(324,566,cs),
(388,566,o),
(408,524,o),
(394,419,cs),
(378,286,ls),
(365,186,o),
(332,147,o),
(271,147,cs),
(204,147,o),
(186,183,o),
(199,286,cs)
);
}
);
width = 575;
},
{
anchors = (
{
name = b.uni0324_2;
position = "{187, 0}";
},
{
name = m.uni0308_1;
position = "{276, 714}";
}
);
layerId = "F55717F1-0552-4366-9B04-B3FD14930E50";
shapes = (
{
closed = 1;
nodes = (
(-12,-20,l),
(48,-20,l),
(484,735,l),
(424,735,l)
);
},
{
closed = 1;
nodes = (
(250,-8,o),
(301,10,o),
(343,46,cs),
(384,82,o),
(409,132,o),
(416,195,cs),
(456,513,ls),
(465,580,o),
(453,631,o),
(421,666,cs),
(390,700,o),
(345,717,o),
(286,717,cs),
(223,717,o),
(171,699,o),
(130,664,cs),
(89,629,o),
(63,578,o),
(55,513,cs),
(15,195,ls),
(7,129,o),
(19,79,o),
(50,44,cs),
(80,9,o),
(126,-8,o),
(188,-8,cs)
);
},
{
closed = 1;
nodes = (
(179,493,ls),
(188,568,o),
(215,603,o),
(268,603,cs),
(319,603,o),
(337,566,o),
(328,493,cs),
(292,209,ls),
(284,142,o),
(251,105,o),
(206,105,c),
(155,106,o),
(135,140,o),
(143,209,cs)
);
}
);
width = 455;
},
{
anchors = (
{
name = b.uni0324_2;
position = "{255, 0}";
},
{
name = m.uni0308_1;
position = "{343, 707}";
}
);
layerId = "4CEE5D12-CF00-4907-BE82-3E2F3EAADBBF";
shapes = (
{
closed = 1;
nodes = (
(-4,-20,l),
(70,-20,l),
(603,732,l),
(530,732,l)
);
},
{
closed = 1;
nodes = (
(339,-8,o),
(407,16,o),
(456,65,cs),
(504,113,o),
(534,182,o),
(545,273,cs),
(565,435,ls),
(577,527,o),
(565,597,o),
(529,645,cs),
(492,693,o),
(431,717,o),
(346,717,cs),
(261,717,o),
(194,694,o),
(145,647,cs),
(96,600,o),
(65,529,o),
(53,435,cs),
(33,273,ls),
(21,179,o),
(34,109,o),
(70,62,cs),
(106,15,o),
(166,-8,o),
(251,-8,cs)
);
},
{
closed = 1;
nodes = (
(188,428,ls),
(203,551,o),
(246,599,o),
(331,599,cs),
(415,599,o),
(445,547,o),
(431,428,cs),
(411,275,ls),
(397,162,o),
(353,112,o),
(270,112,cs),
(185,112,o),
(154,159,o),
(168,275,cs)
);
}
);
width = 582;
},
{
anchors = (
{
name = b.uni0324_2;
position = "{119, 0}";
},
{
name = m.uni0308_1;
position = "{209, 721}";
}
);
layerId = "518EE9C6-B2D1-4F77-9E99-A5231379CDB9";
shapes = (
{
closed = 1;
nodes = (
(2,-20,l),
(57,-20,l),
(480,727,l),
(426,727,l)
);
},
{
closed = 1;
nodes = (
(254,-8,o),
(302,11,o),
(342,48,cs),
(381,85,o),
(404,137,o),
(413,206,cs),
(450,501,ls),
(458,570,o),
(448,624,o),
(420,661,cs),
(390,698,o),
(346,716,o),
(286,716,cs),
(226,716,o),
(176,698,o),
(138,662,cs),
(99,626,o),
(76,572,o),
(67,501,cs),
(30,206,ls),
(21,136,o),
(31,83,o),
(62,47,c),
(91,10,o),
(136,-8,o),
(195,-8,cs)
);
},
{
closed = 1;
nodes = (
(141,494,ls),
(154,597,o),
(199,648,o),
(278,648,cs),
(353,648,o),
(387,597,o),
(374,494,cs),
(338,205,ls),
(326,108,o),
(279,59,o),
(204,59,cs),
(126,60,o),
(93,108,o),
(105,205,cs)
);
}
);
width = 463;
},
{
anchors = (
{
name = b.uni0324_2;
position = "{255, 0}";
},
{
name = m.uni0308_1;
position = "{343, 707}";
}
);
layerId = "42EEB6A2-0F6A-466B-B7DE-827BEDD2FBEB";
shapes = (
{
closed = 1;
nodes = (
(13,-20,l),
(72,-20,l),
(596,727,l),
(537,727,l)
);
},
{
closed = 1;
nodes = (
(336,-8,o),
(400,15,o),
(449,60,cs),
(497,105,o),
(527,173,o),
(538,262,cs),
(561,445,ls),
(572,535,o),
(559,603,o),
(522,648,cs),
(485,693,o),
(428,716,o),
(351,716,cs),
(274,716,o),
(211,694,o),
(162,649,cs),
(114,604,o),
(83,536,o),
(72,445,cs),
(49,262,ls),
(37,171,o),
(50,103,o),
(87,59,cs),
(125,14,o),
(182,-8,o),
(259,-8,cs)
);
},
{
closed = 1;
nodes = (
(145,442,ls),
(163,585,o),
(227,648,o),
(342,648,cs),
(455,648,o),
(502,579,o),
(485,442,cs),
(462,258,ls),
(446,126,o),
(382,60,o),
(269,60,cs),
(156,60,o),
(105,123,o),
(122,258,cs)
);
}
);
width = 592;
},
{
anchors = (
{
name = b.uni0324_2;
position = "{74, 0}";
},
{
name = m.uni0308_1;
position = "{165, 726}";
}
);
layerId = "1274E628-2993-4082-8B1F-A8F640106D1F";
shapes = (
{
closed = 1;
nodes = (
(12,-20,l),
(64,-20,l),
(478,722,l),
(428,722,l)
);
},
{
closed = 1;
nodes = (
(257,-8,o),
(303,11,o),
(341,49,cs),
(379,86,o),
(402,141,o),
(411,213,cs),
(446,493,ls),
(455,564,o),
(445,618,o),
(418,657,cs),
(391,696,o),
(347,715,o),
(286,715,cs),
(227,715,o),
(180,697,o),
(144,661,cs),
(107,624,o),
(84,568,o),
(75,493,cs),
(40,213,ls),
(31,140,o),
(41,85,o),
(70,48,cs),
(99,11,o),
(143,-8,o),
(200,-8,cs)
);
},
{
closed = 1;
nodes = (
(116,495,ls),
(131,616,o),
(190,678,o),
(285,678,cs),
(376,678,o),
(420,616,o),
(405,495,cs),
(368,202,ls),
(354,85,o),
(299,28,o),
(204,28,cs),
(107,29,o),
(65,86,o),
(79,202,cs)
);
}
);
width = 470;
},
{
anchors = (
{
name = b.uni0324_2;
position = "{255, 0}";
},
{
name = m.uni0308_1;
position = "{343, 707}";
}
);
layerId = "23A348E8-67C8-4D07-8EB8-1DABED859DB2";
shapes = (
{
closed = 1;
nodes = (
(24,-20,l),
(73,-20,l),
(592,724,l),
(542,724,l)
);
},
{
closed = 1;
nodes = (
(335,-8,o),
(395,14,o),
(443,57,cs),
(492,100,o),
(522,166,o),
(533,255,cs),
(558,452,ls),
(569,541,o),
(556,607,o),
(518,650,cs),
(481,693,o),
(425,715,o),
(353,715,cs),
(281,715,o),
(222,694,o),
(173,651,cs),
(125,608,o),
(95,541,o),
(84,452,cs),
(59,255,ls),
(48,165,o),
(61,99,o),
(99,56,cs),
(137,13,o),
(192,-8,o),
(264,-8,cs)
);
},
{
closed = 1;
nodes = (
(117,451,ls),
(137,607,o),
(216,681,o),
(349,681,cs),
(482,681,o),
(540,602,o),
(521,451,cs),
(496,247,ls),
(478,102,o),
(402,25,o),
(267,25,cs),
(135,25,o),
(73,99,o),
(92,247,cs)
);
}
);
width = 599;
}
);
unicode = 216;
},
{
glyphname = P;
layers = (
{
anchors = (
{
name = b.uni0324_2;
position = "{217, 0}";
},
{
name = m.uni0308_1;
position = "{305, 700}";
}
);
layerId = "8C4EF6F1-AE03-4AE6-BFE8-0B39B8283028";
shapes = (
{
closed = 1;
nodes = (
(-14,0,l),
(143,0,l),
(172,233,l),
(207,233,ls),
(279,233,o),
(334,252,o),
(369,290,cs),
(405,328,o),
(427,387,o),
(438,468,cs),
(448,549,o),
(440,608,o),
(414,645,cs),
(387,682,o),
(338,700,o),
(266,700,cs),
(74,700,l)
);
},
{
closed = 1;
nodes = (
(190,377,l),
(213,557,l),
(244,557,ls),
(283,557,o),
(286,532,o),
(278,468,cs),
(270,404,o),
(257,377,o),
(221,377,cs)
);
}
);
width = 418;
},
{
anchors = (
{
name = b.uni0324_2;
position = "{239, 0}";
},
{
name = m.uni0308_1;
position = "{327, 700}";
}
);
layerId = "8CE6108C-76AC-4665-97B3-B49825BA8C4F";
shapes = (
{
closed = 1;
nodes = (
(-6,0,l),
(169,0,l),
(200,245,l),
(298,245,ls),
(371,245,o),
(431,265,o),
(479,306,cs),
(526,347,o),
(554,401,o),
(563,469,cs),
(572,540,o),
(558,596,o),
(521,638,cs),
(483,679,o),
(428,700,o),
(355,700,cs),
(82,700,l)
);
},
{
closed = 1;
nodes = (
(219,397,l),
(238,550,l),
(328,550,ls),
(372,550,o),
(395,520,o),
(389,469,cs),
(384,428,o),
(349,397,o),
(309,397,cs)
);
}
);
width = 543;
},
{
anchors = (
{
name = b.uni0324_2;
position = "{169, 0}";
},
{
name = m.uni0308_1;
position = "{257, 700}";
}
);
layerId = "F55717F1-0552-4366-9B04-B3FD14930E50";
shapes = (
{
closed = 1;
nodes = (
(-3,0,l),
(121,0,l),
(153,258,l),
(217,258,ls),
(284,258,o),
(336,276,o),
(371,312,cs),
(406,348,o),
(428,404,o),
(437,479,cs),
(446,555,o),
(438,611,o),
(413,647,cs),
(387,682,o),
(341,700,o),
(273,700,cs),
(85,700,l)
);
},
{
closed = 1;
nodes = (
(167,371,l),
(195,588,l),
(255,588,ls),
(308,588,o),
(322,556,o),
(312,479,cs),
(302,403,o),
(279,371,o),
(227,371,cs)
);
}
);
width = 420;
},
{
anchors = (
{
name = b.uni0324_2;
position = "{239, 0}";
},
{
name = m.uni0308_1;
position = "{327, 700}";
}
);
layerId = "4CEE5D12-CF00-4907-BE82-3E2F3EAADBBF";
shapes = (
{
closed = 1;
nodes = (
(9,0,l),
(144,0,l),
(177,261,l),
(307,261,ls),
(378,261,o),
(437,281,o),
(483,320,cs),
(529,359,o),
(556,411,o),
(565,477,cs),
(573,546,o),
(560,601,o),
(524,641,cs),
(488,680,o),
(434,700,o),
(362,700,cs),
(97,700,l)
);
},
{
closed = 1;
nodes = (
(191,379,l),
(217,583,l),
(340,583,ls),
(407,583,o),
(439,545,o),
(431,477,cs),
(423,416,o),
(378,379,o),
(314,379,cs)
);
}
);
width = 550;
},
{
anchors = (
{
name = b.uni0324_2;
position = "{99, 0}";
},
{
name = m.uni0308_1;
position = "{187, 700}";
}
);
layerId = "518EE9C6-B2D1-4F77-9E99-A5231379CDB9";
shapes = (
{
closed = 1;
nodes = (
(15,0,l),
(89,0,l),
(126,296,l),
(234,296,ls),
(294,296,o),
(341,313,o),
(375,346,cs),
(408,379,o),
(430,429,o),
(438,496,cs),
(447,565,o),
(439,616,o),
(414,650,cs),
(389,683,o),
(347,700,o),
(285,700,cs),
(103,700,l)
);
},
{
closed = 1;
nodes = (
(134,362,l),
(168,634,l),
(272,634,ls),
(348,634,o),
(377,592,o),
(365,496,cs),
(353,401,o),
(314,362,o),
(238,362,cs)
);
}
);
width = 426;
},
{
anchors = (
{
name = b.uni0324_2;
position = "{239, 0}";
},
{
name = m.uni0308_1;
position = "{327, 700}";
}
);
layerId = "42EEB6A2-0F6A-466B-B7DE-827BEDD2FBEB";
shapes = (
{
closed = 1;
nodes = (
(31,0,l),
(106,0,l),
(142,285,l),
(321,285,ls),
(389,285,o),
(445,303,o),
(490,340,cs),
(534,377,o),
(560,426,o),
(568,489,cs),
(577,556,o),
(564,608,o),
(530,645,cs),
(495,682,o),
(443,700,o),
(373,700,cs),
(119,700,l)
);
},
{
closed = 1;
nodes = (
(150,352,l),
(185,632,l),
(358,632,ls),
(458,632,o),
(505,584,o),
(493,489,cs),
(482,398,o),
(423,352,o),
(323,352,cs)
);
}
);
width = 560;
},
{
anchors = (
{
name = b.uni0324_2;
position = "{52, 0}";
},
{
name = m.uni0308_1;
position = "{140, 700}";
}
);
layerId = "1274E628-2993-4082-8B1F-A8F640106D1F";
shapes = (
{
closed = 1;
nodes = (
(27,0,l),
(68,0,l),
(108,321,l),
(245,321,ls),
(300,321,o),
(345,337,o),
(378,368,cs),
(411,399,o),
(431,445,o),
(438,507,cs),
(446,571,o),
(438,619,o),
(416,652,c),
(392,684,o),
(351,700,o),
(293,700,cs),
(115,700,l)
);
},
{
closed = 1;
nodes = (
(113,356,l),
(151,665,l),
(284,665,ls),
(375,665,o),
(414,616,o),
(400,507,cs),
(387,400,o),
(338,356,o),
(246,356,cs)
);
}
);
width = 430;
},
{
anchors = (
{
name = b.uni0324_2;
position = "{239, 0}";
},
{
name = m.uni0308_1;
position = "{327, 700}";
}
);
layerId = "23A348E8-67C8-4D07-8EB8-1DABED859DB2";
shapes = (
{
closed = 1;
nodes = (
(46,0,l),
(81,0,l),
(119,301,l),
(330,301,ls),
(396,301,o),
(451,319,o),
(494,354,cs),
(538,389,o),
(563,436,o),
(570,497,cs),
(578,563,o),
(566,613,o),
(533,648,cs),
(499,683,o),
(449,700,o),
(380,700,cs),
(134,700,l)
);
},
{
closed = 1;
nodes = (
(123,334,l),
(164,665,l),
(370,665,ls),
(493,665,o),
(549,609,o),
(535,497,cs),
(521,386,o),
(453,334,o),
(329,334,cs)
);
}
);
width = 567;
}
);
unicode = 80;
},
{
glyphname = Q;
layers = (
{
anchors = (
{
name = b.uni0324_2;
position = "{232, 0}";
},
{
name = m.uni0308_1;
position = "{320, 700}";
}
);
layerId = "8C4EF6F1-AE03-4AE6-BFE8-0B39B8283028";
shapes = (
{
closed = 1;
nodes = (
(188,-149,l),
(327,-102,l),
(302,19,l),
(363,50,o),
(404,107,o),
(414,184,cs),
(455,513,ls),
(463,578,o),
(452,627,o),
(419,660,cs),
(386,692,o),
(341,708,o),
(284,708,cs),
(221,708,o),
(167,691,o),
(125,656,cs),
(82,621,o),
(57,574,o),
(49,513,cs),
(8,184,ls),
(0,123,o),
(11,75,o),
(42,42,cs),
(73,9,o),
(119,-8,o),
(181,-8,c),
(178,-8,o),
(173,-8,o),
(167,-9,cs),
(162,-10,l)
);
},
{
closed = 1;
nodes = (
(204,486,ls),
(211,541,o),
(224,564,o),
(261,564,cs),
(294,564,o),
(302,538,o),
(295,486,cs),
(260,208,ls),
(254,161,o),
(235,135,o),
(207,135,c),
(176,134,o),
(163,159,o),
(169,208,cs)
);
}
);
width = 448;
},
{
anchors = (
{
name = b.uni0324_2;
position = "{255, 0}";
},
{
name = m.uni0308_1;
position = "{343, 700}";
}
);
layerId = "8CE6108C-76AC-4665-97B3-B49825BA8C4F";
shapes = (
{
closed = 1;
nodes = (
(352,-160,l),
(494,-87,l),
(438,47,l),
(500,95,o),
(536,172,o),
(550,280,cs),
(567,419,ls),
(579,512,o),
(567,584,o),
(531,634,cs),
(495,683,o),
(433,708,o),
(342,708,cs),
(251,708,o),
(181,684,o),
(132,635,cs),
(83,586,o),
(52,514,o),
(40,419,cs),
(23,280,ls),
(11,185,o),
(23,113,o),
(58,65,cs),
(93,16,o),
(156,-8,o),
(246,-8,cs),
(251,-8,o),
(261,-8,o),
(276,-7,c),
(288,-7,l)
);
},
{
closed = 1;
nodes = (
(214,409,ls),
(228,518,o),
(256,557,o),
(323,557,cs),
(387,557,o),
(406,516,o),
(393,409,cs),
(378,286,ls),
(365,186,o),
(332,147,o),
(271,147,cs),
(204,147,o),
(186,183,o),
(199,286,cs)
);
}
);
width = 575;
},
{
anchors = (
{
name = b.uni0324_2;
position = "{187, 0}";
},
{
name = m.uni0308_1;
position = "{275, 700}";
}
);
layerId = "F55717F1-0552-4366-9B04-B3FD14930E50";
shapes = (
{
closed = 1;
nodes = (
(223,-148,l),
(332,-110,l),
(301,18,l),
(362,49,o),
(402,108,o),
(413,192,cs),
(452,506,ls),
(460,573,o),
(449,623,o),
(418,657,cs),
(387,691,o),
(343,708,o),
(285,708,cs),
(223,708,o),
(171,691,o),
(131,656,cs),
(90,621,o),
(65,571,o),
(57,506,cs),
(18,192,ls),
(10,127,o),
(21,78,o),
(52,44,c),
(82,9,o),
(126,-8,o),
(187,-8,cs),
(188,-8,o),
(189,-8,o),
(190,-8,cs),
(191,-8,l)
);
},
{
closed = 1;
nodes = (
(179,487,ls),
(188,560,o),
(214,595,o),
(267,595,cs),
(316,595,o),
(335,559,o),
(326,487,cs),
(291,206,ls),
(283,139,o),
(253,104,o),
(206,104,cs),
(157,104,o),
(135,138,o),
(144,206,cs)
);
}
);
width = 455;
},
{
anchors = (
{
name = b.uni0324_2;
position = "{255, 0}";
},
{
name = m.uni0308_1;
position = "{343, 700}";
}
);
layerId = "4CEE5D12-CF00-4907-BE82-3E2F3EAADBBF";
shapes = (
{
closed = 1;
nodes = (
(367,-158,l),
(477,-101,l),
(420,36,l),
(490,81,o),
(531,160,o),
(545,273,cs),
(564,426,ls),
(576,518,o),
(564,588,o),
(528,636,cs),
(491,684,o),
(430,708,o),
(345,708,cs),
(260,708,o),
(193,685,o),
(144,638,cs),
(95,591,o),
(64,520,o),
(52,426,cs),
(33,273,ls),
(21,179,o),
(34,109,o),
(70,62,cs),
(106,15,o),
(166,-8,o),
(251,-8,cs),
(261,-8,o),
(273,-7,o),
(288,-6,cs),
(303,-5,l)
);
},
{
closed = 1;
nodes = (
(186,419,ls),
(201,542,o),
(245,590,o),
(330,590,cs),
(414,590,o),
(444,538,o),
(429,419,cs),
(411,275,ls),
(397,162,o),
(353,112,o),
(270,112,cs),
(185,112,o),
(153,159,o),
(168,275,cs)
);
}
);
width = 582;
},
{
anchors = (
{
name = b.uni0324_2;
position = "{119, 0}";
},
{
name = m.uni0308_1;
position = "{207, 700}";
}
);
layerId = "518EE9C6-B2D1-4F77-9E99-A5231379CDB9";
shapes = (
{
closed = 1;
nodes = (
(275,-146,l),
(339,-122,l),
(298,16,l),
(359,47,o),
(399,111,o),
(411,204,cs),
(447,496,ls),
(456,565,o),
(446,617,o),
(418,654,cs),
(390,690,o),
(345,708,o),
(285,708,cs),
(226,708,o),
(176,690,o),
(139,655,cs),
(101,620,o),
(77,567,o),
(68,496,cs),
(32,204,ls),
(23,135,o),
(34,82,o),
(63,46,cs),
(92,10,o),
(136,-8,o),
(195,-8,cs),
(203,-8,o),
(212,-7,o),
(223,-6,cs),
(234,-5,l)
);
},
{
closed = 1;
nodes = (
(141,489,ls),
(154,590,o),
(200,641,o),
(277,641,cs),
(350,641,o),
(385,590,o),
(372,489,cs),
(336,203,ls),
(324,107,o),
(277,58,o),
(204,58,cs),
(125,59,o),
(93,107,o),
(105,203,cs)
);
}
);
width = 463;
},
{
anchors = (
{
name = b.uni0324_2;
position = "{255, 0}";
},
{
name = m.uni0308_1;
position = "{343, 700}";
}
);
layerId = "42EEB6A2-0F6A-466B-B7DE-827BEDD2FBEB";
shapes = (
{
closed = 1;
nodes = (
(390,-155,l),
(452,-122,l),
(393,20,l),
(474,60,o),
(523,141,o),
(538,262,cs),
(560,437,ls),
(571,527,o),
(558,595,o),
(521,640,cs),
(484,685,o),
(427,708,o),
(350,708,cs),
(273,708,o),
(210,686,o),
(161,641,cs),
(112,596,o),
(82,528,o),
(71,437,cs),
(49,262,ls),
(38,171,o),
(50,103,o),
(87,59,cs),
(124,14,o),
(182,-8,o),
(259,-8,cs),
(276,-8,o),
(291,-7,o),
(306,-5,cs),
(326,-2,l)
);
},
{
closed = 1;
nodes = (
(144,434,ls),
(162,577,o),
(226,640,o),
(341,640,cs),
(454,640,o),
(501,571,o),
(484,434,cs),
(462,258,ls),
(445,126,o),
(382,60,o),
(269,60,cs),
(156,60,o),
(105,123,o),
(122,258,cs)
);
}
);
width = 592;
},
{
anchors = (
{
name = b.uni0324_2;
position = "{74, 0}";
},
{
name = m.uni0308_1;
position = "{162, 700}";
}
);
layerId = "1274E628-2993-4082-8B1F-A8F640106D1F";
shapes = (
{
closed = 1;
nodes = (
(310,-145,l),
(344,-130,l),
(297,15,l),
(358,46,o),
(397,112,o),
(410,212,cs),
(444,489,ls),
(453,559,o),
(443,613,o),
(417,651,cs),
(391,689,o),
(347,708,o),
(286,708,cs),
(228,708,o),
(180,690,o),
(145,655,cs),
(108,619,o),
(85,564,o),
(76,489,cs),
(42,212,ls),
(33,139,o),
(43,85,o),
(72,48,cs),
(100,11,o),
(144,-8,o),
(201,-8,cs),
(214,-8,o),
(229,-7,o),
(246,-5,cs),
(264,-3,l)
);
},
{
closed = 1;
nodes = (
(116,490,ls),
(131,610,o),
(191,672,o),
(284,672,cs),
(373,672,o),
(418,611,o),
(403,490,cs),
(367,201,ls),
(352,85,o),
(295,27,o),
(203,27,c),
(106,30,o),
(66,86,o),
(80,201,cs)
);
}
);
width = 470;
},
{
anchors = (
{
name = b.uni0324_2;
position = "{255, 0}";
},
{
name = m.uni0308_1;
position = "{343, 700}";
}
);
layerId = "23A348E8-67C8-4D07-8EB8-1DABED859DB2";
shapes = (
{
closed = 1;
nodes = (
(405,-153,l),
(435,-136,l),
(374,9,l),
(463,46,o),
(517,128,o),
(533,255,cs),
(557,444,ls),
(568,533,o),
(554,599,o),
(517,643,cs),
(479,686,o),
(425,708,o),
(353,708,cs),
(281,708,o),
(221,687,o),
(173,644,cs),
(125,601,o),
(94,534,o),
(83,444,cs),
(59,255,ls),
(48,165,o),
(61,99,o),
(99,56,cs),
(137,13,o),
(192,-8,o),
(264,-8,cs),
(285,-8,o),
(303,-7,o),
(318,-4,cs),
(341,0,l)
);
},
{
closed = 1;
nodes = (
(117,444,ls),
(137,600,o),
(215,673,o),
(348,673,cs),
(481,673,o),
(540,593,o),
(521,444,cs),
(496,247,ls),
(478,102,o),
(402,25,o),
(267,25,cs),
(135,25,o),
(73,99,o),
(92,247,cs)
);
}
);
width = 599;
}
);
leftKerningGroup = C;
unicode = 81;
},
{
glyphname = R;
layers = (
{
anchors = (
{
name = b.uni0324_2;
position = "{233, 0}";
},
{
name = m.uni0308_1;
position = "{321, 700}";
}
);
layerId = "8C4EF6F1-AE03-4AE6-BFE8-0B39B8283028";
shapes = (
{
closed = 1;
nodes = (
(-15,0,l),
(144,0,l),
(177,264,l),
(200,264,l),
(236,0,l),
(403,0,l),
(347,295,l),
(401,332,o),
(427,392,o),
(439,484,cs),
(448,561,o),
(440,617,o),
(415,650,cs),
(389,683,o),
(341,700,o),
(268,700,cs),
(73,700,l)
);
},
{
closed = 1;
nodes = (
(195,406,l),
(214,557,l),
(247,557,ls),
(283,557,o),
(286,535,o),
(280,484,cs),
(273,429,o),
(261,406,o),
(228,406,cs)
);
}
);
width = 443;
},
{
anchors = (
{
name = b.uni0324_2;
position = "{255, 0}";
},
{
name = m.uni0308_1;
position = "{343, 700}";
}
);
layerId = "8CE6108C-76AC-4665-97B3-B49825BA8C4F";
shapes = (
{
closed = 1;
nodes = (
(-7,0,l),
(168,0,l),
(201,265,l),
(255,265,l),
(339,0,l),
(540,0,l),
(431,293,l),
(504,329,o),
(551,394,o),
(562,481,cs),
(571,548,o),
(556,602,o),
(518,641,cs),
(480,680,o),
(426,700,o),
(355,700,cs),
(81,700,l)
);
},
{
closed = 1;
nodes = (
(219,406,l),
(237,550,l),
(328,550,ls),
(371,550,o),
(393,522,o),
(388,482,cs),
(382,435,o),
(354,406,o),
(310,406,cs)
);
}
);
width = 583;
},
{
anchors = (
{
name = b.uni0324_2;
position = "{188, 0}";
},
{
name = m.uni0308_1;
position = "{276, 700}";
}
);
layerId = "F55717F1-0552-4366-9B04-B3FD14930E50";
shapes = (
{
closed = 1;
nodes = (
(-3,0,l),
(122,0,l),
(157,281,l),
(216,281,l),
(269,0,l),
(400,0,l),
(333,304,l),
(394,336,o),
(427,396,o),
(438,491,cs),
(448,564,o),
(440,618,o),
(415,651,cs),
(391,684,o),
(344,700,o),
(276,700,cs),
(85,700,l)
);
},
{
closed = 1;
nodes = (
(171,392,l),
(196,588,l),
(260,588,ls),
(311,588,o),
(322,558,o),
(313,491,cs),
(305,423,o),
(283,392,o),
(235,392,cs)
);
}
);
width = 447;
},
{
anchors = (
{
name = b.uni0324_2;
position = "{255, 0}";
},
{
name = m.uni0308_1;
position = "{343, 700}";
}
);
layerId = "4CEE5D12-CF00-4907-BE82-3E2F3EAADBBF";
shapes = (
{
closed = 1;
nodes = (
(8,0,l),
(143,0,l),
(178,280,l),
(278,280,l),
(377,0,l),
(532,0,l),
(416,300,l),
(499,331,o),
(553,397,o),
(564,489,cs),
(572,554,o),
(559,606,o),
(523,644,cs),
(486,681,o),
(434,700,o),
(365,700,cs),
(96,700,l)
);
},
{
closed = 1;
nodes = (
(192,391,l),
(216,583,l),
(343,583,ls),
(406,583,o),
(438,548,o),
(430,489,cs),
(423,428,o),
(382,391,o),
(319,391,cs)
);
}
);
width = 582;
},
{
anchors = (
{
name = b.uni0324_2;
position = "{120, 0}";
},
{
name = m.uni0308_1;
position = "{208, 700}";
}
);
layerId = "518EE9C6-B2D1-4F77-9E99-A5231379CDB9";
shapes = (
{
closed = 1;
nodes = (
(15,0,l),
(89,0,l),
(127,306,l),
(240,306,l),
(318,0,l),
(396,0,l),
(313,318,l),
(385,341,o),
(426,402,o),
(439,502,cs),
(447,569,o),
(439,619,o),
(416,652,c),
(391,684,o),
(349,700,o),
(288,700,cs),
(103,700,l)
);
},
{
closed = 1;
nodes = (
(135,371,l),
(168,634,l),
(278,634,ls),
(351,634,o),
(376,593,o),
(365,502,cs),
(354,414,o),
(316,371,o),
(245,371,cs)
);
}
);
width = 453;
},
{
anchors = (
{
name = b.uni0324_2;
position = "{255, 0}";
},
{
name = m.uni0308_1;
position = "{343, 700}";
}
);
layerId = "42EEB6A2-0F6A-466B-B7DE-827BEDD2FBEB";
shapes = (
{
closed = 1;
nodes = (
(30,0,l),
(105,0,l),
(143,303,l),
(313,303,l),
(434,0,l),
(520,0,l),
(393,310,l),
(492,333,o),
(555,401,o),
(568,501,cs),
(575,563,o),
(563,612,o),
(530,647,cs),
(496,682,o),
(447,700,o),
(380,700,cs),
(118,700,l)
);
},
{
closed = 1;
nodes = (
(151,368,l),
(184,632,l),
(365,632,ls),
(458,632,o),
(503,587,o),
(493,500,cs),
(482,416,o),
(424,368,o),
(332,368,cs)
);
}
);
width = 581;
},
{
anchors = (
{
name = b.uni0324_2;
position = "{74, 0}";
},
{
name = m.uni0308_1;
position = "{162, 700}";
}
);
layerId = "1274E628-2993-4082-8B1F-A8F640106D1F";
shapes = (
{
closed = 1;
nodes = (
(26,0,l),
(66,0,l),
(106,323,l),
(255,323,l),
(350,0,l),
(392,0,l),
(298,327,l),
(377,344,o),
(425,406,o),
(438,509,cs),
(446,572,o),
(438,620,o),
(415,652,cs),
(391,684,o),
(351,700,o),
(295,700,cs),
(114,700,l)
);
},
{
closed = 1;
nodes = (
(111,357,l),
(149,665,l),
(290,665,ls),
(378,665,o),
(411,616,o),
(398,509,cs),
(385,408,o),
(337,357,o),
(252,357,cs)
);
}
);
width = 455;
},
{
anchors = (
{
name = b.uni0324_2;
position = "{255, 0}";
},
{
name = m.uni0308_1;
position = "{343, 700}";
}
);
layerId = "23A348E8-67C8-4D07-8EB8-1DABED859DB2";
shapes = (
{
closed = 1;
nodes = (
(45,0,l),
(80,0,l),
(120,318,l),
(336,318,l),
(472,0,l),
(512,0,l),
(378,317,l),
(487,334,o),
(557,404,o),
(570,509,cs),
(577,569,o),
(565,616,o),
(534,650,c),
(502,683,o),
(455,700,o),
(390,700,cs),
(133,700,l)
);
},
{
closed = 1;
nodes = (
(124,353,l),
(163,665,l),
(380,665,ls),
(493,665,o),
(548,612,o),
(534,507,cs),
(522,408,o),
(452,353,o),
(341,353,cs)
);
}
);
width = 580;
}
);
unicode = 82;
},
{
glyphname = S;
layers = (
{
anchors = (
{
name = b.uni0324_2;
position = "{213, 0}";
},
{
name = m.uni0308_1;
position = "{303, 700}";
}
);
layerId = "8C4EF6F1-AE03-4AE6-BFE8-0B39B8283028";
shapes = (
{
closed = 1;
nodes = (
(292,-9,o),
(377,67,o),
(394,200,cs),
(408,311,o),
(374,371,o),
(280,419,cs),
(235,442,ls),
(200,459,o),
(187,479,o),
(192,516,cs),
(197,557,o),
(215,572,o),
(243,572,cs),
(279,572,o),
(285,550,o),
(277,498,c),
(274,472,l),
(419,472,l),
(422,498,l),
(435,631,o),
(377,708,o),
(260,708,cs),
(200,708,o),
(149,690,o),
(110,654,cs),
(69,617,o),
(45,569,o),
(38,509,cs),
(32,460,o),
(36,420,o),
(50,390,c),
(63,359,o),
(92,333,o),
(135,310,cs),
(185,285,ls),
(205,275,o),
(220,263,o),
(229,249,cs),
(237,235,o),
(240,218,o),
(238,197,cs),
(231,145,o),
(220,125,o),
(184,125,cs),
(151,125,o),
(137,151,o),
(143,204,c),
(145,221,l),
(-5,221,l),
(-7,204,l),
(-21,68,o),
(40,-9,o),
(164,-9,cs)
);
}
);
width = 414;
},
{
anchors = (
{
name = b.uni0324_2;
position = "{230, 0}";
},
{
name = m.uni0308_1;
position = "{318, 700}";
}
);
layerId = "8CE6108C-76AC-4665-97B3-B49825BA8C4F";
shapes = (
{
closed = 1;
nodes = (
(386,-6,o),
(495,76,o),
(513,221,cs),
(527,332,o),
(476,400,o),
(355,423,cs),
(285,435,ls),
(234,444,o),
(210,466,o),
(215,502,cs),
(220,542,o),
(248,566,o),
(297,566,cs),
(349,566,o),
(373,542,o),
(367,491,c),
(365,472,l),
(530,472,l),
(532,491,l),
(545,626,o),
(468,708,o),
(320,708,cs),
(244,708,o),
(181,688,o),
(132,648,cs),
(82,608,o),
(53,555,o),
(45,489,cs),
(38,432,o),
(48,386,o),
(77,353,cs),
(106,320,o),
(153,297,o),
(221,285,cs),
(277,275,l),
(303,274,o),
(320,267,o),
(330,256,cs),
(339,245,o),
(342,228,o),
(339,207,cs),
(333,162,o),
(307,141,o),
(250,141,cs),
(186,141,o),
(162,161,o),
(157,210,c),
(159,224,l),
(-4,224,l),
(-6,210,l),
(-11,77,o),
(67,-6,o),
(223,-6,cs)
);
}
);
width = 532;
},
{
anchors = (
{
name = b.uni0324_2;
position = "{172, 0}";
},
{
name = m.uni0308_1;
position = "{260, 700}";
}
);
layerId = "F55717F1-0552-4366-9B04-B3FD14930E50";
shapes = (
{
closed = 1;
nodes = (
(289,-8,o),
(370,65,o),
(386,194,cs),
(400,302,o),
(365,360,o),
(272,404,cs),
(228,424,ls),
(178,447,o),
(160,472,o),
(166,520,cs),
(173,575,o),
(200,600,o),
(245,600,cs),
(294,600,o),
(310,571,o),
(303,507,c),
(300,481,l),
(415,481,l),
(418,507,l),
(431,636,o),
(374,708,o),
(259,708,cs),
(200,708,o),
(151,690,o),
(113,655,cs),
(74,620,o),
(51,573,o),
(43,514,cs),
(37,466,o),
(42,427,o),
(59,398,c),
(74,368,o),
(104,342,o),
(148,321,cs),
(194,300,ls),
(222,287,o),
(241,273,o),
(252,257,cs),
(263,240,o),
(266,219,o),
(263,192,cs),
(255,127,o),
(231,98,o),
(180,98,cs),
(131,98,o),
(110,131,o),
(116,199,c),
(118,214,l),
(-1,214,l),
(-3,199,l),
(-17,66,o),
(41,-8,o),
(164,-8,cs)
);
}
);
width = 414;
},
{
anchors = (
{
name = b.uni0324_2;
position = "{230, 0}";
},
{
name = m.uni0308_1;
position = "{318, 700}";
}
);
layerId = "4CEE5D12-CF00-4907-BE82-3E2F3EAADBBF";
shapes = (
{
closed = 1;
nodes = (
(378,-6,o),
(483,73,o),
(500,210,cs),
(514,321,o),
(463,386,o),
(343,407,cs),
(270,420,ls),
(206,432,o),
(178,460,o),
(184,508,cs),
(191,564,o),
(232,597,o),
(300,597,cs),
(368,597,o),
(400,565,o),
(396,500,c),
(393,480,l),
(522,480,l),
(525,500,l),
(532,632,o),
(457,708,o),
(317,708,cs),
(244,708,o),
(183,689,o),
(135,651,cs),
(88,613,o),
(60,562,o),
(52,498,cs),
(45,443,o),
(56,400,o),
(84,368,cs),
(111,336,o),
(156,314,o),
(219,303,cs),
(285,292,l),
(317,288,o),
(340,279,o),
(353,264,cs),
(366,249,o),
(371,228,o),
(367,200,cs),
(359,139,o),
(319,108,o),
(243,108,cs),
(164,108,o),
(130,138,o),
(128,205,c),
(129,217,l),
(2,217,l),
(1,205,l),
(-5,72,o),
(72,-6,o),
(221,-6,cs)
);
}
);
width = 531;
},
{
anchors = (
{
name = b.uni0324_2;
position = "{110, 0}";
},
{
name = m.uni0308_1;
position = "{196, 700}";
}
);
layerId = "518EE9C6-B2D1-4F77-9E99-A5231379CDB9";
shapes = (
{
closed = 1;
nodes = (
(285,-7,o),
(360,61,o),
(375,185,cs),
(388,289,o),
(350,344,o),
(258,381,cs),
(218,397,ls),
(145,428,o),
(120,462,o),
(128,526,cs),
(137,601,o),
(177,642,o),
(248,642,cs),
(317,642,o),
(348,603,o),
(343,520,c),
(340,495,l),
(410,495,l),
(413,520,l),
(424,644,o),
(369,708,o),
(258,708,cs),
(201,708,o),
(154,691,o),
(118,658,cs),
(81,624,o),
(59,579,o),
(52,522,cs),
(46,475,o),
(53,438,o),
(72,409,cs),
(91,380,o),
(123,357,o),
(168,338,cs),
(207,322,ls),
(246,305,o),
(273,287,o),
(288,268,c),
(301,248,o),
(306,220,o),
(301,184,cs),
(290,99,o),
(248,58,o),
(175,58,cs),
(102,58,o),
(69,101,o),
(76,192,c),
(77,203,l),
(5,203,l),
(4,192,l),
(-9,61,o),
(44,-7,o),
(164,-7,cs)
);
}
);
width = 414;
},
{
anchors = (
{
name = b.uni0324_2;
position = "{231, 0}";
},
{
name = m.uni0308_1;
position = "{319, 700}";
}
);
layerId = "42EEB6A2-0F6A-466B-B7DE-827BEDD2FBEB";
shapes = (
{
closed = 1;
nodes = (
(368,-6,o),
(467,67,o),
(483,194,cs),
(497,303,o),
(443,363,o),
(326,383,cs),
(247,397,ls),
(165,413,o),
(129,450,o),
(138,517,cs),
(148,597,o),
(210,644,o),
(305,644,cs),
(398,644,o),
(442,601,o),
(439,514,c),
(437,492,l),
(511,492,l),
(513,514,l),
(513,642,o),
(442,708,o),
(314,708,cs),
(245,708,o),
(187,691,o),
(143,656,cs),
(98,621,o),
(72,573,o),
(64,512,cs),
(58,461,o),
(68,420,o),
(94,390,cs),
(120,360,o),
(162,340,o),
(217,330,c),
(296,318,l),
(340,310,o),
(371,296,o),
(390,276,cs),
(408,256,o),
(414,227,o),
(410,189,cs),
(399,105,o),
(337,58,o),
(232,58,cs),
(132,58,o),
(84,105,o),
(85,197,c),
(86,206,l),
(13,206,l),
(12,197,l),
(6,64,o),
(79,-6,o),
(219,-6,cs)
);
}
);
width = 531;
},
{
anchors = (
{
name = b.uni0324_2;
position = "{69, 0}";
},
{
name = m.uni0308_1;
position = "{153, 700}";
}
);
layerId = "1274E628-2993-4082-8B1F-A8F640106D1F";
shapes = (
{
closed = 1;
nodes = (
(283,-6,o),
(352,59,o),
(367,179,cs),
(380,280,o),
(341,333,o),
(249,366,cs),
(210,379,l),
(122,415,o),
(93,455,o),
(102,530,cs),
(113,618,o),
(163,670,o),
(251,670,cs),
(334,670,o),
(373,624,o),
(369,529,c),
(366,504,l),
(406,504,l),
(409,529,l),
(419,649,o),
(365,708,o),
(257,708,cs),
(202,708,o),
(157,692,o),
(121,659,cs),
(86,626,o),
(65,582,o),
(58,527,cs),
(52,482,o),
(60,445,o),
(81,417,cs),
(102,389,o),
(135,366,o),
(182,349,cs),
(216,337,l),
(263,318,o),
(294,297,o),
(310,275,cs),
(327,253,o),
(332,221,o),
(326,179,cs),
(314,80,o),
(260,31,o),
(172,31,cs),
(83,31,o),
(41,82,o),
(49,187,c),
(51,196,l),
(10,196,l),
(8,187,l),
(-5,59,o),
(45,-6,o),
(164,-6,cs)
);
}
);
width = 414;
},
{
anchors = (
{
name = b.uni0324_2;
position = "{231, 0}";
},
{
name = m.uni0308_1;
position = "{319, 700}";
}
);
layerId = "23A348E8-67C8-4D07-8EB8-1DABED859DB2";
shapes = (
{
closed = 1;
nodes = (
(361,-6,o),
(456,64,o),
(471,183,cs),
(485,292,o),
(431,348,o),
(314,367,cs),
(231,382,l),
(137,401,o),
(97,444,o),
(106,523,cs),
(118,619,o),
(194,675,o),
(307,675,cs),
(416,675,o),
(469,624,o),
(467,523,c),
(465,500,l),
(503,500,l),
(505,523,l),
(500,648,o),
(431,708,o),
(311,708,cs),
(244,708,o),
(190,692,o),
(146,659,cs),
(103,626,o),
(79,580,o),
(71,521,cs),
(65,472,o),
(75,434,o),
(101,405,cs),
(126,376,o),
(164,357,o),
(216,348,c),
(303,335,l),
(354,324,o),
(390,307,o),
(413,284,cs),
(435,261,o),
(443,227,o),
(438,182,cs),
(425,82,o),
(349,25,o),
(225,25,cs),
(110,25,o),
(52,83,o),
(55,192,c),
(56,199,l),
(19,199,l),
(18,192,l),
(12,59,o),
(84,-6,o),
(217,-6,cs)
);
}
);
width = 530;
}
);
unicode = 83;
},
{
glyphname = Scedilla;
layers = (
{
anchors = (
{
name = b.uni0324_2;
position = "{160, -167}";
},
{
name = m.uni0308_1;
position = "{303, 700}";
}
);
layerId = "8C4EF6F1-AE03-4AE6-BFE8-0B39B8283028";
shapes = (
{
closed = 1;
nodes = (
(44,-220,l),
(118,-220,l),
(192,-222,o),
(242,-186,o),
(249,-131,c),
(258,-75,o),
(236,-40,o),
(179,-34,c),
(190,-8,l),
(303,2,o),
(378,76,o),
(394,200,cs),
(408,311,o),
(374,371,o),
(280,419,cs),
(235,442,ls),
(200,459,o),
(187,479,o),
(192,516,cs),
(197,557,o),
(215,572,o),
(243,572,cs),
(279,572,o),
(285,550,o),
(277,498,c),
(274,472,l),
(419,472,l),
(422,498,l),
(435,631,o),
(377,708,o),
(260,708,cs),
(200,708,o),
(150,690,o),
(110,654,cs),
(69,617,o),
(46,569,o),
(38,509,cs),
(32,460,o),
(36,420,o),
(50,390,c),
(63,359,o),
(92,333,o),
(135,310,cs),
(185,285,ls),
(206,275,o),
(220,263,o),
(229,249,cs),
(237,235,o),
(241,218,o),
(238,197,cs),
(231,145,o),
(220,125,o),
(184,125,cs),
(151,125,o),
(137,151,o),
(143,204,c),
(145,221,l),
(-5,221,l),
(-7,204,l),
(-19,88,o),
(23,15,o),
(113,-4,c),
(93,-52,l),
(89,-85,l),
(135,-85,ls),
(152,-85,o),
(174,-93,o),
(171,-113,cs),
(169,-132,o),
(141,-133,o),
(129,-133,cs),
(55,-133,l)
);
}
);
width = 414;
},
{
anchors = (
{
name = b.uni0324_2;
position = "{180, -160}";
},
{
name = m.uni0308_1;
position = "{318, 700}";
}
);
layerId = "8CE6108C-76AC-4665-97B3-B49825BA8C4F";
shapes = (
{
closed = 1;
nodes = (
(126,-220,l),
(200,-220,l),
(274,-222,o),
(324,-186,o),
(331,-131,c),
(340,-75,o),
(318,-40,o),
(261,-34,c),
(275,-3,l),
(409,13,o),
(497,92,o),
(513,221,cs),
(527,332,o),
(476,400,o),
(355,423,cs),
(285,435,ls),
(233,444,o),
(210,466,o),
(215,502,cs),
(220,542,o),
(248,566,o),
(297,566,cs),
(349,566,o),
(372,542,o),
(367,491,c),
(365,472,l),
(530,472,l),
(532,491,l),
(545,626,o),
(468,708,o),
(320,708,cs),
(244,708,o),
(181,688,o),
(132,648,cs),
(82,608,o),
(53,555,o),
(45,489,cs),
(38,432,o),
(48,386,o),
(77,353,cs),
(106,320,o),
(154,297,o),
(221,285,cs),
(277,275,l),
(303,274,o),
(320,267,o),
(330,256,cs),
(339,245,o),
(342,228,o),
(339,207,cs),
(333,162,o),
(307,141,o),
(250,141,cs),
(186,141,o),
(162,161,o),
(157,210,c),
(159,224,l),
(-4,224,l),
(-6,210,l),
(-12,85,o),
(57,4,o),
(195,-5,c),
(175,-52,l),
(171,-85,l),
(217,-85,ls),
(234,-85,o),
(256,-93,o),
(253,-113,cs),
(251,-132,o),
(223,-133,o),
(211,-133,cs),
(137,-133,l)
);
}
);
width = 532;
},
{
anchors = (
{
name = b.uni0324_2;
position = "{115, -168}";
},
{
name = m.uni0308_1;
position = "{260, 700}";
}
);
layerId = "F55717F1-0552-4366-9B04-B3FD14930E50";
shapes = (
{
closed = 1;
nodes = (
(70,-220,l),
(138,-220,l),
(207,-221,o),
(262,-190,o),
(269,-131,c),
(277,-77,o),
(253,-43,o),
(197,-37,c),
(211,-4,l),
(309,12,o),
(372,82,o),
(386,194,cs),
(400,302,o),
(365,360,o),
(272,404,cs),
(228,424,ls),
(178,447,o),
(160,472,o),
(166,520,cs),
(173,575,o),
(200,600,o),
(245,600,cs),
(294,600,o),
(310,571,o),
(303,507,c),
(300,481,l),
(415,481,l),
(418,507,l),
(430,636,o),
(374,708,o),
(259,708,cs),
(200,708,o),
(151,690,o),
(113,655,cs),
(74,620,o),
(50,573,o),
(43,514,cs),
(37,466,o),
(43,427,o),
(59,398,c),
(74,368,o),
(104,342,o),
(148,321,cs),
(194,300,ls),
(222,287,o),
(241,273,o),
(252,257,cs),
(263,240,o),
(266,219,o),
(263,192,cs),
(255,127,o),
(231,98,o),
(180,98,cs),
(131,98,o),
(110,131,o),
(116,199,c),
(118,214,l),
(-1,214,l),
(-3,199,l),
(-15,77,o),
(32,4,o),
(136,-7,c),
(118,-50,l),
(113,-85,l),
(155,-85,ls),
(176,-85,o),
(201,-93,o),
(198,-117,cs),
(195,-139,o),
(165,-143,o),
(148,-143,cs),
(80,-143,l)
);
}
);
width = 414;
},
{
anchors = (
{
name = b.uni0324_2;
position = "{180, -160}";
},
{
name = m.uni0308_1;
position = "{318, 700}";
}
);
layerId = "4CEE5D12-CF00-4907-BE82-3E2F3EAADBBF";
shapes = (
{
closed = 1;
nodes = (
(130,-220,l),
(198,-220,l),
(267,-221,o),
(322,-190,o),
(329,-131,c),
(337,-77,o),
(313,-43,o),
(257,-37,c),
(272,-3,l),
(401,12,o),
(485,88,o),
(500,210,cs),
(514,321,o),
(463,386,o),
(343,407,cs),
(270,420,ls),
(207,432,o),
(178,460,o),
(184,508,cs),
(191,564,o),
(232,597,o),
(300,597,cs),
(368,597,o),
(400,565,o),
(396,500,c),
(393,480,l),
(522,480,l),
(525,500,l),
(533,632,o),
(457,708,o),
(317,708,cs),
(244,708,o),
(183,689,o),
(135,651,cs),
(87,613,o),
(60,562,o),
(52,498,cs),
(45,443,o),
(56,400,o),
(84,368,cs),
(111,336,o),
(156,314,o),
(219,303,cs),
(285,292,l),
(317,288,o),
(340,279,o),
(353,264,cs),
(366,249,o),
(371,228,o),
(367,200,cs),
(359,139,o),
(319,108,o),
(243,108,cs),
(164,108,o),
(131,138,o),
(128,205,c),
(129,217,l),
(2,217,l),
(1,205,l),
(-5,80,o),
(63,3,o),
(196,-5,c),
(178,-50,l),
(173,-85,l),
(215,-85,ls),
(236,-85,o),
(261,-93,o),
(258,-117,cs),
(255,-139,o),
(225,-143,o),
(208,-143,cs),
(140,-143,l)
);
}
);
width = 531;
},
{
anchors = (
{
name = b.uni0324_2;
position = "{47, -170}";
},
{
name = m.uni0308_1;
position = "{196, 700}";
}
);
layerId = "518EE9C6-B2D1-4F77-9E99-A5231379CDB9";
shapes = (
{
closed = 1;
nodes = (
(77,-220,l),
(135,-220,ls),
(197,-220,o),
(258,-197,o),
(266,-131,cs),
(273,-78,o),
(246,-47,o),
(193,-42,c),
(208,-4,l),
(303,11,o),
(361,77,o),
(375,185,cs),
(388,289,o),
(350,344,o),
(258,381,cs),
(218,397,ls),
(145,428,o),
(120,462,o),
(128,526,cs),
(137,601,o),
(177,642,o),
(248,642,cs),
(317,642,o),
(348,603,o),
(343,520,c),
(340,495,l),
(410,495,l),
(413,520,l),
(424,644,o),
(369,708,o),
(258,708,cs),
(201,708,o),
(154,691,o),
(118,658,cs),
(81,624,o),
(59,579,o),
(52,522,cs),
(46,475,o),
(53,438,o),
(72,409,cs),
(90,380,o),
(122,357,o),
(168,338,cs),
(207,322,ls),
(246,305,o),
(273,287,o),
(288,268,c),
(301,248,o),
(306,220,o),
(301,184,cs),
(290,99,o),
(248,58,o),
(175,58,cs),
(102,58,o),
(69,101,o),
(76,192,c),
(77,203,l),
(5,203,l),
(4,192,l),
(-8,71,o),
(36,3,o),
(138,-6,c),
(121,-48,l),
(116,-85,l),
(152,-85,ls),
(179,-85,o),
(212,-94,o),
(208,-123,cs),
(205,-150,o),
(169,-157,o),
(143,-157,cs),
(85,-157,l)
);
}
);
width = 414;
},
{
anchors = (
{
name = b.uni0324_2;
position = "{181, -160}";
},
{
name = m.uni0308_1;
position = "{319, 700}";
}
);
layerId = "42EEB6A2-0F6A-466B-B7DE-827BEDD2FBEB";
shapes = (
{
closed = 1;
nodes = (
(137,-220,l),
(195,-220,ls),
(257,-220,o),
(318,-197,o),
(326,-131,cs),
(333,-78,o),
(306,-47,o),
(253,-42,c),
(269,-3,l),
(390,12,o),
(469,82,o),
(483,194,cs),
(497,303,o),
(443,363,o),
(326,383,cs),
(247,397,ls),
(165,413,o),
(130,450,o),
(138,517,cs),
(148,597,o),
(210,644,o),
(305,644,cs),
(398,644,o),
(442,601,o),
(439,514,c),
(437,492,l),
(511,492,l),
(513,514,l),
(513,642,o),
(442,708,o),
(314,708,cs),
(245,708,o),
(187,691,o),
(143,656,cs),
(98,621,o),
(72,573,o),
(64,512,cs),
(58,461,o),
(68,420,o),
(94,390,cs),
(120,360,o),
(161,340,o),
(217,330,c),
(296,318,l),
(340,310,o),
(372,296,o),
(390,276,cs),
(408,256,o),
(415,227,o),
(410,189,cs),
(399,105,o),
(337,58,o),
(232,58,cs),
(132,58,o),
(84,105,o),
(85,197,c),
(86,206,l),
(13,206,l),
(12,197,l),
(6,71,o),
(72,2,o),
(198,-5,c),
(181,-48,l),
(176,-85,l),
(212,-85,ls),
(239,-85,o),
(272,-94,o),
(268,-123,cs),
(265,-150,o),
(229,-157,o),
(203,-157,cs),
(145,-157,l)
);
}
);
width = 531;
},
{
anchors = (
{
name = b.uni0324_2;
position = "{2, -171}";
},
{
name = m.uni0308_1;
position = "{153, 700}";
}
);
layerId = "1274E628-2993-4082-8B1F-A8F640106D1F";
shapes = (
{
closed = 1;
nodes = (
(85,-220,l),
(132,-220,l),
(201,-221,o),
(255,-192,o),
(262,-138,cs),
(268,-90,o),
(233,-58,o),
(170,-54,c),
(191,-5,l),
(293,4,o),
(353,68,o),
(367,179,cs),
(380,280,o),
(341,333,o),
(249,366,cs),
(210,379,l),
(122,415,o),
(93,455,o),
(102,530,cs),
(113,618,o),
(163,670,o),
(251,670,cs),
(334,670,o),
(373,624,o),
(369,529,c),
(366,504,l),
(406,504,l),
(409,529,l),
(419,649,o),
(365,708,o),
(257,708,cs),
(202,708,o),
(156,692,o),
(121,659,cs),
(86,626,o),
(65,582,o),
(58,527,cs),
(52,482,o),
(60,445,o),
(81,417,cs),
(101,389,o),
(135,366,o),
(182,349,cs),
(216,337,l),
(263,318,o),
(294,297,o),
(310,275,cs),
(326,253,o),
(331,221,o),
(326,179,cs),
(314,80,o),
(260,31,o),
(172,31,cs),
(83,31,o),
(41,82,o),
(49,187,c),
(51,196,l),
(10,196,l),
(8,187,l),
(-5,61,o),
(43,-4,o),
(157,-6,c),
(133,-61,l),
(131,-83,l),
(150,-83,ls),
(199,-83,o),
(233,-101,o),
(229,-135,cs),
(225,-169,o),
(186,-186,o),
(137,-186,cs),
(90,-186,l)
);
}
);
width = 414;
},
{
anchors = (
{
name = b.uni0324_2;
position = "{181, -160}";
},
{
name = m.uni0308_1;
position = "{319, 700}";
}
);
layerId = "23A348E8-67C8-4D07-8EB8-1DABED859DB2";
shapes = (
{
closed = 1;
nodes = (
(134,-220,l),
(181,-220,l),
(250,-221,o),
(304,-192,o),
(311,-138,cs),
(317,-90,o),
(282,-58,o),
(219,-54,c),
(239,-5,l),
(370,2,o),
(457,70,o),
(471,183,cs),
(485,292,o),
(431,348,o),
(314,367,cs),
(231,382,l),
(137,401,o),
(96,444,o),
(106,523,cs),
(118,619,o),
(194,675,o),
(307,675,cs),
(416,675,o),
(469,624,o),
(467,523,c),
(465,500,l),
(503,500,l),
(505,523,l),
(500,648,o),
(431,708,o),
(311,708,cs),
(244,708,o),
(189,692,o),
(146,659,cs),
(103,626,o),
(78,580,o),
(71,521,cs),
(65,472,o),
(76,434,o),
(101,405,cs),
(126,376,o),
(164,357,o),
(216,348,c),
(303,335,l),
(354,324,o),
(391,307,o),
(413,284,cs),
(435,261,o),
(444,227,o),
(438,182,cs),
(425,82,o),
(349,25,o),
(225,25,cs),
(110,25,o),
(52,83,o),
(55,192,c),
(56,199,l),
(19,199,l),
(18,192,l),
(13,63,o),
(79,-3,o),
(206,-6,c),
(182,-61,l),
(180,-83,l),
(199,-83,ls),
(248,-83,o),
(282,-101,o),
(278,-135,cs),
(274,-169,o),
(235,-186,o),
(186,-186,cs),
(139,-186,l)
);
}
);
width = 530;
}
);
unicode = 350;
},
{
glyphname = Germandbls;
layers = (
{
anchors = (
{
name = b.uni0324_2;
position = "{349, 0}";
},
{
name = m.uni0308_1;
position = "{437, 702}";
}
);
layerId = "8C4EF6F1-AE03-4AE6-BFE8-0B39B8283028";
shapes = (
{
closed = 1;
nodes = (
(178,-3,l),
(283,-3,ls),
(459,-3,o),
(552,30,o),
(575,217,cs),
(591,342,o),
(505,410,o),
(387,416,cs),
(366,417,l),
(358,349,l),
(559,570,l),
(516,659,o),
(419,716,o),
(316,714,cs),
(158,712,o),
(57,632,o),
(37,474,cs),
(-22,1,l),
(130,1,l),
(189,471,ls),
(194,513,o),
(209,602,o),
(269,602,cs),
(322,602,o),
(362,588,o),
(377,571,c),
(222,401,l),
(208,288,l),
(331,288,ls),
(377,288,o),
(429,275,o),
(422,219,cs),
(415,162,o),
(363,147,o),
(316,147,cs),
(196,147,l)
);
}
);
width = 588;
},
{
anchors = (
{
name = b.uni0324_2;
position = "{336, 0}";
},
{
name = m.uni0308_1;
position = "{424, 707}";
}
);
layerId = "8CE6108C-76AC-4665-97B3-B49825BA8C4F";
shapes = (
{
closed = 1;
nodes = (
(289,-3,l),
(417,-3,ls),
(589,-3,o),
(754,12,o),
(780,219,cs),
(801,389,o),
(664,428,o),
(519,428,cs),
(494,428,l),
(487,322,l),
(746,595,l),
(689,676,o),
(516,713,o),
(416,714,cs),
(230,715,o),
(103,669,o),
(78,470,cs),
(19,1,l),
(193,1,l),
(251,464,ls),
(262,555,o),
(323,549,o),
(396,549,cs),
(456,549,o),
(501,547,o),
(516,544,c),
(356,365,l),
(345,278,l),
(474,278,ls),
(510,278,o),
(614,278,o),
(607,222,cs),
(598,152,o),
(515,167,o),
(465,167,cs),
(310,167,l)
);
}
);
width = 827;
},
{
anchors = (
{
name = b.uni0324_2;
position = "{300, 0}";
},
{
name = m.uni0308_1;
position = "{388, 707}";
}
);
layerId = "F55717F1-0552-4366-9B04-B3FD14930E50";
shapes = (
{
closed = 1;
nodes = (
(166,-3,l),
(260,-3,ls),
(419,-3,o),
(500,51,o),
(520,210,cs),
(535,327,o),
(464,401,o),
(352,407,cs),
(332,408,l),
(336,379,l),
(505,581,l),
(471,659,o),
(391,714,o),
(300,714,cs),
(142,714,o),
(69,625,o),
(51,479,cs),
(-9,1,l),
(110,1,l),
(170,481,ls),
(177,536,o),
(197,622,o),
(269,622,cs),
(316,622,o),
(353,605,o),
(367,580,c),
(218,402,l),
(206,305,l),
(309,305,ls),
(371,305,o),
(409,275,o),
(401,210,cs),
(393,144,o),
(348,114,o),
(288,114,cs),
(180,114,l)
);
}
);
width = 547;
},
{
anchors = (
{
name = b.uni0324_2;
position = "{338, 0}";
},
{
name = m.uni0308_1;
position = "{426, 707}";
}
);
layerId = "4CEE5D12-CF00-4907-BE82-3E2F3EAADBBF";
shapes = (
{
closed = 1;
nodes = (
(257,-3,l),
(375,-3,ls),
(546,-3,o),
(674,16,o),
(698,211,cs),
(719,377,o),
(604,407,o),
(464,407,cs),
(440,407,l),
(470,343,l),
(689,588,l),
(622,673,o),
(495,713,o),
(382,714,cs),
(207,715,o),
(103,654,o),
(81,477,cs),
(21,1,l),
(153,1,l),
(213,477,ls),
(226,579,o),
(280,590,o),
(367,590,cs),
(428,590,o),
(480,581,o),
(501,568,c),
(331,362,l),
(323,299,l),
(432,299,ls),
(492,299,o),
(577,291,o),
(567,212,cs),
(555,118,o),
(487,126,o),
(415,126,cs),
(273,126,l)
);
}
);
width = 748;
},
{
anchors = (
{
name = b.uni0324_2;
position = "{227, 0}";
},
{
name = m.uni0308_1;
position = "{316, 714}";
}
);
layerId = "518EE9C6-B2D1-4F77-9E99-A5231379CDB9";
shapes = (
{
closed = 1;
nodes = (
(149,-3,l),
(226,-3,ls),
(359,-3,o),
(424,77,o),
(439,199,cs),
(455,323,o),
(397,392,o),
(276,386,cs),
(255,385,l),
(264,374,l),
(423,597,l),
(400,662,o),
(351,713,o),
(276,714,cs),
(139,716,o),
(86,600,o),
(72,487,cs),
(11,1,l),
(80,1,l),
(142,496,ls),
(151,569,o),
(182,652,o),
(269,652,cs),
(306,652,o),
(337,630,o),
(351,594,c),
(212,403,l),
(203,330,l),
(277,330,ls),
(356,330,o),
(379,268,o),
(370,197,cs),
(360,119,o),
(329,64,o),
(246,64,cs),
(157,64,l)
);
}
);
width = 487;
},
{
anchors = (
{
name = b.uni0324_2;
position = "{341, 0}";
},
{
name = m.uni0308_1;
position = "{429, 707}";
}
);
layerId = "42EEB6A2-0F6A-466B-B7DE-827BEDD2FBEB";
shapes = (
{
closed = 1;
nodes = (
(209,-3,l),
(312,-3,ls),
(483,-3,o),
(554,24,o),
(576,199,cs),
(595,353,o),
(500,396,o),
(366,396,cs),
(342,396,l),
(327,342,l),
(561,607,l),
(515,679,o),
(419,714,o),
(331,714,cs),
(174,714,o),
(103,632,o),
(85,487,cs),
(24,1,l),
(93,1,l),
(155,496,ls),
(168,600,o),
(222,652,o),
(324,652,cs),
(388,652,o),
(448,633,o),
(479,604,c),
(298,383,l),
(291,330,l),
(370,330,ls),
(462,330,o),
(520,297,o),
(507,197,cs),
(493,82,o),
(438,64,o),
(340,64,cs),
(217,64,l)
);
}
);
width = 630;
},
{
anchors = (
{
name = b.uni0324_2;
position = "{178, 0}";
},
{
name = m.uni0308_1;
position = "{268, 719}";
}
);
layerId = "1274E628-2993-4082-8B1F-A8F640106D1F";
shapes = (
{
closed = 1;
nodes = (
(137,-3,l),
(203,-3,ls),
(320,-3,o),
(372,93,o),
(384,192,cs),
(401,324,o),
(353,382,o),
(228,382,cs),
(209,382,l),
(226,367,l),
(380,608,l),
(358,664,o),
(329,714,o),
(260,714,cs),
(158,714,o),
(105,646,o),
(86,492,cs),
(24,1,l),
(56,1,l),
(121,516,ls),
(136,635,o),
(180,682,o),
(269,682,cs),
(300,682,o),
(327,647,o),
(340,603,c),
(209,404,l),
(201,347,l),
(255,347,ls),
(341,347,o),
(358,259,o),
(349,188,cs),
(338,104,o),
(314,31,o),
(218,31,cs),
(141,31,l)
);
}
);
width = 446;
},
{
anchors = (
{
name = b.uni0324_2;
position = "{343, 0}";
},
{
name = m.uni0308_1;
position = "{431, 707}";
}
);
layerId = "23A348E8-67C8-4D07-8EB8-1DABED859DB2";
shapes = (
{
closed = 1;
nodes = (
(176,-3,l),
(270,-3,ls),
(418,-3,o),
(477,48,o),
(494,187,cs),
(512,333,o),
(463,379,o),
(291,379,cs),
(283,379,l),
(282,358,l),
(493,618,l),
(446,678,o),
(380,714,o),
(298,714,c),
(162,711,o),
(104,623,o),
(88,493,cs),
(26,1,l),
(56,1,l),
(120,508,ls),
(133,608,o),
(188,689,o),
(295,689,cs),
(358,689,o),
(419,655,o),
(456,615,c),
(273,391,l),
(268,349,l),
(329,349,ls),
(438,349,o),
(477,294,o),
(464,188,cs),
(449,71,o),
(400,27,o),
(290,27,cs),
(179,27,l)
);
}
);
width = 552;
}
);
unicode = 7838;
},
{
glyphname = T;
layers = (
{
anchors = (
{
name = b.uni0324_2;
position = "{200, 0}";
},
{
name = m.uni0308_1;
position = "{288, 700}";
}
);
layerId = "8C4EF6F1-AE03-4AE6-BFE8-0B39B8283028";
shapes = (
{
closed = 1;
nodes = (
(74,0,l),
(233,0,l),
(302,555,l),
(408,555,l),
(427,700,l),
(54,700,l),
(35,555,l),
(143,555,l)
);
}
);
width = 377;
},
{
anchors = (
{
name = b.uni0324_2;
position = "{214, 0}";
},
{
name = m.uni0308_1;
position = "{302, 700}";
}
);
layerId = "8CE6108C-76AC-4665-97B3-B49825BA8C4F";
shapes = (
{
closed = 1;
nodes = (
(131,0,l),
(309,0,l),
(378,550,l),
(544,550,l),
(563,700,l),
(54,700,l),
(35,550,l),
(200,550,l)
);
}
);
width = 513;
},
{
anchors = (
{
name = b.uni0324_2;
position = "{160, 0}";
},
{
name = m.uni0308_1;
position = "{248, 700}";
}
);
layerId = "F55717F1-0552-4366-9B04-B3FD14930E50";
shapes = (
{
closed = 1;
nodes = (
(89,0,l),
(214,0,l),
(287,586,l),
(409,586,l),
(424,700,l),
(54,700,l),
(39,586,l),
(162,586,l)
);
}
);
width = 374;
},
{
anchors = (
{
name = b.uni0324_2;
position = "{214, 0}";
},
{
name = m.uni0308_1;
position = "{302, 700}";
}
);
layerId = "4CEE5D12-CF00-4907-BE82-3E2F3EAADBBF";
shapes = (
{
closed = 1;
nodes = (
(146,0,l),
(282,0,l),
(355,583,l),
(535,583,l),
(550,700,l),
(54,700,l),
(39,583,l),
(219,583,l)
);
}
);
width = 500;
},
{
anchors = (
{
name = b.uni0324_2;
position = "{100, 0}";
},
{
name = m.uni0308_1;
position = "{188, 700}";
}
);
layerId = "518EE9C6-B2D1-4F77-9E99-A5231379CDB9";
shapes = (
{
closed = 1;
nodes = (
(112,0,l),
(185,0,l),
(264,633,l),
(410,633,l),
(419,700,l),
(54,700,l),
(45,633,l),
(191,633,l)
);
}
);
width = 369;
},
{
anchors = (
{
name = b.uni0324_2;
position = "{215, 0}";
},
{
name = m.uni0308_1;
position = "{303, 700}";
}
);
layerId = "42EEB6A2-0F6A-466B-B7DE-827BEDD2FBEB";
shapes = (
{
closed = 1;
nodes = (
(169,0,l),
(243,0,l),
(322,632,l),
(523,632,l),
(532,700,l),
(55,700,l),
(46,632,l),
(248,632,l)
);
}
);
width = 483;
},
{
anchors = (
{
name = b.uni0324_2;
position = "{60, 0}";
},
{
name = m.uni0308_1;
position = "{148, 700}";
}
);
layerId = "1274E628-2993-4082-8B1F-A8F640106D1F";
shapes = (
{
closed = 1;
nodes = (
(127,0,l),
(166,0,l),
(249,664,l),
(411,664,l),
(416,700,l),
(54,700,l),
(49,664,l),
(210,664,l)
);
}
);
width = 366;
},
{
anchors = (
{
name = b.uni0324_2;
position = "{215, 0}";
},
{
name = m.uni0308_1;
position = "{303, 700}";
}
);
layerId = "23A348E8-67C8-4D07-8EB8-1DABED859DB2";
shapes = (
{
closed = 1;
nodes = (
(184,0,l),
(216,0,l),
(299,665,l),
(514,665,l),
(519,700,l),
(55,700,l),
(50,665,l),
(267,665,l)
);
}
);
width = 470;
}
);
leftKerningGroup = T;
unicode = 84;
},
{
glyphname = Tcedilla;
layers = (
{
anchors = (
{
name = b.uni0324_2;
position = "{147, -167}";
},
{
name = m.uni0308_1;
position = "{288, 700}";
}
);
layerId = "8C4EF6F1-AE03-4AE6-BFE8-0B39B8283028";
shapes = (
{
closed = 1;
nodes = (
(44,-220,l),
(118,-220,l),
(192,-222,o),
(242,-186,o),
(249,-131,c),
(258,-75,o),
(236,-40,o),
(179,-34,c),
(193,0,l),
(233,0,l),
(302,555,l),
(408,555,l),
(427,700,l),
(54,700,l),
(35,555,l),
(143,555,l),
(74,0,l),
(115,0,l),
(93,-52,l),
(89,-85,l),
(135,-85,ls),
(152,-85,o),
(174,-93,o),
(171,-113,cs),
(169,-132,o),
(141,-133,o),
(129,-133,cs),
(55,-133,l)
);
}
);
width = 377;
},
{
anchors = (
{
name = b.uni0324_2;
position = "{164, -160}";
},
{
name = m.uni0308_1;
position = "{302, 700}";
}
);
layerId = "8CE6108C-76AC-4665-97B3-B49825BA8C4F";
shapes = (
{
closed = 1;
nodes = (
(116,-220,l),
(190,-220,l),
(264,-222,o),
(314,-186,o),
(321,-131,c),
(330,-75,o),
(308,-40,o),
(251,-34,c),
(265,0,l),
(309,0,l),
(378,550,l),
(544,550,l),
(563,700,l),
(54,700,l),
(35,550,l),
(200,550,l),
(131,0,l),
(187,0,l),
(165,-52,l),
(161,-85,l),
(207,-85,ls),
(224,-85,o),
(246,-93,o),
(243,-113,cs),
(241,-132,o),
(213,-133,o),
(201,-133,cs),
(127,-133,l)
);
}
);
width = 513;
},
{
anchors = (
{
name = b.uni0324_2;
position = "{103, -168}";
},
{
name = m.uni0308_1;
position = "{248, 700}";
}
);
layerId = "F55717F1-0552-4366-9B04-B3FD14930E50";
shapes = (
{
closed = 1;
nodes = (
(50,-220,l),
(118,-220,l),
(187,-221,o),
(242,-190,o),
(249,-131,c),
(257,-77,o),
(233,-43,o),
(177,-37,c),
(193,0,l),
(214,0,l),
(287,586,l),
(409,586,l),
(424,700,l),
(54,700,l),
(39,586,l),
(162,586,l),
(89,0,l),
(119,0,l),
(98,-50,l),
(93,-85,l),
(135,-85,ls),
(156,-85,o),
(181,-93,o),
(178,-117,cs),
(175,-139,o),
(145,-143,o),
(128,-143,cs),
(60,-143,l)
);
}
);
width = 374;
},
{
anchors = (
{
name = b.uni0324_2;
position = "{164, -160}";
},
{
name = m.uni0308_1;
position = "{302, 700}";
}
);
layerId = "4CEE5D12-CF00-4907-BE82-3E2F3EAADBBF";
shapes = (
{
closed = 1;
nodes = (
(114,-220,l),
(182,-220,l),
(251,-221,o),
(306,-190,o),
(313,-131,c),
(321,-77,o),
(297,-43,o),
(241,-37,c),
(257,0,l),
(282,0,l),
(355,583,l),
(535,583,l),
(550,700,l),
(54,700,l),
(39,583,l),
(219,583,l),
(146,0,l),
(183,0,l),
(162,-50,l),
(157,-85,l),
(199,-85,ls),
(220,-85,o),
(245,-93,o),
(242,-117,cs),
(239,-139,o),
(209,-143,o),
(192,-143,cs),
(124,-143,l)
);
}
);
width = 500;
},
{
anchors = (
{
name = b.uni0324_2;
position = "{37, -170}";
},
{
name = m.uni0308_1;
position = "{188, 700}";
}
);
layerId = "518EE9C6-B2D1-4F77-9E99-A5231379CDB9";
shapes = (
{
closed = 1;
nodes = (
(50,-220,l),
(108,-220,ls),
(170,-220,o),
(231,-197,o),
(239,-131,cs),
(246,-78,o),
(219,-47,o),
(166,-42,c),
(183,0,l),
(185,0,l),
(264,633,l),
(410,633,l),
(419,700,l),
(54,700,l),
(45,633,l),
(191,633,l),
(112,0,l),
(114,0,l),
(94,-48,l),
(89,-85,l),
(125,-85,ls),
(152,-85,o),
(185,-94,o),
(181,-123,cs),
(178,-150,o),
(142,-157,o),
(116,-157,cs),
(58,-157,l)
);
}
);
width = 369;
},
{
anchors = (
{
name = b.uni0324_2;
position = "{165, -160}";
},
{
name = m.uni0308_1;
position = "{303, 700}";
}
);
layerId = "42EEB6A2-0F6A-466B-B7DE-827BEDD2FBEB";
shapes = (
{
closed = 1;
nodes = (
(108,-220,l),
(166,-220,ls),
(228,-220,o),
(289,-197,o),
(297,-131,cs),
(304,-78,o),
(277,-47,o),
(224,-42,c),
(241,0,l),
(243,0,l),
(322,632,l),
(523,632,l),
(532,700,l),
(55,700,l),
(46,632,l),
(248,632,l),
(169,0,l),
(172,0,l),
(152,-48,l),
(147,-85,l),
(183,-85,ls),
(210,-85,o),
(243,-94,o),
(239,-123,cs),
(236,-150,o),
(200,-157,o),
(174,-157,cs),
(116,-157,l)
);
}
);
width = 483;
},
{
anchors = (
{
name = b.uni0324_2;
position = "{-7, -171}";
},
{
name = m.uni0308_1;
position = "{148, 700}";
}
);
layerId = "1274E628-2993-4082-8B1F-A8F640106D1F";
shapes = (
{
closed = 1;
nodes = (
(61,-220,l),
(108,-220,l),
(177,-221,o),
(231,-192,o),
(238,-138,cs),
(244,-90,o),
(200,-58,o),
(137,-54,c),
(160,0,l),
(166,0,l),
(249,664,l),
(411,664,l),
(416,700,l),
(54,700,l),
(49,664,l),
(210,664,l),
(127,0,l),
(127,0,l),
(100,-61,l),
(107,-83,l),
(126,-83,ls),
(175,-83,o),
(209,-101,o),
(205,-135,cs),
(201,-169,o),
(162,-186,o),
(113,-186,cs),
(66,-186,l)
);
}
);
width = 366;
},
{
anchors = (
{
name = b.uni0324_2;
position = "{165, -160}";
},
{
name = m.uni0308_1;
position = "{303, 700}";
}
);
layerId = "23A348E8-67C8-4D07-8EB8-1DABED859DB2";
shapes = (
{
closed = 1;
nodes = (
(109,-220,l),
(156,-220,l),
(225,-221,o),
(279,-192,o),
(286,-138,cs),
(292,-90,o),
(257,-58,o),
(194,-54,c),
(217,0,l),
(216,0,l),
(299,665,l),
(514,665,l),
(519,700,l),
(55,700,l),
(50,665,l),
(267,665,l),
(184,0,l),
(184,0,l),
(157,-61,l),
(155,-83,l),
(174,-83,ls),
(223,-83,o),
(257,-101,o),
(253,-135,cs),
(249,-169,o),
(210,-186,o),
(161,-186,cs),
(114,-186,l)
);
}
);
width = 470;
}
);
leftKerningGroup = T;
rightKerningGroup = Tbar;
unicode = 354;
},
{
glyphname = U;
layers = (
{
anchors = (
{
name = b.uni0324_2;
position = "{230, 0}";
},
{
name = m.uni0308_1;
position = "{318, 700}";
},
{
name = m.uni0328;
position = "{305, 10}";
},
{
name = t.uni031B_2;
position = "{597, 700}";
}
);
layerId = "8C4EF6F1-AE03-4AE6-BFE8-0B39B8283028";
shapes = (
{
closed = 1;
nodes = (
(252,-8,o),
(320,26,o),
(364,86,cs),
(384,115,o),
(398,149,o),
(403,188,cs),
(467,700,l),
(307,700,l),
(243,191,ls),
(240,171,o),
(237,157,o),
(231,149,cs),
(225,140,o),
(213,136,o),
(198,136,cs),
(183,136,o),
(174,140,o),
(170,148,cs),
(165,155,o),
(164,170,o),
(167,191,cs),
(231,700,l),
(71,700,l),
(7,188,ls),
(-3,108,o),
(28,48,o),
(84,16,cs),
(112,0,o),
(144,-8,o),
(180,-8,cs)
);
}
);
width = 434;
},
{
anchors = (
{
name = b.uni0324_2;
position = "{262, 0}";
},
{
name = m.uni0308_1;
position = "{350, 700}";
},
{
name = m.uni0328;
position = "{323, 10}";
},
{
name = t.uni031B_2;
position = "{692, 700}";
}
);
layerId = "8CE6108C-76AC-4665-97B3-B49825BA8C4F";
shapes = (
{
closed = 1;
nodes = (
(348,-6,o),
(439,39,o),
(495,112,cs),
(523,149,o),
(540,190,o),
(545,235,cs),
(604,700,l),
(428,700,l),
(370,239,ls),
(366,208,o),
(355,185,o),
(338,169,cs),
(321,153,o),
(298,145,o),
(270,145,cs),
(243,145,o),
(223,153,o),
(211,169,cs),
(198,185,o),
(194,208,o),
(198,239,cs),
(256,700,l),
(81,700,l),
(22,235,ls),
(11,144,o),
(50,68,o),
(123,26,cs),
(160,5,o),
(202,-6,o),
(251,-6,cs)
);
}
);
width = 581;
},
{
anchors = (
{
name = b.uni0324_2;
position = "{177, 0}";
},
{
name = m.uni0308_1;
position = "{265, 700}";
},
{
name = m.uni0328;
position = "{239, 10}";
},
{
name = t.uni031B_2;
position = "{484, 700}";
}
);
layerId = "F55717F1-0552-4366-9B04-B3FD14930E50";
shapes = (
{
closed = 1;
nodes = (
(259,-8,o),
(325,26,o),
(366,84,cs),
(386,113,o),
(398,146,o),
(403,185,cs),
(468,700,l),
(342,700,l),
(278,188,ls),
(274,161,o),
(267,140,o),
(254,126,cs),
(241,112,o),
(224,105,o),
(201,105,cs),
(178,105,o),
(163,112,o),
(154,125,cs),
(144,138,o),
(141,159,o),
(145,188,cs),
(209,700,l),
(83,700,l),
(18,185,ls),
(9,108,o),
(37,48,o),
(92,16,cs),
(119,0,o),
(151,-8,o),
(187,-8,cs)
);
}
);
width = 447;
},
{
anchors = (
{
name = b.uni0324_2;
position = "{262, 0}";
},
{
name = m.uni0308_1;
position = "{350, 700}";
},
{
name = m.uni0328;
position = "{323, 10}";
},
{
name = t.uni031B_2;
position = "{692, 700}";
}
);
layerId = "4CEE5D12-CF00-4907-BE82-3E2F3EAADBBF";
shapes = (
{
closed = 1;
nodes = (
(355,-6,o),
(443,38,o),
(497,111,cs),
(523,147,o),
(540,188,o),
(545,233,cs),
(604,700,l),
(469,700,l),
(411,238,ls),
(406,198,o),
(391,167,o),
(367,145,cs),
(343,122,o),
(312,111,o),
(275,111,cs),
(238,111,o),
(211,122,o),
(193,145,cs),
(175,167,o),
(168,198,o),
(173,238,cs),
(231,700,l),
(96,700,l),
(37,233,ls),
(26,142,o),
(63,66,o),
(135,25,cs),
(172,4,o),
(213,-6,o),
(260,-6,cs)
);
}
);
width = 596;
},
{
anchors = (
{
name = b.uni0324_2;
position = "{97, 0}";
},
{
name = m.uni0308_1;
position = "{185, 700}";
},
{
name = m.uni0328;
position = "{139, 10}";
},
{
name = t.uni031B_2;
position = "{313, 700}";
}
);
layerId = "518EE9C6-B2D1-4F77-9E99-A5231379CDB9";
shapes = (
{
closed = 1;
nodes = (
(269,-8,o),
(330,24,o),
(368,81,cs),
(387,109,o),
(399,142,o),
(404,180,cs),
(469,700,l),
(394,700,l),
(329,184,ls),
(324,145,o),
(310,115,o),
(289,93,cs),
(267,70,o),
(238,59,o),
(204,59,cs),
(170,59,o),
(145,70,o),
(129,92,c),
(111,113,o),
(105,144,o),
(110,184,cs),
(175,700,l),
(100,700,l),
(35,180,ls),
(26,108,o),
(51,48,o),
(104,16,cs),
(130,0,o),
(161,-8,o),
(196,-8,cs)
);
}
);
width = 465;
},
{
anchors = (
{
name = b.uni0324_2;
position = "{261, 0}";
},
{
name = m.uni0308_1;
position = "{349, 700}";
},
{
name = m.uni0328;
position = "{322, 10}";
},
{
name = t.uni031B_2;
position = "{691, 700}";
}
);
layerId = "42EEB6A2-0F6A-466B-B7DE-827BEDD2FBEB";
shapes = (
{
closed = 1;
nodes = (
(363,-6,o),
(447,37,o),
(498,109,cs),
(523,144,o),
(538,185,o),
(544,230,cs),
(603,700,l),
(529,700,l),
(471,237,ls),
(464,183,o),
(444,140,o),
(410,108,cs),
(375,76,o),
(332,60,o),
(281,60,cs),
(230,60,o),
(192,76,o),
(165,108,cs),
(138,140,o),
(128,183,o),
(135,237,cs),
(193,700,l),
(117,700,l),
(58,230,ls),
(46,139,o),
(82,64,o),
(152,24,cs),
(187,4,o),
(227,-6,o),
(272,-6,cs)
);
}
);
width = 616;
},
{
anchors = (
{
name = b.uni0324_2;
position = "{44, 0}";
},
{
name = m.uni0308_1;
position = "{132, 700}";
},
{
name = m.uni0328;
position = "{73, 10}";
},
{
name = t.uni031B_2;
position = "{200, 700}";
}
);
layerId = "1274E628-2993-4082-8B1F-A8F640106D1F";
shapes = (
{
closed = 1;
nodes = (
(276,-8,o),
(335,23,o),
(371,79,cs),
(388,106,o),
(399,139,o),
(404,177,cs),
(470,700,l),
(429,700,l),
(364,181,ls),
(358,135,o),
(341,98,o),
(313,70,cs),
(284,42,o),
(249,28,o),
(208,28,cs),
(166,28,o),
(133,42,o),
(112,69,cs),
(90,96,o),
(82,134,o),
(88,181,cs),
(153,700,l),
(112,700,l),
(46,177,ls),
(38,108,o),
(60,48,o),
(112,16,cs),
(137,0,o),
(168,-8,o),
(203,-8,cs)
);
}
);
width = 478;
},
{
anchors = (
{
name = b.uni0324_2;
position = "{261, 0}";
},
{
name = m.uni0308_1;
position = "{349, 700}";
},
{
name = m.uni0328;
position = "{322, 10}";
},
{
name = t.uni031B_2;
position = "{691, 700}";
}
);
layerId = "23A348E8-67C8-4D07-8EB8-1DABED859DB2";
shapes = (
{
closed = 1;
nodes = (
(369,-6,o),
(450,36,o),
(498,107,cs),
(523,142,o),
(538,183,o),
(544,228,cs),
(603,700,l),
(570,700,l),
(512,236,ls),
(504,173,o),
(479,122,o),
(439,84,cs),
(397,45,o),
(346,26,o),
(285,26,cs),
(225,26,o),
(179,45,o),
(147,84,cs),
(114,122,o),
(102,173,o),
(110,236,cs),
(168,700,l),
(132,700,l),
(73,228,ls),
(61,137,o),
(96,63,o),
(164,24,cs),
(199,4,o),
(237,-6,o),
(281,-6,cs)
);
}
);
width = 631;
}
);
leftKerningGroup = U2;
rightKerningGroup = U;
unicode = 85;
},
{
glyphname = V;
layers = (
{
anchors = (
{
name = b.uni0324_2;
position = "{232, 0}";
},
{
name = m.uni0308_1;
position = "{320, 700}";
}
);
layerId = "8C4EF6F1-AE03-4AE6-BFE8-0B39B8283028";
shapes = (
{
closed = 1;
nodes = (
(106,0,l),
(275,0,l),
(514,700,l),
(336,700,l),
(216,219,l),
(221,700,l),
(44,700,l)
);
}
);
width = 452;
},
{
anchors = (
{
name = b.uni0324_2;
position = "{233, 0}";
},
{
name = m.uni0308_1;
position = "{321, 700}";
}
);
layerId = "8CE6108C-76AC-4665-97B3-B49825BA8C4F";
shapes = (
{
closed = 1;
nodes = (
(173,0,l),
(312,0,l),
(623,700,l),
(441,700,l),
(279,283,l),
(220,700,l),
(39,700,l)
);
}
);
width = 558;
},
{
anchors = (
{
name = b.uni0324_2;
position = "{198, 0}";
},
{
name = m.uni0308_1;
position = "{286, 700}";
}
);
layerId = "F55717F1-0552-4366-9B04-B3FD14930E50";
shapes = (
{
closed = 1;
nodes = (
(117,0,l),
(247,0,l),
(494,700,l),
(355,700,l),
(203,178,l),
(184,700,l),
(46,700,l)
);
}
);
width = 435;
},
{
anchors = (
{
name = b.uni0324_2;
position = "{233, 0}";
},
{
name = m.uni0308_1;
position = "{321, 700}";
}
);
layerId = "4CEE5D12-CF00-4907-BE82-3E2F3EAADBBF";
shapes = (
{
closed = 1;
nodes = (
(178,0,l),
(286,0,l),
(600,700,l),
(460,700,l),
(260,218,l),
(181,700,l),
(41,700,l)
);
}
);
width = 537;
},
{
anchors = (
{
name = b.uni0324_2;
position = "{148, 0}";
},
{
name = m.uni0308_1;
position = "{236, 700}";
}
);
layerId = "518EE9C6-B2D1-4F77-9E99-A5231379CDB9";
shapes = (
{
closed = 1;
nodes = (
(134,0,l),
(206,0,l),
(465,700,l),
(385,700,l),
(185,117,l),
(130,700,l),
(50,700,l)
);
}
);
width = 411;
},
{
anchors = (
{
name = b.uni0324_2;
position = "{234, 0}";
},
{
name = m.uni0308_1;
position = "{322, 700}";
}
);
layerId = "42EEB6A2-0F6A-466B-B7DE-827BEDD2FBEB";
shapes = (
{
closed = 1;
nodes = (
(187,0,l),
(248,0,l),
(566,700,l),
(489,700,l),
(233,121,l),
(123,700,l),
(45,700,l)
);
}
);
width = 507;
},
{
anchors = (
{
name = b.uni0324_2;
position = "{114, 0}";
},
{
name = m.uni0308_1;
position = "{202, 700}";
}
);
layerId = "1274E628-2993-4082-8B1F-A8F640106D1F";
shapes = (
{
closed = 1;
nodes = (
(145,0,l),
(178,0,l),
(445,700,l),
(404,700,l),
(172,76,l),
(93,700,l),
(52,700,l)
);
}
);
width = 394;
},
{
anchors = (
{
name = b.uni0324_2;
position = "{235, 0}";
},
{
name = m.uni0308_1;
position = "{323, 700}";
}
);
layerId = "23A348E8-67C8-4D07-8EB8-1DABED859DB2";
shapes = (
{
closed = 1;
nodes = (
(193,0,l),
(223,0,l),
(544,700,l),
(509,700,l),
(215,56,l),
(85,700,l),
(48,700,l)
);
}
);
width = 488;
}
);
unicode = 86;
},
{
glyphname = W;
layers = (
{
anchors = (
{
name = b.uni0324_2;
position = "{358, 0}";
},
{
name = m.uni0308_1;
position = "{446, 700}";
}
);
layerId = "8C4EF6F1-AE03-4AE6-BFE8-0B39B8283028";
shapes = (
{
closed = 1;
nodes = (
(67,0,l),
(239,0,l),
(350,426,l),
(353,0,l),
(527,0,l),
(733,700,l),
(572,700,l),
(464,221,l),
(441,700,l),
(330,700,l),
(186,221,l),
(199,700,l),
(38,700,l)
);
}
);
width = 667;
},
{
anchors = (
{
name = b.uni0324_2;
position = "{368, 0}";
},
{
name = m.uni0308_1;
position = "{456, 700}";
}
);
layerId = "8CE6108C-76AC-4665-97B3-B49825BA8C4F";
shapes = (
{
closed = 1;
nodes = (
(113,0,l),
(272,0,l),
(442,468,l),
(494,0,l),
(655,0,l),
(906,700,l),
(745,700,l),
(615,266,l),
(554,700,l),
(399,700,l),
(235,266,l),
(207,700,l),
(32,700,l)
);
}
);
width = 833;
},
{
anchors = (
{
name = b.uni0324_2;
position = "{309, 0}";
},
{
name = m.uni0308_1;
position = "{397, 700}";
}
);
layerId = "F55717F1-0552-4366-9B04-B3FD14930E50";
shapes = (
{
closed = 1;
nodes = (
(78,0,l),
(213,0,l),
(345,434,l),
(368,0,l),
(504,0,l),
(718,700,l),
(592,700,l),
(457,178,l),
(457,700,l),
(303,700,l),
(171,178,l),
(168,700,l),
(40,700,l)
);
}
);
width = 654;
},
{
anchors = (
{
name = b.uni0324_2;
position = "{368, 0}";
},
{
name = m.uni0308_1;
position = "{456, 700}";
}
);
layerId = "4CEE5D12-CF00-4907-BE82-3E2F3EAADBBF";
shapes = (
{
closed = 1;
nodes = (
(120,0,l),
(242,0,l),
(435,523,l),
(499,0,l),
(622,0,l),
(879,700,l),
(754,700,l),
(592,208,l),
(545,700,l),
(378,700,l),
(213,208,l),
(168,700,l),
(34,700,l)
);
}
);
width = 808;
},
{
anchors = (
{
name = b.uni0324_2;
position = "{237, 0}";
},
{
name = m.uni0308_1;
position = "{325, 700}";
}
);
layerId = "518EE9C6-B2D1-4F77-9E99-A5231379CDB9";
shapes = (
{
closed = 1;
nodes = (
(95,0,l),
(175,0,l),
(358,596,l),
(391,0,l),
(471,0,l),
(697,700,l),
(623,700,l),
(448,113,l),
(422,700,l),
(324,700,l),
(150,113,l),
(122,700,l),
(44,700,l)
);
}
);
width = 636;
},
{
anchors = (
{
name = b.uni0324_2;
position = "{369, 0}";
},
{
name = m.uni0308_1;
position = "{457, 700}";
}
);
layerId = "42EEB6A2-0F6A-466B-B7DE-827BEDD2FBEB";
shapes = (
{
closed = 1;
nodes = (
(131,0,l),
(198,0,l),
(427,606,l),
(507,0,l),
(574,0,l),
(839,700,l),
(769,700,l),
(558,121,l),
(488,700,l),
(392,700,l),
(181,121,l),
(111,700,l),
(38,700,l)
);
}
);
width = 773;
},
{
anchors = (
{
name = b.uni0324_2;
position = "{188, 0}";
},
{
name = m.uni0308_1;
position = "{276, 700}";
}
);
layerId = "1274E628-2993-4082-8B1F-A8F640106D1F";
shapes = (
{
closed = 1;
nodes = (
(106,0,l),
(149,0,l),
(365,704,l),
(406,0,l),
(448,0,l),
(682,700,l),
(643,700,l),
(442,70,l),
(398,700,l),
(337,700,l),
(136,70,l),
(91,700,l),
(46,700,l)
);
}
);
width = 623;
},
{
anchors = (
{
name = b.uni0324_2;
position = "{370, 0}";
},
{
name = m.uni0308_1;
position = "{458, 700}";
}
);
layerId = "23A348E8-67C8-4D07-8EB8-1DABED859DB2";
shapes = (
{
closed = 1;
nodes = (
(139,0,l),
(169,0,l),
(422,661,l),
(513,0,l),
(542,0,l),
(813,700,l),
(779,700,l),
(536,63,l),
(450,700,l),
(402,700,l),
(160,63,l),
(73,700,l),
(41,700,l)
);
}
);
width = 750;
}
);
rightKerningGroup = W;
unicode = 87;
},
{
glyphname = X;
layers = (
{
anchors = (
{
name = b.uni0324_2;
position = "{230, 0}";
},
{
name = m.uni0308_1;
position = "{318, 700}";
}
);
layerId = "8C4EF6F1-AE03-4AE6-BFE8-0B39B8283028";
shapes = (
{
closed = 1;
nodes = (
(-43,0,l),
(108,0,l),
(193,216,l),
(223,0,l),
(373,0,l),
(286,366,l),
(454,700,l),
(303,700,l),
(229,514,l),
(204,700,l),
(52,700,l),
(137,367,l)
);
}
);
width = 401;
},
{
anchors = (
{
name = b.uni0324_2;
position = "{252, 0}";
},
{
name = m.uni0308_1;
position = "{340, 700}";
}
);
layerId = "8CE6108C-76AC-4665-97B3-B49825BA8C4F";
shapes = (
{
closed = 1;
nodes = (
(-50,0,l),
(147,0,l),
(287,230,l),
(365,0,l),
(572,0,l),
(406,374,l),
(636,700,l),
(439,700,l),
(325,509,l),
(256,700,l),
(51,700,l),
(204,368,l)
);
}
);
width = 594;
},
{
anchors = (
{
name = b.uni0324_2;
position = "{179, 0}";
},
{
name = m.uni0308_1;
position = "{267, 700}";
}
);
layerId = "F55717F1-0552-4366-9B04-B3FD14930E50";
shapes = (
{
closed = 1;
nodes = (
(-41,0,l),
(83,0,l),
(197,247,l),
(248,0,l),
(372,0,l),
(273,367,l),
(450,700,l),
(326,700,l),
(227,485,l),
(181,700,l),
(57,700,l),
(150,367,l)
);
}
);
width = 402;
},
{
anchors = (
{
name = b.uni0324_2;
position = "{252, 0}";
},
{
name = m.uni0308_1;
position = "{340, 700}";
}
);
layerId = "4CEE5D12-CF00-4907-BE82-3E2F3EAADBBF";
shapes = (
{
closed = 1;
nodes = (
(-48,0,l),
(105,0,l),
(282,261,l),
(391,0,l),
(551,0,l),
(375,373,l),
(616,700,l),
(463,700,l),
(312,477,l),
(215,700,l),
(56,700,l),
(218,368,l)
);
}
);
width = 575;
},
{
anchors = (
{
name = b.uni0324_2;
position = "{102, 0}";
},
{
name = m.uni0308_1;
position = "{190, 700}";
}
);
layerId = "518EE9C6-B2D1-4F77-9E99-A5231379CDB9";
shapes = (
{
closed = 1;
nodes = (
(-38,0,l),
(46,0,l),
(203,293,l),
(285,0,l),
(370,0,l),
(254,368,l),
(444,700,l),
(360,700,l),
(222,441,l),
(147,700,l),
(64,700,l),
(169,367,l)
);
}
);
width = 403;
},
{
anchors = (
{
name = b.uni0324_2;
position = "{253, 0}";
},
{
name = m.uni0308_1;
position = "{341, 700}";
}
);
layerId = "42EEB6A2-0F6A-466B-B7DE-827BEDD2FBEB";
shapes = (
{
closed = 1;
nodes = (
(-44,0,l),
(43,0,l),
(276,308,l),
(431,0,l),
(521,0,l),
(329,371,l),
(587,700,l),
(500,700,l),
(293,429,l),
(154,700,l),
(64,700,l),
(240,368,l)
);
}
);
width = 549;
},
{
anchors = (
{
name = b.uni0324_2;
position = "{51, 0}";
},
{
name = m.uni0308_1;
position = "{139, 700}";
}
);
layerId = "1274E628-2993-4082-8B1F-A8F640106D1F";
shapes = (
{
closed = 1;
nodes = (
(-36,0,l),
(21,0,l),
(207,324,l),
(310,0,l),
(369,0,l),
(241,369,l),
(440,700,l),
(383,700,l),
(220,412,l),
(124,700,l),
(69,700,l),
(182,367,l)
);
}
);
width = 404;
},
{
anchors = (
{
name = b.uni0324_2;
position = "{254, 0}";
},
{
name = m.uni0308_1;
position = "{342, 700}";
}
);
layerId = "23A348E8-67C8-4D07-8EB8-1DABED859DB2";
shapes = (
{
closed = 1;
nodes = (
(-41,0,l),
(2,0,l),
(271,339,l),
(458,0,l),
(501,0,l),
(299,370,l),
(568,700,l),
(525,700,l),
(281,397,l),
(114,700,l),
(70,700,l),
(255,368,l)
);
}
);
width = 532;
}
);
unicode = 88;
},
{
glyphname = Y;
layers = (
{
anchors = (
{
name = b.uni0324_2;
position = "{223, 0}";
},
{
name = m.uni0308_1;
position = "{311, 700}";
}
);
layerId = "8C4EF6F1-AE03-4AE6-BFE8-0B39B8283028";
shapes = (
{
closed = 1;
nodes = (
(94,0,l),
(253,0,l),
(286,262,l),
(478,700,l),
(301,700,l),
(231,471,l),
(220,700,l),
(45,700,l),
(127,267,l)
);
}
);
width = 417;
},
{
anchors = (
{
name = b.uni0324_2;
position = "{226, 0}";
},
{
name = m.uni0308_1;
position = "{314, 700}";
}
);
layerId = "8CE6108C-76AC-4665-97B3-B49825BA8C4F";
shapes = (
{
closed = 1;
nodes = (
(154,0,l),
(327,0,l),
(363,288,l),
(618,700,l),
(425,700,l),
(296,455,l),
(230,700,l),
(39,700,l),
(190,285,l)
);
}
);
width = 552;
},
{
anchors = (
{
name = b.uni0324_2;
position = "{187, 0}";
},
{
name = m.uni0308_1;
position = "{275, 700}";
}
);
layerId = "F55717F1-0552-4366-9B04-B3FD14930E50";
shapes = (
{
closed = 1;
nodes = (
(103,0,l),
(228,0,l),
(262,275,l),
(460,700,l),
(321,700,l),
(220,436,l),
(185,700,l),
(47,700,l),
(138,278,l)
);
}
);
width = 402;
},
{
anchors = (
{
name = b.uni0324_2;
position = "{227, 0}";
},
{
name = m.uni0308_1;
position = "{315, 700}";
}
);
layerId = "4CEE5D12-CF00-4907-BE82-3E2F3EAADBBF";
shapes = (
{
closed = 1;
nodes = (
(160,0,l),
(294,0,l),
(330,291,l),
(588,700,l),
(440,700,l),
(279,420,l),
(189,700,l),
(42,700,l),
(196,290,l)
);
}
);
width = 525;
},
{
anchors = (
{
name = b.uni0324_2;
position = "{133, 0}";
},
{
name = m.uni0308_1;
position = "{221, 700}";
}
);
layerId = "518EE9C6-B2D1-4F77-9E99-A5231379CDB9";
shapes = (
{
closed = 1;
nodes = (
(117,0,l),
(191,0,l),
(228,294,l),
(433,700,l),
(351,700,l),
(202,383,l),
(132,700,l),
(50,700,l),
(154,294,l)
);
}
);
width = 379;
},
{
anchors = (
{
name = b.uni0324_2;
position = "{228, 0}";
},
{
name = m.uni0308_1;
position = "{316, 700}";
}
);
layerId = "42EEB6A2-0F6A-466B-B7DE-827BEDD2FBEB";
shapes = (
{
closed = 1;
nodes = (
(169,0,l),
(244,0,l),
(281,296,l),
(543,700,l),
(462,700,l),
(252,368,l),
(127,700,l),
(46,700,l),
(206,297,l)
);
}
);
width = 484;
},
{
anchors = (
{
name = b.uni0324_2;
position = "{98, 0}";
},
{
name = m.uni0308_1;
position = "{186, 700}";
}
);
layerId = "1274E628-2993-4082-8B1F-A8F640106D1F";
shapes = (
{
closed = 1;
nodes = (
(127,0,l),
(167,0,l),
(205,307,l),
(416,700,l),
(372,700,l),
(192,348,l),
(98,700,l),
(53,700,l),
(165,305,l)
);
}
);
width = 366;
},
{
anchors = (
{
name = b.uni0324_2;
position = "{228, 0}";
},
{
name = m.uni0308_1;
position = "{316, 700}";
}
);
layerId = "23A348E8-67C8-4D07-8EB8-1DABED859DB2";
shapes = (
{
closed = 1;
nodes = (
(174,0,l),
(210,0,l),
(247,299,l),
(512,700,l),
(476,700,l),
(234,333,l),
(85,700,l),
(48,700,l),
(212,302,l)
);
}
);
width = 455;
}
);
leftKerningGroup = Y;
unicode = 89;
},
{
glyphname = Z;
layers = (
{
anchors = (
{
name = b.uni0324_2;
position = "{179, 0}";
},
{
name = m.uni0308_1;
position = "{267, 700}";
}
);
layerId = "8C4EF6F1-AE03-4AE6-BFE8-0B39B8283028";
shapes = (
{
closed = 1;
nodes = (
(-29,0,l),
(290,0,l),
(308,145,l),
(148,145,l),
(358,555,l),
(377,700,l),
(68,700,l),
(49,555,l),
(200,555,l),
(-11,145,l)
);
}
);
width = 331;
},
{
anchors = (
{
name = b.uni0324_2;
position = "{210, 0}";
},
{
name = m.uni0308_1;
position = "{298, 700}";
}
);
layerId = "8CE6108C-76AC-4665-97B3-B49825BA8C4F";
shapes = (
{
closed = 1;
nodes = (
(-25,0,l),
(438,0,l),
(457,151,l),
(181,151,l),
(495,550,l),
(514,700,l),
(65,700,l),
(46,550,l),
(310,550,l),
(-6,151,l)
);
}
);
width = 484;
},
{
anchors = (
{
name = b.uni0324_2;
position = "{133, 0}";
},
{
name = m.uni0308_1;
position = "{221, 700}";
}
);
layerId = "F55717F1-0552-4366-9B04-B3FD14930E50";
shapes = (
{
closed = 1;
nodes = (
(-24,0,l),
(302,0,l),
(316,114,l),
(114,114,l),
(371,586,l),
(386,700,l),
(74,700,l),
(59,586,l),
(247,586,l),
(-10,114,l)
);
}
);
width = 347;
},
{
anchors = (
{
name = b.uni0324_2;
position = "{210, 0}";
},
{
name = m.uni0308_1;
position = "{298, 700}";
}
);
layerId = "4CEE5D12-CF00-4907-BE82-3E2F3EAADBBF";
shapes = (
{
closed = 1;
nodes = (
(-18,0,l),
(440,0,l),
(455,118,l),
(143,118,l),
(504,583,l),
(519,700,l),
(76,700,l),
(61,583,l),
(359,583,l),
(-3,118,l)
);
}
);
width = 491;
},
{
anchors = (
{
name = b.uni0324_2;
position = "{66, 0}";
},
{
name = m.uni0308_1;
position = "{154, 700}";
}
);
layerId = "518EE9C6-B2D1-4F77-9E99-A5231379CDB9";
shapes = (
{
closed = 1;
nodes = (
(-15,0,l),
(321,0,l),
(329,67,l),
(65,67,l),
(392,633,l),
(401,700,l),
(84,700,l),
(75,633,l),
(319,633,l),
(-7,67,l)
);
}
);
width = 374;
},
{
anchors = (
{
name = b.uni0324_2;
position = "{209, 0}";
},
{
name = m.uni0308_1;
position = "{297, 700}";
}
);
layerId = "42EEB6A2-0F6A-466B-B7DE-827BEDD2FBEB";
shapes = (
{
closed = 1;
nodes = (
(-9,0,l),
(442,0,l),
(451,68,l),
(85,68,l),
(517,632,l),
(526,700,l),
(92,700,l),
(83,632,l),
(432,632,l),
(0,68,l)
);
}
);
width = 500;
},
{
anchors = (
{
name = b.uni0324_2;
position = "{20, 0}";
},
{
name = m.uni0308_1;
position = "{108, 700}";
}
);
layerId = "1274E628-2993-4082-8B1F-A8F640106D1F";
shapes = (
{
closed = 1;
nodes = (
(-10,0,l),
(333,0,l),
(338,36,l),
(32,36,l),
(405,664,l),
(410,700,l),
(90,700,l),
(85,664,l),
(366,664,l),
(-5,36,l)
);
}
);
width = 390;
},
{
anchors = (
{
name = b.uni0324_2;
position = "{209, 0}";
},
{
name = m.uni0308_1;
position = "{297, 700}";
}
);
layerId = "23A348E8-67C8-4D07-8EB8-1DABED859DB2";
shapes = (
{
closed = 1;
nodes = (
(-2,0,l),
(444,0,l),
(448,35,l),
(46,35,l),
(526,665,l),
(531,700,l),
(103,700,l),
(98,665,l),
(481,665,l),
(2,35,l)
);
}
);
width = 507;
}
);
unicode = 90;
},
{
glyphname = AE;
layers = (
{
anchors = (
{
name = b.uni0324_2;
position = "{364, 0}";
},
{
name = m.uni0308_1;
position = "{453, 709}";
}
);
layerId = "8C4EF6F1-AE03-4AE6-BFE8-0B39B8283028";
shapes = (
{
closed = 1;
nodes = (
(-50,0,l),
(116,0,l),
(163,109,l),
(309,109,l),
(295,0,l),
(617,0,l),
(635,144,l),
(473,144,l),
(491,288,l),
(633,288,l),
(651,431,l),
(509,431,l),
(525,562,l),
(687,562,l),
(705,707,l),
(276,707,l)
);
},
{
closed = 1;
nodes = (
(231,254,l),
(365,562,l),
(327,254,l)
);
}
);
width = 653;
},
{
anchors = (
{
name = b.uni0324_2;
position = "{393, 0}";
},
{
name = m.uni0308_1;
position = "{481, 707}";
}
);
layerId = "8CE6108C-76AC-4665-97B3-B49825BA8C4F";
shapes = (
{
closed = 1;
nodes = (
(-57,0,l),
(124,0,l),
(191,123,l),
(381,123,l),
(366,0,l),
(829,0,l),
(848,150,l),
(560,150,l),
(576,279,l),
(823,279,l),
(842,430,l),
(595,430,l),
(611,557,l),
(899,557,l),
(917,707,l),
(355,707,l)
);
},
{
closed = 1;
nodes = (
(276,267,l),
(436,560,l),
(399,267,l)
);
}
);
width = 870;
},
{
anchors = (
{
name = b.uni0324_2;
position = "{303, 0}";
},
{
name = m.uni0308_1;
position = "{392, 714}";
}
);
layerId = "F55717F1-0552-4366-9B04-B3FD14930E50";
shapes = (
{
closed = 1;
nodes = (
(-48,0,l),
(83,0,l),
(150,136,l),
(317,136,l),
(300,0,l),
(616,0,l),
(630,113,l),
(440,113,l),
(464,303,l),
(628,303,l),
(642,416,l),
(478,416,l),
(500,593,l),
(690,593,l),
(704,707,l),
(306,707,l)
);
},
{
closed = 1;
nodes = (
(205,249,l),
(374,594,l),
(331,249,l)
);
}
);
width = 659;
},
{
anchors = (
{
name = b.uni0324_2;
position = "{393, 0}";
},
{
name = m.uni0308_1;
position = "{481, 707}";
}
);
layerId = "4CEE5D12-CF00-4907-BE82-3E2F3EAADBBF";
shapes = (
{
closed = 1;
nodes = (
(-55,0,l),
(86,0,l),
(173,144,l),
(388,144,l),
(370,0,l),
(809,0,l),
(824,117,l),
(520,117,l),
(542,298,l),
(800,298,l),
(815,415,l),
(557,415,l),
(579,590,l),
(883,590,l),
(897,707,l),
(381,707,l)
);
},
{
closed = 1;
nodes = (
(241,256,l),
(444,593,l),
(402,256,l)
);
}
);
width = 858;
},
{
anchors = (
{
name = b.uni0324_2;
position = "{212, 0}";
},
{
name = m.uni0308_1;
position = "{302, 721}";
}
);
layerId = "518EE9C6-B2D1-4F77-9E99-A5231379CDB9";
shapes = (
{
closed = 1;
nodes = (
(-45,0,l),
(33,0,l),
(131,176,l),
(330,176,l),
(308,0,l),
(614,0,l),
(622,67,l),
(390,67,l),
(423,326,l),
(621,326,l),
(629,393,l),
(431,393,l),
(462,640,l),
(694,640,l),
(702,707,l),
(351,707,l)
);
},
{
closed = 1;
nodes = (
(166,242,l),
(388,642,l),
(338,242,l)
);
}
);
width = 668;
},
{
anchors = (
{
name = b.uni0324_2;
position = "{393, 0}";
},
{
name = m.uni0308_1;
position = "{481, 707}";
}
);
layerId = "42EEB6A2-0F6A-466B-B7DE-827BEDD2FBEB";
shapes = (
{
closed = 1;
nodes = (
(-52,0,l),
(29,0,l),
(145,175,l),
(398,175,l),
(376,0,l),
(779,0,l),
(788,68,l),
(460,68,l),
(492,326,l),
(767,326,l),
(775,393,l),
(500,393,l),
(531,639,l),
(859,639,l),
(867,707,l),
(420,707,l)
);
},
{
closed = 1;
nodes = (
(188,239,l),
(456,642,l),
(406,239,l)
);
}
);
width = 840;
},
{
anchors = (
{
name = b.uni0324_2;
position = "{151, 0}";
},
{
name = m.uni0308_1;
position = "{242, 726}";
}
);
layerId = "1274E628-2993-4082-8B1F-A8F640106D1F";
shapes = (
{
closed = 1;
nodes = (
(-43,0,l),
(0,0,l),
(118,203,l),
(338,203,l),
(313,0,l),
(613,0,l),
(618,36,l),
(358,36,l),
(396,341,l),
(616,341,l),
(620,378,l),
(400,378,l),
(437,671,l),
(697,671,l),
(701,707,l),
(381,707,l)
);
},
{
closed = 1;
nodes = (
(141,237,l),
(397,674,l),
(343,237,l)
);
}
);
width = 674;
},
{
anchors = (
{
name = b.uni0324_2;
position = "{394, 0}";
},
{
name = m.uni0308_1;
position = "{482, 707}";
}
);
layerId = "23A348E8-67C8-4D07-8EB8-1DABED859DB2";
shapes = (
{
closed = 1;
nodes = (
(-49,0,l),
(-8,0,l),
(128,196,l),
(406,196,l),
(381,0,l),
(760,0,l),
(764,35,l),
(420,35,l),
(459,345,l),
(745,345,l),
(749,378,l),
(463,378,l),
(500,672,l),
(844,672,l),
(848,707,l),
(447,707,l)
);
},
{
closed = 1;
nodes = (
(154,228,l),
(465,675,l),
(410,228,l)
);
}
);
width = 830;
}
);
unicode = 198;
},
{
glyphname = OE;
layers = (
{
anchors = (
{
name = b.uni0324_2;
position = "{336, 0}";
},
{
name = m.uni0308_1;
position = "{425, 709}";
}
);
layerId = "8C4EF6F1-AE03-4AE6-BFE8-0B39B8283028";
shapes = (
{
closed = 1;
nodes = (
(190,-8,o),
(225,1,o),
(258,20,c),
(255,0,l),
(558,0,l),
(576,144,l),
(409,144,l),
(427,288,l),
(571,288,l),
(589,431,l),
(445,431,l),
(461,562,l),
(628,562,l),
(646,707,l),
(343,707,l),
(342,696,l),
(313,710,o),
(284,717,o),
(255,717,cs),
(198,717,o),
(150,702,o),
(113,671,cs),
(75,640,o),
(52,589,o),
(43,520,cs),
(2,188,ls),
(-15,56,o),
(37,-8,o),
(154,-8,cs)
);
},
{
closed = 1;
nodes = (
(200,492,ls),
(207,548,o),
(221,572,o),
(258,572,cs),
(293,572,o),
(300,545,o),
(293,492,cs),
(258,212,ls),
(252,163,o),
(231,136,o),
(203,136,c),
(171,137,o),
(159,161,o),
(165,212,cs)
);
}
);
width = 595;
},
{
anchors = (
{
name = b.uni0324_2;
position = "{388, 0}";
},
{
name = m.uni0308_1;
position = "{476, 707}";
}
);
layerId = "8CE6108C-76AC-4665-97B3-B49825BA8C4F";
shapes = (
{
closed = 1;
nodes = (
(268,-8,o),
(312,1,o),
(355,20,c),
(352,0,l),
(792,0,l),
(811,150,l),
(529,150,l),
(544,279,l),
(785,279,l),
(804,430,l),
(563,430,l),
(580,557,l),
(862,557,l),
(880,707,l),
(440,707,l),
(438,689,l),
(399,708,o),
(359,718,o),
(317,718,cs),
(234,718,o),
(169,692,o),
(122,639,cs),
(75,586,o),
(47,516,o),
(36,428,cs),
(17,280,ls),
(-6,100,o),
(57,-8,o),
(225,-8,cs)
);
},
{
closed = 1;
nodes = (
(209,419,ls),
(223,528,o),
(251,566,o),
(318,566,cs),
(382,566,o),
(401,524,o),
(388,419,cs),
(372,286,ls),
(359,186,o),
(326,147,o),
(265,147,cs),
(198,147,o),
(180,183,o),
(193,286,cs)
);
}
);
width = 832;
},
{
anchors = (
{
name = b.uni0324_2;
position = "{264, 0}";
},
{
name = m.uni0308_1;
position = "{353, 714}";
}
);
layerId = "F55717F1-0552-4366-9B04-B3FD14930E50";
shapes = (
{
closed = 1;
nodes = (
(209,-8,o),
(249,4,o),
(283,29,c),
(279,0,l),
(578,0,l),
(592,113,l),
(401,113,l),
(425,303,l),
(589,303,l),
(603,416,l),
(439,416,l),
(461,593,l),
(652,593,l),
(666,707,l),
(367,707,l),
(365,685,l),
(337,706,o),
(302,717,o),
(263,717,cs),
(205,717,o),
(156,700,o),
(119,667,cs),
(82,634,o),
(59,582,o),
(50,513,cs),
(10,195,ls),
(-7,60,o),
(49,-8,o),
(166,-8,cs)
);
},
{
closed = 1;
nodes = (
(174,493,ls),
(183,568,o),
(210,603,o),
(263,603,cs),
(314,603,o),
(332,566,o),
(323,493,cs),
(287,209,ls),
(278,141,o),
(248,105,o),
(201,105,c),
(150,106,o),
(129,140,o),
(138,209,cs)
);
}
);
width = 622;
},
{
anchors = (
{
name = b.uni0324_2;
position = "{387, 0}";
},
{
name = m.uni0308_1;
position = "{475, 707}";
}
);
layerId = "4CEE5D12-CF00-4907-BE82-3E2F3EAADBBF";
shapes = (
{
closed = 1;
nodes = (
(290,-8,o),
(340,5,o),
(384,32,c),
(380,0,l),
(797,0,l),
(812,117,l),
(519,117,l),
(541,298,l),
(788,298,l),
(803,415,l),
(556,415,l),
(578,590,l),
(871,590,l),
(885,707,l),
(468,707,l),
(465,676,l),
(427,703,o),
(381,717,o),
(327,717,cs),
(246,717,o),
(181,692,o),
(134,643,cs),
(87,593,o),
(57,524,o),
(46,435,cs),
(26,273,ls),
(4,94,o),
(71,-8,o),
(235,-8,cs)
);
},
{
closed = 1;
nodes = (
(181,428,ls),
(196,551,o),
(239,599,o),
(324,599,cs),
(408,599,o),
(439,547,o),
(424,428,cs),
(404,275,ls),
(390,162,o),
(346,112,o),
(263,112,cs),
(178,112,o),
(146,159,o),
(161,275,cs)
);
}
);
width = 845;
},
{
anchors = (
{
name = b.uni0324_2;
position = "{156, 0}";
},
{
name = m.uni0308_1;
position = "{246, 721}";
}
);
layerId = "518EE9C6-B2D1-4F77-9E99-A5231379CDB9";
shapes = (
{
closed = 1;
nodes = (
(239,-8,o),
(284,9,o),
(320,43,c),
(315,0,l),
(609,0,l),
(617,67,l),
(389,67,l),
(422,326,l),
(616,326,l),
(624,393,l),
(430,393,l),
(461,640,l),
(689,640,l),
(697,707,l),
(403,707,l),
(399,668,l),
(371,701,o),
(330,717,o),
(275,717,cs),
(216,717,o),
(169,699,o),
(131,662,cs),
(93,625,o),
(71,572,o),
(62,502,cs),
(25,206,ls),
(8,67,o),
(67,-8,o),
(184,-8,cs)
);
},
{
closed = 1;
nodes = (
(136,495,ls),
(149,598,o),
(194,649,o),
(273,649,cs),
(348,649,o),
(382,598,o),
(369,495,cs),
(333,205,ls),
(321,108,o),
(274,59,o),
(199,59,cs),
(120,60,o),
(88,108,o),
(100,205,cs)
);
}
);
width = 663;
},
{
anchors = (
{
name = b.uni0324_2;
position = "{387, 0}";
},
{
name = m.uni0308_1;
position = "{475, 707}";
}
);
layerId = "42EEB6A2-0F6A-466B-B7DE-827BEDD2FBEB";
shapes = (
{
closed = 1;
nodes = (
(324,-8,o),
(383,11,o),
(429,50,c),
(423,0,l),
(806,0,l),
(815,68,l),
(506,68,l),
(539,326,l),
(795,326,l),
(803,393,l),
(547,393,l),
(577,639,l),
(886,639,l),
(894,707,l),
(511,707,l),
(505,657,l),
(469,696,o),
(415,716,o),
(343,716,cs),
(265,716,o),
(202,693,o),
(154,648,cs),
(105,603,o),
(76,535,o),
(65,445,cs),
(42,262,ls),
(20,86,o),
(94,-8,o),
(251,-8,cs)
);
},
{
closed = 1;
nodes = (
(138,442,ls),
(156,585,o),
(220,648,o),
(335,648,cs),
(448,648,o),
(495,579,o),
(478,442,cs),
(455,258,ls),
(438,126,o),
(375,60,o),
(262,60,cs),
(149,60,o),
(98,123,o),
(115,258,cs)
);
}
);
width = 868;
},
{
anchors = (
{
name = b.uni0324_2;
position = "{84, 0}";
},
{
name = m.uni0308_1;
position = "{175, 726}";
}
);
layerId = "1274E628-2993-4082-8B1F-A8F640106D1F";
shapes = (
{
closed = 1;
nodes = (
(258,-8,o),
(308,12,o),
(346,52,c),
(339,0,l),
(629,0,l),
(634,36,l),
(382,36,l),
(420,341,l),
(634,341,l),
(638,378,l),
(424,378,l),
(461,671,l),
(713,671,l),
(717,707,l),
(427,707,l),
(421,657,l),
(393,697,o),
(348,717,o),
(283,717,cs),
(224,717,o),
(175,698,o),
(138,659,cs),
(100,620,o),
(78,565,o),
(69,495,cs),
(34,213,ls),
(16,72,o),
(79,-8,o),
(196,-8,cs)
);
},
{
closed = 1;
nodes = (
(110,496,ls),
(125,617,o),
(184,680,o),
(279,680,cs),
(370,680,o),
(414,619,o),
(399,496,cs),
(362,202,ls),
(347,86,o),
(291,28,o),
(198,28,cs),
(101,29,o),
(58,86,o),
(73,202,cs)
);
}
);
width = 690;
},
{
anchors = (
{
name = b.uni0324_2;
position = "{386, 0}";
},
{
name = m.uni0308_1;
position = "{474, 707}";
}
);
layerId = "23A348E8-67C8-4D07-8EB8-1DABED859DB2";
shapes = (
{
closed = 1;
nodes = (
(346,-8,o),
(412,15,o),
(459,62,c),
(451,0,l),
(811,0,l),
(815,35,l),
(495,35,l),
(536,345,l),
(798,345,l),
(802,378,l),
(540,378,l),
(575,672,l),
(895,672,l),
(899,707,l),
(539,707,l),
(532,644,l),
(497,691,o),
(436,715,o),
(352,715,cs),
(276,715,o),
(214,694,o),
(166,652,cs),
(118,609,o),
(87,543,o),
(76,452,cs),
(51,255,ls),
(29,80,o),
(108,-8,o),
(261,-8,cs)
);
},
{
closed = 1;
nodes = (
(109,451,ls),
(129,607,o),
(208,681,o),
(341,681,cs),
(474,681,o),
(532,602,o),
(513,451,cs),
(488,247,ls),
(470,102,o),
(394,25,o),
(259,25,cs),
(127,25,o),
(65,99,o),
(84,247,cs)
);
}
);
width = 881;
}
);
leftKerningGroup = C;
unicode = 338;
},
{
glyphname = Thorn;
layers = (
{
anchors = (
{
name = b.uni0324_2;
position = "{217, 0}";
},
{
name = m.uni0308_1;
position = "{306, 709}";
}
);
layerId = "8C4EF6F1-AE03-4AE6-BFE8-0B39B8283028";
shapes = (
{
closed = 1;
nodes = (
(-16,0,l),
(143,0,l),
(160,132,l),
(198,132,ls),
(271,132,o),
(325,151,o),
(361,189,cs),
(397,227,o),
(419,287,o),
(429,370,cs),
(439,451,o),
(432,511,o),
(406,548,cs),
(380,585,o),
(329,603,o),
(256,603,cs),
(218,603,l),
(231,707,l),
(72,707,l)
);
},
{
closed = 1;
nodes = (
(178,276,l),
(200,458,l),
(234,458,ls),
(271,458,o),
(277,431,o),
(269,370,cs),
(260,302,o),
(249,276,o),
(212,276,cs)
);
}
);
width = 418;
},
{
anchors = (
{
name = b.uni0324_2;
position = "{239, 0}";
},
{
name = m.uni0308_1;
position = "{327, 707}";
}
);
layerId = "8CE6108C-76AC-4665-97B3-B49825BA8C4F";
shapes = (
{
closed = 1;
nodes = (
(-6,0,l),
(169,0,l),
(187,146,l),
(291,146,ls),
(366,146,o),
(427,166,o),
(474,206,cs),
(520,246,o),
(547,300,o),
(556,369,cs),
(565,440,o),
(551,496,o),
(514,537,cs),
(476,578,o),
(421,598,o),
(348,598,cs),
(244,598,l),
(257,707,l),
(82,707,l)
);
},
{
closed = 1;
nodes = (
(206,295,l),
(225,448,l),
(322,448,ls),
(367,448,o),
(389,418,o),
(383,369,cs),
(378,326,o),
(343,295,o),
(303,295,cs)
);
}
);
width = 543;
},
{
anchors = (
{
name = b.uni0324_2;
position = "{169, 0}";
},
{
name = m.uni0308_1;
position = "{258, 714}";
}
);
layerId = "F55717F1-0552-4366-9B04-B3FD14930E50";
shapes = (
{
closed = 1;
nodes = (
(-5,0,l),
(120,0,l),
(138,147,l),
(203,147,ls),
(271,147,o),
(322,165,o),
(358,202,cs),
(394,238,o),
(415,294,o),
(425,371,cs),
(435,447,o),
(426,503,o),
(401,539,cs),
(375,575,o),
(328,593,o),
(259,593,cs),
(194,593,l),
(208,707,l),
(83,707,l)
);
},
{
closed = 1;
nodes = (
(153,260,l),
(180,479,l),
(241,479,ls),
(294,479,o),
(309,447,o),
(299,371,cs),
(289,292,o),
(267,260,o),
(214,260,cs)
);
}
);
width = 420;
},
{
anchors = (
{
name = b.uni0324_2;
position = "{239, 0}";
},
{
name = m.uni0308_1;
position = "{327, 707}";
}
);
layerId = "4CEE5D12-CF00-4907-BE82-3E2F3EAADBBF";
shapes = (
{
closed = 1;
nodes = (
(9,0,l),
(144,0,l),
(163,153,l),
(293,153,ls),
(365,153,o),
(424,172,o),
(470,211,cs),
(516,250,o),
(543,302,o),
(551,368,cs),
(560,437,o),
(546,492,o),
(510,531,cs),
(474,570,o),
(420,590,o),
(348,590,cs),
(218,590,l),
(232,707,l),
(97,707,l)
);
},
{
closed = 1;
nodes = (
(178,269,l),
(203,473,l),
(326,473,ls),
(393,473,o),
(426,436,o),
(417,368,cs),
(409,307,o),
(365,269,o),
(301,269,cs)
);
}
);
width = 550;
},
{
anchors = (
{
name = b.uni0324_2;
position = "{99, 0}";
},
{
name = m.uni0308_1;
position = "{189, 721}";
}
);
layerId = "518EE9C6-B2D1-4F77-9E99-A5231379CDB9";
shapes = (
{
closed = 1;
nodes = (
(13,0,l),
(87,0,l),
(108,170,l),
(214,170,ls),
(275,170,o),
(323,187,o),
(358,221,cs),
(392,254,o),
(414,305,o),
(422,372,cs),
(431,441,o),
(422,492,o),
(397,527,cs),
(372,561,o),
(328,578,o),
(265,578,cs),
(159,578,l),
(175,707,l),
(101,707,l)
);
},
{
closed = 1;
nodes = (
(117,236,l),
(151,511,l),
(253,511,ls),
(330,511,o),
(359,471,o),
(347,372,cs),
(335,277,o),
(295,236,o),
(219,236,cs)
);
}
);
width = 426;
},
{
anchors = (
{
name = b.uni0324_2;
position = "{239, 0}";
},
{
name = m.uni0308_1;
position = "{327, 707}";
}
);
layerId = "42EEB6A2-0F6A-466B-B7DE-827BEDD2FBEB";
shapes = (
{
closed = 1;
nodes = (
(31,0,l),
(106,0,l),
(126,163,l),
(295,163,ls),
(363,163,o),
(419,181,o),
(464,218,cs),
(509,255,o),
(535,304,o),
(543,367,cs),
(551,434,o),
(538,486,o),
(504,523,cs),
(470,560,o),
(417,578,o),
(347,578,cs),
(178,578,l),
(194,707,l),
(119,707,l)
);
},
{
closed = 1;
nodes = (
(135,230,l),
(170,511,l),
(332,511,ls),
(432,511,o),
(480,462,o),
(468,367,cs),
(457,276,o),
(397,230,o),
(297,230,cs)
);
}
);
width = 560;
},
{
anchors = (
{
name = b.uni0324_2;
position = "{52, 0}";
},
{
name = m.uni0308_1;
position = "{143, 726}";
}
);
layerId = "1274E628-2993-4082-8B1F-A8F640106D1F";
shapes = (
{
closed = 1;
nodes = (
(25,0,l),
(65,0,l),
(88,185,l),
(221,185,ls),
(277,185,o),
(322,201,o),
(356,233,cs),
(390,265,o),
(411,312,o),
(419,373,cs),
(427,436,o),
(419,485,o),
(394,518,cs),
(369,551,o),
(328,568,o),
(269,568,cs),
(136,568,l),
(153,707,l),
(113,707,l)
);
},
{
closed = 1;
nodes = (
(93,220,l),
(132,532,l),
(261,532,ls),
(354,532,o),
(392,486,o),
(378,373,cs),
(365,268,o),
(314,220,o),
(222,220,cs)
);
}
);
width = 430;
},
{
anchors = (
{
name = b.uni0324_2;
position = "{239, 0}";
},
{
name = m.uni0308_1;
position = "{327, 707}";
}
);
layerId = "23A348E8-67C8-4D07-8EB8-1DABED859DB2";
shapes = (
{
closed = 1;
nodes = (
(46,0,l),
(81,0,l),
(102,170,l),
(297,170,ls),
(362,170,o),
(418,188,o),
(461,223,cs),
(504,258,o),
(530,306,o),
(538,366,cs),
(546,432,o),
(534,483,o),
(501,518,cs),
(467,553,o),
(416,570,o),
(347,570,cs),
(152,570,l),
(169,707,l),
(134,707,l)
);
},
{
closed = 1;
nodes = (
(107,204,l),
(148,536,l),
(336,536,ls),
(457,536,o),
(516,479,o),
(502,366,cs),
(488,257,o),
(419,204,o),
(295,204,cs)
);
}
);
width = 567;
}
);
unicode = 222;
},
{
glyphname = a;
layers = (
{
anchors = (
{
name = b.uni0324_2;
position = "{196, 0}";
},
{
name = m.uni0308_1;
position = "{264, 543}";
},
{
name = m.uni0328;
position = "{391, 10}";
}
);
layerId = "8C4EF6F1-AE03-4AE6-BFE8-0B39B8283028";
shapes = (
{
closed = 1;
nodes = (
(132,-8,o),
(147,-5,o),
(159,3,cs),
(170,10,o),
(186,23,o),
(205,42,c),
(200,0,l),
(341,0,l),
(388,372,ls),
(402,485,o),
(347,556,o),
(235,556,cs),
(131,556,o),
(54,495,o),
(39,379,cs),
(39,378,l),
(178,378,l),
(179,386,ls),
(182,411,o),
(198,423,o),
(213,423,cs),
(233,423,o),
(240,409,o),
(237,385,cs),
(230,327,l),
(210,327,ls),
(89,327,o),
(11,272,o),
(-2,165,cs),
(-16,54,o),
(24,-8,o),
(113,-8,cs)
);
},
{
closed = 1;
nodes = (
(155,208,o),
(175,223,o),
(215,223,cs),
(217,223,l),
(210,169,ls),
(207,142,o),
(192,124,o),
(177,124,c),
(155,123,o),
(147,140,o),
(151,173,cs)
);
}
);
width = 395;
},
{
anchors = (
{
name = b.uni0324_2;
position = "{208, 0}";
},
{
name = m.uni0308_1;
position = "{274, 530}";
},
{
name = m.uni0328;
position = "{414, 10}";
}
);
layerId = "8CE6108C-76AC-4665-97B3-B49825BA8C4F";
shapes = (
{
closed = 1;
nodes = (
(177,-6,o),
(198,-3,o),
(214,4,cs),
(229,11,o),
(249,23,o),
(272,40,c),
(267,0,l),
(426,0,l),
(470,348,ls),
(486,479,o),
(415,548,o),
(271,548,cs),
(144,548,o),
(54,483,o),
(41,375,cs),
(41,372,l),
(192,372,l),
(192,375,ls),
(196,404,o),
(221,423,o),
(252,423,cs),
(297,423,o),
(313,402,o),
(308,357,cs),
(304,327,l),
(209,327,ls),
(92,327,o),
(15,268,o),
(2,169,cs),
(-11,62,o),
(43,-6,o),
(152,-6,cs)
);
},
{
closed = 1;
nodes = (
(164,202,o),
(186,216,o),
(223,216,cs),
(290,216,l),
(288,198,ls),
(282,150,o),
(258,127,o),
(210,127,cs),
(173,127,o),
(157,143,o),
(161,174,cs)
);
}
);
width = 490;
},
{
anchors = (
{
name = b.uni0324_2;
position = "{163, 0}";
},
{
name = m.uni0308_1;
position = "{232, 550}";
},
{
name = m.uni0328;
position = "{332, 10}";
}
);
layerId = "F55717F1-0552-4366-9B04-B3FD14930E50";
shapes = (
{
closed = 1;
nodes = (
(140,-8,o),
(158,-4,o),
(173,4,cs),
(187,12,o),
(203,26,o),
(221,45,c),
(215,0,l),
(326,0,l),
(373,377,ls),
(387,485,o),
(336,549,o),
(229,549,cs),
(130,549,o),
(59,491,o),
(46,387,cs),
(46,383,l),
(156,383,l),
(157,391,ls),
(161,426,o),
(184,444,o),
(213,444,cs),
(246,444,o),
(260,423,o),
(255,386,cs),
(247,317,l),
(202,317,ls),
(89,317,o),
(17,262,o),
(4,159,cs),
(-9,52,o),
(31,-8,o),
(119,-8,cs)
);
},
{
closed = 1;
nodes = (
(130,212,o),
(156,234,o),
(205,234,cs),
(236,234,l),
(227,162,ls),
(222,121,o),
(198,95,o),
(167,95,cs),
(132,95,o),
(118,118,o),
(124,164,cs)
);
}
);
width = 392;
},
{
anchors = (
{
name = b.uni0324_2;
position = "{208, 0}";
},
{
name = m.uni0308_1;
position = "{274, 530}";
},
{
name = m.uni0328;
position = "{414, 10}";
}
);
layerId = "4CEE5D12-CF00-4907-BE82-3E2F3EAADBBF";
shapes = (
{
closed = 1;
nodes = (
(187,-6,o),
(211,-2,o),
(231,6,cs),
(251,14,o),
(270,27,o),
(292,46,c),
(286,0,l),
(409,0,l),
(453,350,ls),
(468,474,o),
(402,539,o),
(266,539,cs),
(146,539,o),
(62,477,o),
(49,377,cs),
(49,373,l),
(167,373,l),
(167,376,ls),
(172,416,o),
(206,441,o),
(253,441,cs),
(310,441,o),
(335,413,o),
(328,356,cs),
(322,314,l),
(209,314,ls),
(96,314,o),
(20,256,o),
(8,160,cs),
(-5,56,o),
(50,-6,o),
(159,-6,cs)
);
},
{
closed = 1;
nodes = (
(137,206,o),
(166,227,o),
(219,227,cs),
(311,227,l),
(307,189,ls),
(299,126,o),
(266,96,o),
(201,96,cs),
(149,96,o),
(126,118,o),
(131,163,cs)
);
}
);
width = 487;
},
{
anchors = (
{
name = b.uni0324_2;
position = "{114, 0}";
},
{
name = m.uni0308_1;
position = "{184, 560}";
},
{
name = m.uni0328;
position = "{244, 10}";
}
);
layerId = "518EE9C6-B2D1-4F77-9E99-A5231379CDB9";
shapes = (
{
closed = 1;
nodes = (
(152,-8,o),
(174,-3,o),
(193,7,cs),
(212,16,o),
(229,30,o),
(243,49,c),
(237,0,l),
(303,0,l),
(351,384,ls),
(364,484,o),
(318,538,o),
(219,538,cs),
(130,538,o),
(68,484,o),
(57,399,cs),
(56,390,l),
(122,390,l),
(123,398,ls),
(129,447,o),
(161,476,o),
(212,476,cs),
(267,476,o),
(290,446,o),
(282,387,cs),
(272,302,l),
(190,302,ls),
(89,302,o),
(25,246,o),
(13,150,cs),
(0,49,o),
(41,-8,o),
(128,-8,cs)
);
},
{
closed = 1;
nodes = (
(91,218,o),
(127,250,o),
(190,250,cs),
(265,250,l),
(253,152,ls),
(245,88,o),
(208,52,o),
(153,52,c),
(98,53,o),
(75,86,o),
(83,151,cs)
);
}
);
width = 388;
},
{
anchors = (
{
name = b.uni0324_2;
position = "{208, 0}";
},
{
name = m.uni0308_1;
position = "{274, 530}";
},
{
name = m.uni0328;
position = "{414, 10}";
}
);
layerId = "42EEB6A2-0F6A-466B-B7DE-827BEDD2FBEB";
shapes = (
{
closed = 1;
nodes = (
(203,-6,o),
(232,-1,o),
(257,9,cs),
(281,19,o),
(303,34,o),
(322,55,c),
(315,0,l),
(383,0,l),
(427,353,ls),
(442,468,o),
(385,526,o),
(261,526,cs),
(150,526,o),
(73,468,o),
(62,380,cs),
(61,375,l),
(129,375,l),
(129,378,ls),
(136,434,o),
(186,468,o),
(255,468,cs),
(331,468,o),
(367,430,o),
(357,354,cs),
(350,295,l),
(210,295,ls),
(102,295,o),
(29,238,o),
(17,146,cs),
(5,47,o),
(59,-6,o),
(170,-6,cs)
);
},
{
closed = 1;
nodes = (
(95,211,o),
(138,244,o),
(214,244,cs),
(344,244,l),
(335,176,ls),
(324,91,o),
(279,50,o),
(188,50,cs),
(113,50,o),
(79,82,o),
(87,147,cs)
);
}
);
width = 482;
},
{
anchors = (
{
name = b.uni0324_2;
position = "{81, 0}";
},
{
name = m.uni0308_1;
position = "{152, 567}";
},
{
name = m.uni0328;
position = "{185, 10}";
}
);
layerId = "1274E628-2993-4082-8B1F-A8F640106D1F";
shapes = (
{
closed = 1;
nodes = (
(160,-8,o),
(185,-3,o),
(207,8,cs),
(229,19,o),
(246,33,o),
(259,52,c),
(252,0,l),
(288,0,l),
(337,389,ls),
(349,484,o),
(306,531,o),
(213,531,cs),
(129,531,o),
(73,480,o),
(64,407,cs),
(62,395,l),
(99,395,l),
(100,403,ls),
(108,462,o),
(146,497,o),
(211,497,cs),
(279,497,o),
(310,460,o),
(301,388,cs),
(289,292,l),
(182,292,ls),
(89,292,o),
(31,236,o),
(19,144,cs),
(7,47,o),
(49,-8,o),
(134,-8,cs)
);
},
{
closed = 1;
nodes = (
(66,222,o),
(109,261,o),
(181,261,cs),
(285,261,l),
(270,145,ls),
(260,66,o),
(214,22,o),
(143,23,cs),
(75,24,o),
(46,63,o),
(56,142,cs)
);
}
);
width = 385;
},
{
anchors = (
{
name = b.uni0324_2;
position = "{208, 0}";
},
{
name = m.uni0308_1;
position = "{274, 530}";
},
{
name = m.uni0328;
position = "{414, 10}";
}
);
layerId = "23A348E8-67C8-4D07-8EB8-1DABED859DB2";
shapes = (
{
closed = 1;
nodes = (
(213,-6,o),
(246,0,o),
(274,11,cs),
(303,22,o),
(325,39,o),
(342,61,c),
(334,0,l),
(366,0,l),
(410,355,ls),
(424,463,o),
(373,517,o),
(257,517,cs),
(153,517,o),
(80,462,o),
(70,382,cs),
(69,376,l),
(104,376,l),
(104,379,ls),
(113,446,o),
(171,486,o),
(256,486,cs),
(344,486,o),
(388,441,o),
(377,353,cs),
(368,282,l),
(210,282,ls),
(106,282,o),
(34,226,o),
(23,137,cs),
(11,41,o),
(66,-6,o),
(177,-6,cs)
);
},
{
closed = 1;
nodes = (
(68,215,o),
(117,251,o),
(209,251,cs),
(364,251,l),
(354,167,ls),
(341,67,o),
(288,23,o),
(180,23,cs),
(89,23,o),
(49,61,o),
(58,136,cs)
);
}
);
width = 479;
}
);
leftKerningGroup = a2;
rightKerningGroup = a;
unicode = 97;
},
{
glyphname = b;
layers = (
{
anchors = (
{
name = b.uni0324_2;
position = "{199, 0}";
},
{
name = m.uni0308_1;
position = "{267, 543}";
}
);
layerId = "8C4EF6F1-AE03-4AE6-BFE8-0B39B8283028";
shapes = (
{
closed = 1;
nodes = (
(291,-8,o),
(347,48,o),
(362,164,cs),
(389,385,ls),
(404,504,o),
(367,556,o),
(290,556,c),
(249,557,o),
(219,543,o),
(199,511,c),
(223,707,l),
(71,707,l),
(-17,0,l),
(128,0,l),
(132,31,l),
(157,3,o),
(182,-8,o),
(215,-8,cs)
);
},
{
closed = 1;
nodes = (
(176,358,ls),
(182,405,o),
(193,420,o),
(212,420,cs),
(232,420,o),
(240,404,o),
(234,357,cs),
(213,190,ls),
(207,145,o),
(196,127,o),
(175,127,cs),
(156,127,o),
(149,147,o),
(155,191,cs)
);
}
);
width = 396;
},
{
anchors = (
{
name = b.uni0324_2;
position = "{214, 0}";
},
{
name = m.uni0308_1;
position = "{280, 530}";
}
);
layerId = "8CE6108C-76AC-4665-97B3-B49825BA8C4F";
shapes = (
{
closed = 1;
nodes = (
(374,-6,o),
(453,75,o),
(471,219,cs),
(484,323,ls),
(503,468,o),
(442,548,o),
(333,548,cs),
(290,548,o),
(253,531,o),
(218,499,c),
(244,707,l),
(78,707,l),
(-10,0,l),
(151,0,l),
(156,36,l),
(184,7,o),
(219,-6,o),
(266,-6,cs)
);
},
{
closed = 1;
nodes = (
(194,321,ls),
(201,373,o),
(232,401,o),
(267,401,cs),
(304,401,o),
(326,378,o),
(319,317,cs),
(307,223,ls),
(300,168,o),
(276,139,o),
(236,139,cs),
(196,139,o),
(175,165,o),
(182,222,cs)
);
}
);
width = 502;
},
{
anchors = (
{
name = b.uni0324_2;
position = "{166, 0}";
},
{
name = m.uni0308_1;
position = "{235, 550}";
}
);
layerId = "F55717F1-0552-4366-9B04-B3FD14930E50";
shapes = (
{
closed = 1;
nodes = (
(283,-8,o),
(340,50,o),
(355,167,cs),
(381,374,ls),
(396,493,o),
(355,549,o),
(274,549,cs),
(233,549,o),
(200,533,o),
(176,498,c),
(202,707,l),
(83,707,l),
(-5,0,l),
(110,0,l),
(115,38,l),
(138,6,o),
(165,-8,o),
(202,-8,cs)
);
},
{
closed = 1;
nodes = (
(156,354,ls),
(164,415,o),
(184,442,o),
(219,442,cs),
(252,442,o),
(267,415,o),
(259,354,cs),
(238,186,ls),
(230,123,o),
(211,98,o),
(176,98,cs),
(141,98,o),
(128,127,o),
(135,186,cs)
);
}
);
width = 397;
},
{
anchors = (
{
name = b.uni0324_2;
position = "{214, 0}";
},
{
name = m.uni0308_1;
position = "{280, 530}";
}
);
layerId = "4CEE5D12-CF00-4907-BE82-3E2F3EAADBBF";
shapes = (
{
closed = 1;
nodes = (
(362,-6,o),
(440,73,o),
(458,214,cs),
(471,319,ls),
(489,463,o),
(429,539,o),
(318,539,cs),
(269,539,o),
(226,518,o),
(192,478,c),
(220,707,l),
(93,707,l),
(5,0,l),
(129,0,l),
(135,49,l),
(162,12,o),
(201,-6,o),
(254,-6,cs)
);
},
{
closed = 1;
nodes = (
(170,314,ls),
(179,385,o),
(219,426,o),
(272,426,cs),
(327,426,o),
(353,391,o),
(343,314,cs),
(331,218,ls),
(322,145,o),
(290,106,o),
(235,106,cs),
(178,106,o),
(149,146,o),
(158,218,cs)
);
}
);
width = 499;
},
{
anchors = (
{
name = b.uni0324_2;
position = "{116, 0}";
},
{
name = m.uni0308_1;
position = "{186, 560}";
}
);
layerId = "518EE9C6-B2D1-4F77-9E99-A5231379CDB9";
shapes = (
{
closed = 1;
nodes = (
(271,-8,o),
(331,52,o),
(346,172,cs),
(369,357,ls),
(384,476,o),
(337,538,o),
(250,538,c),
(207,537,o),
(171,517,o),
(143,478,c),
(171,707,l),
(101,707,l),
(13,0,l),
(83,0,l),
(89,48,l),
(107,11,o),
(139,-8,o),
(183,-8,cs)
);
},
{
closed = 1;
nodes = (
(127,348,ls),
(137,432,o),
(173,475,o),
(230,475,cs),
(285,475,o),
(308,433,o),
(298,349,cs),
(277,180,ls),
(265,91,o),
(233,54,o),
(178,54,cs),
(121,54,o),
(95,98,o),
(105,179,cs)
);
}
);
width = 399;
},
{
anchors = (
{
name = b.uni0324_2;
position = "{214, 0}";
},
{
name = m.uni0308_1;
position = "{280, 530}";
}
);
layerId = "42EEB6A2-0F6A-466B-B7DE-827BEDD2FBEB";
shapes = (
{
closed = 1;
nodes = (
(344,-6,o),
(421,70,o),
(438,207,cs),
(451,313,ls),
(469,456,o),
(410,526,o),
(298,526,cs),
(238,526,o),
(186,498,o),
(152,446,c),
(184,707,l),
(115,707,l),
(27,0,l),
(96,0,l),
(105,69,l),
(128,20,o),
(172,-6,o),
(236,-6,cs)
);
},
{
closed = 1;
nodes = (
(134,303,ls),
(146,402,o),
(199,463,o),
(280,463,cs),
(360,463,o),
(394,412,o),
(381,309,cs),
(368,211,ls),
(356,108,o),
(310,56,o),
(233,56,cs),
(150,56,o),
(111,117,o),
(123,212,cs)
);
}
);
width = 494;
},
{
anchors = (
{
name = b.uni0324_2;
position = "{83, 0}";
},
{
name = m.uni0308_1;
position = "{154, 567}";
}
);
layerId = "1274E628-2993-4082-8B1F-A8F640106D1F";
shapes = (
{
closed = 1;
nodes = (
(263,-8,o),
(324,54,o),
(339,175,cs),
(360,346,ls),
(375,465,o),
(325,531,o),
(234,531,c),
(191,528,o),
(150,506,o),
(120,465,c),
(150,707,l),
(113,707,l),
(25,0,l),
(65,0,l),
(72,55,l),
(87,14,o),
(122,-8,o),
(170,-8,cs)
);
},
{
closed = 1;
nodes = (
(107,344,ls),
(119,443,o),
(165,497,o),
(238,497,cs),
(306,497,o),
(336,445,o),
(323,346,cs),
(302,176,ls),
(289,69,o),
(247,25,o),
(179,25,cs),
(106,25,o),
(74,78,o),
(86,174,cs)
);
}
);
width = 400;
},
{
anchors = (
{
name = b.uni0324_2;
position = "{215, 0}";
},
{
name = m.uni0308_1;
position = "{281, 530}";
}
);
layerId = "23A348E8-67C8-4D07-8EB8-1DABED859DB2";
shapes = (
{
closed = 1;
nodes = (
(333,-6,o),
(408,67,o),
(425,202,cs),
(439,309,ls),
(456,450,o),
(398,517,o),
(285,517,cs),
(218,517,o),
(161,485,o),
(126,425,c),
(161,707,l),
(131,707,l),
(43,0,l),
(75,0,l),
(85,82,l),
(106,25,o),
(154,-6,o),
(225,-6,cs)
);
},
{
closed = 1;
nodes = (
(111,296,ls),
(126,413,o),
(186,488,o),
(286,488,cs),
(383,488,o),
(421,425,o),
(406,306,cs),
(394,206,ls),
(379,85,o),
(325,23,o),
(233,23,cs),
(133,23,o),
(86,99,o),
(100,208,cs)
);
}
);
width = 493;
}
);
leftKerningGroup = b2;
rightKerningGroup = b;
unicode = 98;
},
{
glyphname = c;
layers = (
{
anchors = (
{
name = b.uni0324_2;
position = "{195, 0}";
},
{
name = m.uni0308_1;
position = "{263, 543}";
}
);
layerId = "8C4EF6F1-AE03-4AE6-BFE8-0B39B8283028";
shapes = (
{
closed = 1;
nodes = (
(219,-8,o),
(265,7,o),
(299,38,cs),
(332,69,o),
(352,115,o),
(360,177,cs),
(363,197,l),
(218,197,l),
(215,178,ls),
(211,143,o),
(197,127,o),
(178,127,cs),
(162,127,o),
(155,150,o),
(160,190,cs),
(181,357,ls),
(186,402,o),
(197,420,o),
(216,420,cs),
(236,420,o),
(243,403,o),
(240,372,cs),
(237,351,l),
(382,351,l),
(385,376,ls),
(400,496,o),
(349,556,o),
(234,556,cs),
(111,556,o),
(46,497,o),
(28,350,cs),
(9,197,ls),
(-9,53,o),
(41,-8,o),
(162,-8,cs)
);
}
);
width = 393;
},
{
anchors = (
{
name = b.uni0324_2;
position = "{210, 0}";
},
{
name = m.uni0308_1;
position = "{276, 530}";
}
);
layerId = "8CE6108C-76AC-4665-97B3-B49825BA8C4F";
shapes = (
{
closed = 1;
nodes = (
(282,-6,o),
(340,12,o),
(382,47,cs),
(424,82,o),
(449,131,o),
(457,194,cs),
(458,203,l),
(301,203,l),
(301,196,ls),
(296,160,o),
(272,139,o),
(232,139,cs),
(193,139,o),
(172,167,o),
(179,223,cs),
(191,317,ls),
(197,368,o),
(221,401,o),
(264,401,cs),
(304,401,o),
(323,377,o),
(319,340,cs),
(318,333,l),
(475,333,l),
(476,346,ls),
(492,473,o),
(423,548,o),
(282,548,cs),
(139,548,o),
(47,470,o),
(28,318,cs),
(16,224,ls),
(-3,73,o),
(70,-6,o),
(211,-6,cs)
);
}
);
width = 492;
},
{
anchors = (
{
name = b.uni0324_2;
position = "{162, 0}";
},
{
name = m.uni0308_1;
position = "{231, 550}";
}
);
layerId = "F55717F1-0552-4366-9B04-B3FD14930E50";
shapes = (
{
closed = 1;
nodes = (
(217,-8,o),
(260,7,o),
(293,37,cs),
(325,66,o),
(345,111,o),
(352,171,cs),
(355,188,l),
(240,188,l),
(237,171,ls),
(231,122,o),
(210,98,o),
(175,98,cs),
(142,98,o),
(127,126,o),
(134,186,cs),
(155,354,ls),
(163,417,o),
(183,442,o),
(219,442,cs),
(254,442,o),
(268,418,o),
(262,371,cs),
(260,352,l),
(375,352,l),
(378,373,ls),
(392,490,o),
(342,549,o),
(233,549,cs),
(118,549,o),
(53,489,o),
(36,353,cs),
(15,187,ls),
(-1,52,o),
(48,-8,o),
(163,-8,cs)
);
}
);
width = 394;
},
{
anchors = (
{
name = b.uni0324_2;
position = "{210, 0}";
},
{
name = m.uni0308_1;
position = "{276, 530}";
}
);
layerId = "4CEE5D12-CF00-4907-BE82-3E2F3EAADBBF";
shapes = (
{
closed = 1;
nodes = (
(278,-6,o),
(331,11,o),
(373,45,cs),
(414,78,o),
(438,124,o),
(445,183,cs),
(446,190,l),
(325,190,l),
(324,184,ls),
(318,135,o),
(283,106,o),
(228,106,cs),
(169,106,o),
(141,141,o),
(150,218,cs),
(162,314,ls),
(172,389,o),
(207,426,o),
(268,426,cs),
(323,426,o),
(351,396,o),
(344,345,cs),
(343,339,l),
(464,339,l),
(466,349,ls),
(481,468,o),
(412,539,o),
(280,539,cs),
(144,539,o),
(55,464,o),
(37,316,cs),
(24,217,ls),
(6,69,o),
(76,-6,o),
(212,-6,cs)
);
}
);
width = 491;
},
{
anchors = (
{
name = b.uni0324_2;
position = "{113, 0}";
},
{
name = m.uni0308_1;
position = "{183, 560}";
}
);
layerId = "518EE9C6-B2D1-4F77-9E99-A5231379CDB9";
shapes = (
{
closed = 1;
nodes = (
(213,-8,o),
(254,6,o),
(284,35,cs),
(315,63,o),
(334,105,o),
(341,162,cs),
(343,175,l),
(273,175,l),
(271,161,ls),
(262,89,o),
(230,54,o),
(171,54,cs),
(112,54,o),
(85,91,o),
(97,180,cs),
(118,349,ls),
(129,438,o),
(163,475,o),
(224,475,cs),
(281,475,o),
(306,440,o),
(297,369,cs),
(295,354,l),
(365,354,l),
(367,369,ls),
(381,482,o),
(332,538,o),
(231,538,cs),
(128,538,o),
(64,478,o),
(49,357,cs),
(26,172,ls),
(10,51,o),
(60,-8,o),
(164,-8,cs)
);
}
);
width = 396;
},
{
anchors = (
{
name = b.uni0324_2;
position = "{210, 0}";
},
{
name = m.uni0308_1;
position = "{276, 530}";
}
);
layerId = "42EEB6A2-0F6A-466B-B7DE-827BEDD2FBEB";
shapes = (
{
closed = 1;
nodes = (
(271,-6,o),
(320,10,o),
(359,41,cs),
(398,72,o),
(420,114,o),
(427,167,cs),
(427,171,l),
(359,171,l),
(359,166,ls),
(350,97,o),
(298,56,o),
(222,56,cs),
(134,56,o),
(94,102,o),
(107,211,cs),
(120,309,ls),
(134,420,o),
(186,463,o),
(274,463,cs),
(351,463,o),
(391,424,o),
(382,353,cs),
(382,348,l),
(450,348,l),
(450,353,ls),
(464,460,o),
(398,526,o),
(279,526,cs),
(154,526,o),
(68,456,o),
(50,313,cs),
(37,207,ls),
(19,63,o),
(85,-6,o),
(213,-6,cs)
);
}
);
width = 489;
},
{
anchors = (
{
name = b.uni0324_2;
position = "{80, 0}";
},
{
name = m.uni0308_1;
position = "{151, 567}";
}
);
layerId = "1274E628-2993-4082-8B1F-A8F640106D1F";
shapes = (
{
closed = 1;
nodes = (
(211,-8,o),
(249,6,o),
(279,33,cs),
(309,60,o),
(327,101,o),
(334,156,cs),
(335,166,l),
(295,166,l),
(293,154,ls),
(282,67,o),
(243,25,o),
(168,25,cs),
(92,25,o),
(57,67,o),
(71,176,cs),
(92,346,ls),
(106,453,o),
(149,497,o),
(228,497,cs),
(300,497,o),
(331,455,o),
(320,368,cs),
(318,355,l),
(358,355,l),
(360,366,ls),
(374,477,o),
(326,531,o),
(230,531,cs),
(135,531,o),
(71,471,o),
(57,360,cs),
(32,162,ls),
(18,50,o),
(68,-8,o),
(165,-8,cs)
);
}
);
width = 397;
},
{
anchors = (
{
name = b.uni0324_2;
position = "{210, 0}";
},
{
name = m.uni0308_1;
position = "{276, 530}";
}
);
layerId = "23A348E8-67C8-4D07-8EB8-1DABED859DB2";
shapes = (
{
closed = 1;
nodes = (
(267,-6,o),
(312,9,o),
(350,39,cs),
(387,68,o),
(408,107,o),
(415,156,cs),
(415,158,l),
(383,158,l),
(382,154,ls),
(372,71,o),
(309,23,o),
(218,23,cs),
(110,23,o),
(62,75,o),
(79,206,cs),
(91,306,ls),
(108,441,o),
(171,488,o),
(278,488,cs),
(370,488,o),
(418,442,o),
(408,358,cs),
(407,354,l),
(439,354,l),
(440,356,ls),
(452,455,o),
(387,517,o),
(278,517,cs),
(159,517,o),
(76,450,o),
(59,311,cs),
(45,200,ls),
(27,59,o),
(91,-6,o),
(214,-6,cs)
);
}
);
width = 488;
}
);
leftKerningGroup = c;
rightKerningGroup = b;
unicode = 99;
},
{
glyphname = ccedilla;
layers = (
{
anchors = (
{
name = b.uni0324_2;
position = "{142, -167}";
},
{
name = m.uni0308_1;
position = "{263, 543}";
}
);
layerId = "8C4EF6F1-AE03-4AE6-BFE8-0B39B8283028";
shapes = (
{
closed = 1;
nodes = (
(34,-220,l),
(108,-220,l),
(182,-222,o),
(232,-186,o),
(239,-131,c),
(248,-75,o),
(226,-40,o),
(169,-34,c),
(180,-7,l),
(294,0,o),
(346,69,o),
(360,177,cs),
(363,197,l),
(218,197,l),
(215,178,ls),
(211,143,o),
(197,127,o),
(178,127,cs),
(162,127,o),
(155,150,o),
(160,190,cs),
(181,357,ls),
(187,402,o),
(197,420,o),
(216,420,cs),
(236,420,o),
(244,403,o),
(240,372,cs),
(237,351,l),
(382,351,l),
(385,376,ls),
(400,496,o),
(349,556,o),
(234,556,cs),
(111,556,o),
(46,497,o),
(28,350,cs),
(9,197,ls),
(-6,78,o),
(26,16,o),
(105,-2,c),
(83,-52,l),
(79,-85,l),
(125,-85,ls),
(142,-85,o),
(164,-93,o),
(161,-113,cs),
(159,-132,o),
(131,-133,o),
(119,-133,cs),
(45,-133,l)
);
}
);
width = 393;
},
{
anchors = (
{
name = b.uni0324_2;
position = "{160, -160}";
},
{
name = m.uni0308_1;
position = "{276, 530}";
}
);
layerId = "8CE6108C-76AC-4665-97B3-B49825BA8C4F";
shapes = (
{
closed = 1;
nodes = (
(106,-220,l),
(180,-220,l),
(254,-222,o),
(304,-186,o),
(311,-131,c),
(320,-75,o),
(298,-40,o),
(241,-34,c),
(253,-4,l),
(368,9,o),
(442,78,o),
(457,194,cs),
(458,203,l),
(301,203,l),
(301,196,ls),
(296,160,o),
(272,139,o),
(232,139,cs),
(193,139,o),
(172,167,o),
(179,223,cs),
(191,317,ls),
(197,368,o),
(221,401,o),
(264,401,cs),
(304,401,o),
(324,377,o),
(319,340,cs),
(318,333,l),
(475,333,l),
(476,346,ls),
(492,473,o),
(423,548,o),
(282,548,cs),
(139,548,o),
(47,470,o),
(28,318,cs),
(16,224,ls),
(-1,86,o),
(58,9,o),
(175,-4,c),
(155,-52,l),
(151,-85,l),
(197,-85,ls),
(214,-85,o),
(236,-93,o),
(233,-113,cs),
(231,-132,o),
(203,-133,o),
(191,-133,cs),
(117,-133,l)
);
}
);
width = 492;
},
{
anchors = (
{
name = b.uni0324_2;
position = "{105, -168}";
},
{
name = m.uni0308_1;
position = "{231, 550}";
}
);
layerId = "F55717F1-0552-4366-9B04-B3FD14930E50";
shapes = (
{
closed = 1;
nodes = (
(60,-220,l),
(128,-220,l),
(197,-221,o),
(252,-190,o),
(259,-131,c),
(267,-77,o),
(243,-43,o),
(187,-37,c),
(200,-5,l),
(298,11,o),
(340,78,o),
(352,171,cs),
(355,188,l),
(240,188,l),
(237,171,ls),
(231,122,o),
(210,98,o),
(175,98,cs),
(142,98,o),
(126,126,o),
(134,186,cs),
(155,354,ls),
(163,417,o),
(183,442,o),
(219,442,cs),
(254,442,o),
(268,418,o),
(262,371,cs),
(260,352,l),
(375,352,l),
(378,373,ls),
(393,490,o),
(342,549,o),
(233,549,cs),
(118,549,o),
(53,489,o),
(36,353,cs),
(15,187,ls),
(0,67,o),
(38,6,o),
(126,-6,c),
(108,-50,l),
(103,-85,l),
(145,-85,ls),
(166,-85,o),
(191,-93,o),
(188,-117,cs),
(185,-139,o),
(155,-143,o),
(138,-143,cs),
(70,-143,l)
);
}
);
width = 394;
},
{
anchors = (
{
name = b.uni0324_2;
position = "{160, -160}";
},
{
name = m.uni0308_1;
position = "{276, 530}";
}
);
layerId = "4CEE5D12-CF00-4907-BE82-3E2F3EAADBBF";
shapes = (
{
closed = 1;
nodes = (
(110,-220,l),
(178,-220,l),
(247,-221,o),
(302,-190,o),
(309,-131,c),
(317,-77,o),
(293,-43,o),
(237,-37,c),
(251,-4,l),
(358,9,o),
(431,75,o),
(445,183,cs),
(446,190,l),
(325,190,l),
(324,184,ls),
(318,135,o),
(283,106,o),
(228,106,cs),
(169,106,o),
(140,141,o),
(150,218,cs),
(162,314,ls),
(171,389,o),
(207,426,o),
(268,426,cs),
(323,426,o),
(350,396,o),
(344,345,cs),
(343,339,l),
(464,339,l),
(466,349,ls),
(481,468,o),
(412,539,o),
(280,539,cs),
(144,539,o),
(56,464,o),
(37,316,cs),
(24,217,ls),
(7,82,o),
(65,8,o),
(177,-4,c),
(158,-50,l),
(153,-85,l),
(195,-85,ls),
(216,-85,o),
(241,-93,o),
(238,-117,cs),
(235,-139,o),
(205,-143,o),
(188,-143,cs),
(120,-143,l)
);
}
);
width = 491;
},
{
anchors = (
{
name = b.uni0324_2;
position = "{50, -170}";
},
{
name = m.uni0308_1;
position = "{183, 560}";
}
);
layerId = "518EE9C6-B2D1-4F77-9E99-A5231379CDB9";
shapes = (
{
closed = 1;
nodes = (
(68,-220,l),
(126,-220,ls),
(188,-220,o),
(249,-197,o),
(257,-131,cs),
(264,-78,o),
(237,-47,o),
(184,-42,c),
(198,-5,l),
(289,9,o),
(330,77,o),
(341,162,cs),
(343,175,l),
(273,175,l),
(271,161,ls),
(262,89,o),
(230,54,o),
(171,54,cs),
(112,54,o),
(86,91,o),
(97,180,cs),
(118,349,ls),
(129,438,o),
(163,475,o),
(224,475,cs),
(281,475,o),
(306,440,o),
(297,369,cs),
(295,354,l),
(365,354,l),
(367,369,ls),
(381,482,o),
(332,538,o),
(231,538,cs),
(128,538,o),
(64,478,o),
(49,357,cs),
(26,172,ls),
(13,65,o),
(49,6,o),
(129,-6,c),
(112,-48,l),
(107,-85,l),
(143,-85,ls),
(170,-85,o),
(203,-94,o),
(199,-123,cs),
(196,-150,o),
(160,-157,o),
(134,-157,cs),
(76,-157,l)
);
}
);
width = 396;
},
{
anchors = (
{
name = b.uni0324_2;
position = "{160, -160}";
},
{
name = m.uni0308_1;
position = "{276, 530}";
}
);
layerId = "42EEB6A2-0F6A-466B-B7DE-827BEDD2FBEB";
shapes = (
{
closed = 1;
nodes = (
(116,-220,l),
(174,-220,ls),
(236,-220,o),
(297,-197,o),
(305,-131,cs),
(312,-78,o),
(285,-47,o),
(232,-42,c),
(247,-4,l),
(343,7,o),
(415,69,o),
(427,167,cs),
(427,171,l),
(359,171,l),
(359,166,ls),
(350,97,o),
(298,56,o),
(222,56,cs),
(134,56,o),
(93,102,o),
(107,211,cs),
(120,309,ls),
(134,420,o),
(186,463,o),
(274,463,cs),
(351,463,o),
(391,424,o),
(382,353,cs),
(382,348,l),
(450,348,l),
(450,353,ls),
(463,460,o),
(398,526,o),
(279,526,cs),
(154,526,o),
(68,456,o),
(50,313,cs),
(37,207,ls),
(21,77,o),
(74,8,o),
(178,-4,c),
(160,-48,l),
(155,-85,l),
(191,-85,ls),
(218,-85,o),
(251,-94,o),
(247,-123,cs),
(244,-150,o),
(208,-157,o),
(182,-157,cs),
(124,-157,l)
);
}
);
width = 489;
},
{
anchors = (
{
name = b.uni0324_2;
position = "{13, -171}";
},
{
name = m.uni0308_1;
position = "{151, 567}";
}
);
layerId = "1274E628-2993-4082-8B1F-A8F640106D1F";
shapes = (
{
closed = 1;
nodes = (
(76,-220,l),
(123,-220,l),
(192,-221,o),
(246,-192,o),
(253,-138,cs),
(259,-90,o),
(224,-58,o),
(161,-54,c),
(181,-7,l),
(277,0,o),
(323,66,o),
(334,156,cs),
(335,166,l),
(295,166,l),
(293,154,ls),
(282,67,o),
(243,25,o),
(168,25,cs),
(92,25,o),
(57,67,o),
(71,176,cs),
(92,346,ls),
(105,453,o),
(149,497,o),
(228,497,cs),
(300,497,o),
(331,455,o),
(320,368,cs),
(318,355,l),
(358,355,l),
(360,366,ls),
(374,477,o),
(326,531,o),
(230,531,cs),
(135,531,o),
(71,471,o),
(57,360,cs),
(32,162,ls),
(19,57,o),
(63,0,o),
(148,-7,c),
(124,-61,l),
(122,-83,l),
(141,-83,ls),
(190,-83,o),
(224,-101,o),
(220,-135,cs),
(216,-169,o),
(177,-186,o),
(128,-186,cs),
(81,-186,l)
);
}
);
width = 397;
},
{
anchors = (
{
name = b.uni0324_2;
position = "{160, -160}";
},
{
name = m.uni0308_1;
position = "{276, 530}";
}
);
layerId = "23A348E8-67C8-4D07-8EB8-1DABED859DB2";
shapes = (
{
closed = 1;
nodes = (
(113,-220,l),
(160,-220,l),
(229,-221,o),
(283,-192,o),
(290,-138,cs),
(296,-90,o),
(261,-58,o),
(198,-54,c),
(218,-6,l),
(315,-4,o),
(402,53,o),
(415,156,cs),
(415,158,l),
(383,158,l),
(382,154,ls),
(372,71,o),
(309,23,o),
(218,23,cs),
(110,23,o),
(63,75,o),
(79,206,cs),
(91,306,ls),
(108,441,o),
(171,488,o),
(278,488,cs),
(370,488,o),
(419,442,o),
(408,358,cs),
(407,354,l),
(439,354,l),
(440,356,ls),
(452,455,o),
(387,517,o),
(278,517,cs),
(159,517,o),
(76,450,o),
(59,311,cs),
(45,200,ls),
(29,70,o),
(81,5,o),
(186,-5,c),
(161,-61,l),
(159,-83,l),
(178,-83,ls),
(227,-83,o),
(261,-101,o),
(257,-135,cs),
(253,-169,o),
(214,-186,o),
(165,-186,cs),
(118,-186,l)
);
}
);
width = 488;
}
);
leftKerningGroup = c;
rightKerningGroup = b;
unicode = 231;
},
